<svg xmlns="http://www.w3.org/2000/svg" width="189.537" height="185.616" viewBox="0 0 189.537 185.616"><g transform="translate(-6.96 -12.557)"><g transform="translate(17.481 12.557)"><path d="M126.67,14.234c16.9,3.4,36.109,12.8,43.961,29.1,11.868,24.63,33.213,24.381,38.7,71.024a94.851,94.851,0,0,1,.272,20.505,79.782,79.782,0,0,1-1.625,9.92c-6.632,28.824-28.5,46.807-53.547,52.023-32.956,6.865-52.478-13.769-64.171-27.343S39.754,143.5,34,97.686a91.624,91.624,0,0,1-.292-21.073c1.695-16,8.377-33.042,20.342-44.257Q55.4,31.1,56.831,29.915C75.451,14.5,103.626,9.6,126.67,14.234Z" transform="translate(-33.239 -12.557)" fill="#ebe3de"/><path d="M126.67,14.234c16.9,3.4,36.109,12.8,43.961,29.1,11.868,24.63,33.213,24.381,38.7,71.024a94.851,94.851,0,0,1,.272,20.505,79.782,79.782,0,0,1-1.625,9.92c-6.632,28.824-28.5,46.807-53.547,52.023-32.956,6.865-52.478-13.769-64.171-27.343S39.754,143.5,34,97.686a91.624,91.624,0,0,1-.292-21.073c1.695-16,8.377-33.042,20.342-44.257Q55.4,31.1,56.831,29.915C75.451,14.5,103.626,9.6,126.67,14.234Z" transform="translate(-33.239 -12.557)" fill="#fff" opacity="0.7"/></g><g transform="translate(25.446 18.467)"><path d="M5.427,5.927a.5.5,0,0,1-.354-.146L-.354.354a.5.5,0,0,1,0-.707.5.5,0,0,1,.707,0L5.78,5.073a.5.5,0,0,1-.354.854Z" transform="translate(0 11.627)" fill="#263238"/><path d="M0,5.927A.5.5,0,0,1-.354,5.78a.5.5,0,0,1,0-.707L5.073-.354a.5.5,0,0,1,.707,0,.5.5,0,0,1,0,.707L.354,5.78A.5.5,0,0,1,0,5.927Z" transform="translate(0 11.627)" fill="#263238"/><path d="M5.427,5.927a.5.5,0,0,1-.354-.146L-.354.354a.5.5,0,0,1,0-.707.5.5,0,0,1,.707,0L5.78,5.073a.5.5,0,0,1-.354.854Z" transform="translate(153.011 154.185)" fill="#263238"/><path d="M0,5.927A.5.5,0,0,1-.354,5.78a.5.5,0,0,1,0-.707L5.073-.354a.5.5,0,0,1,.707,0,.5.5,0,0,1,0,.707L.354,5.78A.5.5,0,0,1,0,5.927Z" transform="translate(153.011 154.185)" fill="#263238"/><path d="M3.689,4.189a.5.5,0,0,1-.354-.146L-.354.354a.5.5,0,0,1,0-.707.5.5,0,0,1,.707,0L4.043,3.335a.5.5,0,0,1-.354.854Z" transform="translate(33.1 40.365)" fill="#263238"/><path d="M0,4.189a.5.5,0,0,1-.354-.146.5.5,0,0,1,0-.707L3.335-.354a.5.5,0,0,1,.707,0,.5.5,0,0,1,0,.707L.354,4.043A.5.5,0,0,1,0,4.189Z" transform="translate(33.1 40.365)" fill="#263238"/><path d="M3.689,4.189a.5.5,0,0,1-.354-.146L-.354.354a.5.5,0,0,1,0-.707.5.5,0,0,1,.707,0L4.043,3.335a.5.5,0,0,1-.354.854Z" transform="translate(127.036 128.342)" fill="#263238"/><path d="M0,4.189a.5.5,0,0,1-.354-.146.5.5,0,0,1,0-.707L3.335-.354a.5.5,0,0,1,.707,0,.5.5,0,0,1,0,.707L.354,4.043A.5.5,0,0,1,0,4.189Z" transform="translate(127.036 128.342)" fill="#263238"/><path d="M3.689,4.189a.5.5,0,0,1-.354-.146L-.354.354a.5.5,0,0,1,0-.707.5.5,0,0,1,.707,0L4.043,3.335a.5.5,0,0,1-.354.854Z" transform="translate(14.674 162.022)" fill="#263238"/><path d="M0,4.189a.5.5,0,0,1-.354-.146.5.5,0,0,1,0-.707L3.335-.354a.5.5,0,0,1,.707,0,.5.5,0,0,1,0,.707L.354,4.043A.5.5,0,0,1,0,4.189Z" transform="translate(14.674 162.022)" fill="#263238"/><path d="M3.693,4.189a.5.5,0,0,1-.353-.146L-.353.354a.5.5,0,0,1,0-.707.5.5,0,0,1,.707,0L4.046,3.335a.5.5,0,0,1-.353.854Z" transform="translate(125.874 1.17)" fill="#263238"/><path d="M0,4.189a.5.5,0,0,1-.354-.147.5.5,0,0,1,0-.707L3.34-.354a.5.5,0,0,1,.707,0,.5.5,0,0,1,0,.707L.353,4.043A.5.5,0,0,1,0,4.189Z" transform="translate(125.874 1.17)" fill="#263238"/><path d="M59.182,106.43a2.832,2.832,0,1,1-2.832,2.832A2.814,2.814,0,0,1,59.182,106.43Zm0,4.665a1.832,1.832,0,1,0-1.832-1.832A1.834,1.834,0,0,0,59.182,111.095Z" transform="translate(-55.637 -76.154)" fill="#263238"/><path d="M251.882,32.925a2.832,2.832,0,1,1,2.832-2.832A2.836,2.836,0,0,1,251.882,32.925Zm0-4.665a1.832,1.832,0,1,0,1.832,1.832A1.834,1.834,0,0,0,251.882,28.26Z" transform="translate(-173.429 -27.76)" fill="#263238"/><path d="M2.325-.5A2.825,2.825,0,1,1-.5,2.325,2.828,2.828,0,0,1,2.325-.5Zm0,4.649A1.825,1.825,0,1,0,.5,2.325,1.827,1.827,0,0,0,2.325,4.149Z" transform="translate(150.76 128.63)" fill="#263238"/><path d="M211.552,465.69a2.832,2.832,0,1,1-2.832,2.832A2.814,2.814,0,0,1,211.552,465.69Zm0,4.665a1.832,1.832,0,1,0-1.832-1.832A1.834,1.834,0,0,0,211.552,470.355Z" transform="translate(-148.777 -295.76)" fill="#263238"/><path d="M119.682,310.34a2.832,2.832,0,1,1-2.832,2.832A2.836,2.836,0,0,1,119.682,310.34Zm0,4.665a1.832,1.832,0,1,0-1.832-1.832A1.834,1.834,0,0,0,119.682,315Z" transform="translate(-92.619 -200.799)" fill="#263238"/><path d="M475.962,128.84a2.832,2.832,0,1,1-2.832,2.832A2.836,2.836,0,0,1,475.962,128.84Zm0,4.665a1.832,1.832,0,1,0-1.832-1.832A1.834,1.834,0,0,0,475.962,133.5Z" transform="translate(-310.403 -89.853)" fill="#263238"/></g><g transform="translate(7.46 99.089)"><path d="M188.537.5H0A.5.5,0,0,1-.5,0,.5.5,0,0,1,0-.5H188.537a.5.5,0,0,1,.5.5A.5.5,0,0,1,188.537.5Z" transform="translate(0)" fill="#263238"/></g><g transform="translate(10.986 69.332)"><path d="M47.28,292.92l1.022,9.294c0,2.721,4.583,4.945,10.235,4.945s10.231-2.212,10.231-4.945L69.8,292.92Z" transform="translate(-35.326 -240.71)" fill="#babdbf"/><path d="M47.28,292.42H69.8a.5.5,0,0,1,.5.555l-1.023,9.268c-.015,1.513-1.178,2.9-3.278,3.919a17.562,17.562,0,0,1-7.453,1.5,17.547,17.547,0,0,1-7.455-1.5c-2.1-1.017-3.266-2.406-3.28-3.914l-1.019-9.268a.5.5,0,0,1,.5-.555Zm21.957,1h-21.4l.961,8.74a.5.5,0,0,1,0,.055c0,1.1.99,2.208,2.716,3.043a16.538,16.538,0,0,0,7.019,1.4,16.554,16.554,0,0,0,7.018-1.4c1.725-.833,2.714-1.944,2.714-3.047a.5.5,0,0,1,0-.055Z" transform="translate(-35.326 -240.71)" fill="#263238"/><path d="M45.39,278.78v5.73c0,1.466,5.368,3.289,11.992,3.289s11.992-1.823,11.992-3.289v-5.73Z" transform="translate(-34.171 -232.067)" fill="#babdbf"/><path d="M45.39,278.28H69.374a.5.5,0,0,1,.5.5v5.73c0,.7-.672,1.731-3.871,2.674a31.57,31.57,0,0,1-8.621,1.115,31.57,31.57,0,0,1-8.621-1.115c-3.2-.942-3.871-1.974-3.871-2.674v-5.73A.5.5,0,0,1,45.39,278.28Zm23.484,1H45.89v5.23c0,.256.771,1.013,3.153,1.714a30.551,30.551,0,0,0,8.339,1.074,30.551,30.551,0,0,0,8.339-1.074c2.383-.7,3.153-1.458,3.153-1.714Z" transform="translate(-34.171 -232.067)" fill="#263238"/><ellipse cx="11.992" cy="3.397" rx="11.992" ry="3.397" transform="translate(11.219 43.316)" fill="#babdbf"/><path d="M11.992-.5A33,33,0,0,1,20.608.514c2.536.718,3.876,1.715,3.876,2.883s-1.34,2.165-3.876,2.883a33,33,0,0,1-8.616,1.014A33,33,0,0,1,3.376,6.281C.84,5.563-.5,4.565-.5,3.4S.84,1.232,3.376.514A33,33,0,0,1,11.992-.5Zm0,6.795a32,32,0,0,0,8.344-.976C22.66,4.66,23.484,3.872,23.484,3.4s-.825-1.263-3.149-1.921A32,32,0,0,0,11.992.5a32,32,0,0,0-8.344.976C1.325,2.135.5,2.923.5,3.4S1.325,4.66,3.649,5.319A32,32,0,0,0,11.992,6.295Z" transform="translate(11.219 43.316)" fill="#263238"/><ellipse cx="9.345" cy="2.647" rx="9.345" ry="2.647" transform="translate(13.866 44.066)" fill="#263238"/><path d="M19.142,186.8a12.525,12.525,0,0,0,3.658-.124s-.777-1.594-.855-1.687c-.731-1.092-2.783-2.768-4.2-2.363a1.734,1.734,0,0,0-1.069,2.356A3.641,3.641,0,0,0,19.142,186.8Z" transform="translate(-16.529 -173.251)" fill="#263238"/><path d="M83.284,175.485c.023,0,.218-1.765.218-1.881,0-1.31-.777-3.845-2.2-4.276a1.745,1.745,0,0,0-2.192,1.388,3.578,3.578,0,0,0,1.053,2.873A12.983,12.983,0,0,0,83.284,175.485Z" transform="translate(-54.759 -165.122)" fill="#263238"/><path d="M53.426,158.61c-1.469.054-2.9,2.286-3.258,3.549-.031.113-.315,1.874-.292,1.87H49.9c-.225.35-.47.727-.723,1.166-.466.777-.983,1.66-1.485,2.659a30.874,30.874,0,0,0-1.458,3.3,22.806,22.806,0,0,0-1.092,3.887.222.222,0,0,0,0,.051c-.054-.428-.249-1.617-.272-1.707-.354-1.267-1.78-3.5-3.25-3.557a1.741,1.741,0,0,0-1.753,1.909,3.658,3.658,0,0,0,1.773,2.492,12.107,12.107,0,0,0,3.479,1.018,31.1,31.1,0,0,0-.389,4.093q-.035,1.193,0,2.41c-.058-.369-.117-.7-.128-.742-.354-1.263-1.78-3.5-3.25-3.557a1.745,1.745,0,0,0-1.753,1.909,3.666,3.666,0,0,0,1.776,2.5,11.388,11.388,0,0,0,3.374,1v.929c.035,1.485.078,2.966.078,4.424,0,.513,0,1.018-.039,1.524-.051-.327-.1-.6-.109-.645-.354-1.263-1.78-3.5-3.25-3.557a1.741,1.741,0,0,0-1.753,1.909,3.665,3.665,0,0,0,1.773,2.5,10.535,10.535,0,0,0,3.281.983c-.031.517-.066,1.034-.121,1.555-.047.338-.066.669-.132,1.011s-.113.669-.171,1c-.128.634-.26,1.287-.389,1.9-.1.428-.2.832-.3,1.24v-1.59a6.748,6.748,0,0,0-1.368-3.11,2.1,2.1,0,0,0-.078-.389,1.741,1.741,0,0,0-2.332-1.166c-1.353.579-1.885,3.176-1.765,4.482,0,.078.179.906.3,1.427-.117-.3-.225-.583-.346-.886-.237-.6-.494-1.193-.777-1.831l-.428-.921c-.14-.311-.323-.618-.486-.933-.389-.719-.816-1.431-1.263-2.138a11.422,11.422,0,0,0,3.067-1.687,3.629,3.629,0,0,0,1.205-2.811,1.738,1.738,0,0,0-2.115-1.493c-1.423.365-2.332,2.853-2.422,4.163,0,.082.043,1.026.082,1.555-.272-.424-.544-.847-.832-1.263-.836-1.209-1.718-2.406-2.593-3.6-.272-.369-.533-.739-.8-1.1a12.17,12.17,0,0,0,3.18-1.73,3.644,3.644,0,0,0,1.205-2.814,1.738,1.738,0,0,0-2.115-1.493c-1.423.365-2.332,2.853-2.422,4.163,0,.1.066,1.462.1,1.8-.583-.809-1.166-1.621-1.687-2.449a30.181,30.181,0,0,1-1.944-3.46,12.383,12.383,0,0,0,3.2-1.738,3.644,3.644,0,0,0,1.205-2.814A1.738,1.738,0,0,0,29.3,172.25c-1.423.365-2.332,2.853-2.422,4.163,0,.086.047,1.123.086,1.617l-.082.019a22.584,22.584,0,0,1-1.3-3.778c-.187-.711-.323-1.4-.443-2.076a11.648,11.648,0,0,0,3.293-1.353,3.559,3.559,0,0,0,1.5-2.663,1.738,1.738,0,0,0-1.944-1.718c-1.458.21-2.647,2.577-2.869,3.887,0,.07-.054.8-.078,1.333-.051-.307-.1-.622-.148-.914-.155-1.1-.233-2.119-.292-3.02-.031-.513-.051-.976-.062-1.411a11.208,11.208,0,0,0,2.286-2.721,3.6,3.6,0,0,0,.109-3.055,1.738,1.738,0,0,0-2.523-.634c-1.2.855-1.166,3.5-.758,4.754.035.109.777,1.738.777,1.718l.023-.019c0,.42,0,.867.027,1.357.043.906.1,1.944.229,3.036a31.515,31.515,0,0,0,.6,3.557,22.761,22.761,0,0,0,1.263,3.841.21.21,0,0,1,0,.043c-.28-.327-1.1-1.213-1.166-1.275-.991-.859-3.417-1.944-4.665-1.166a1.734,1.734,0,0,0-.408,2.554,3.636,3.636,0,0,0,2.853,1.1,12.156,12.156,0,0,0,3.464-1.069,31.41,31.41,0,0,0,1.944,3.623c.42.68.863,1.353,1.318,2.021-.253-.276-.482-.517-.517-.548-.991-.859-3.417-1.944-4.665-1.166a1.741,1.741,0,0,0-.408,2.558,3.636,3.636,0,0,0,2.857,1.1,11.619,11.619,0,0,0,3.366-1.026l.525.777c.851,1.217,1.707,2.43,2.507,3.646.284.428.544.859.809,1.291-.222-.245-.412-.447-.447-.474-.991-.859-3.413-1.944-4.665-1.166a1.742,1.742,0,0,0-.389,2.558,3.636,3.636,0,0,0,2.857,1.1,10.755,10.755,0,0,0,3.277-.987c.257.451.517.9.746,1.345.148.311.315.6.447.917s.276.622.412.929c.237.6.49,1.217.707,1.808.155.408.3.8.439,1.2-.28-.431-.836-1.259-.89-1.326-.851-1-3.083-2.43-4.443-1.866a1.741,1.741,0,0,0-.777,2.465,3.638,3.638,0,0,0,2.655,1.524,12,12,0,0,0,3.565-.529c.233.657.455,1.3.653,1.9.688,2.087,1.166,3.852,1.512,5.1l.987-.144a.116.116,0,0,0-.023-.082c-.362-1.256-.906-3.04-1.652-5.151-.233-.669-.5-1.376-.777-2.1a17.877,17.877,0,0,0,1.854-1.224,12.622,12.622,0,0,0,3.172,1.45c-.167.676-.334,1.333-.505,1.944-.575,2.119-1.139,3.864-1.555,5.085l1.081-.155c.389-1.209.836-2.811,1.31-4.707.171-.688.342-1.423.513-2.181a12.522,12.522,0,0,0,3.6-.241,3.638,3.638,0,0,0,2.27-2.049,1.738,1.738,0,0,0-1.294-2.243c-1.446-.264-3.324,1.609-3.946,2.764-.035.07-.35.855-.54,1.353.07-.311.136-.61.2-.929.132-.634.249-1.267.389-1.944.051-.33.1-.665.148-1s.074-.7.113-1.046c.074-.816.109-1.644.124-2.48a11.415,11.415,0,0,0,3.5.288,3.614,3.614,0,0,0,2.554-1.683,1.741,1.741,0,0,0-.941-2.414c-1.388-.478-3.53,1.088-4.319,2.138-.047.066-.529.882-.777,1.337V188.2c-.027-1.469-.1-2.954-.175-4.439,0-.455-.035-.906-.054-1.361a12.124,12.124,0,0,0,3.607.315,3.645,3.645,0,0,0,2.558-1.683,1.741,1.741,0,0,0-1.022-2.449c-1.388-.478-3.53,1.088-4.319,2.138-.058.078-.746,1.256-.91,1.555-.039-1-.066-1.994-.054-2.974a30.609,30.609,0,0,1,.28-3.965,13.031,13.031,0,0,0,3.631.315,3.629,3.629,0,0,0,2.554-1.679,1.738,1.738,0,0,0-.949-2.387c-1.388-.478-3.53,1.088-4.315,2.138-.054.066-.579.964-.82,1.4l-.078-.027a22.036,22.036,0,0,1,1-3.887c.237-.7.5-1.345.777-1.975a12.222,12.222,0,0,0,3.5.688,3.5,3.5,0,0,0,2.721-1.392,1.738,1.738,0,0,0-.669-2.5c-1.329-.63-3.627.692-4.529,1.648-.047.051-.486.634-.8,1.065.124-.28.253-.575.389-.844.474-1,.972-1.893,1.419-2.678.257-.447.5-.844.731-1.213a11.616,11.616,0,0,0,3.4-1,3.6,3.6,0,0,0,1.776-2.492,1.741,1.741,0,0,0-1.749-1.913Z" transform="translate(-18.619 -158.61)" fill="#263238"/></g><g transform="translate(74.151 129.771)"><path d="M244.319,361.6l-.183-1.213c.062,0,6.01-.937,8.855-3.673.61-.587.595-1.011.529-1.279-.657-2.721-10.717-7-30.752-13.042-3.3-1-6.5-1.944-9.559-2.853-20-5.94-33.221-9.862-34.134-14.313-.229-1.112.272-2.192,1.493-3.2,6.931-5.757,34.531-7.845,35.7-7.934l.089,1.228c-.284.019-28.377,2.142-35.009,7.65-1.271,1.053-1.123,1.776-1.073,2.01.777,3.732,15.114,7.992,33.279,13.384,3.063.91,6.262,1.858,9.563,2.853,26.764,8.074,31,11.467,31.6,13.932a2.489,2.489,0,0,1-.875,2.453C250.7,360.609,244.564,361.561,244.319,361.6Z" transform="translate(-179.021 -314.09)" fill="#fff"/><path d="M244.319,362.1a.5.5,0,0,1-.494-.426l-.183-1.213a.5.5,0,0,1,.445-.572c.169-.025,5.864-.945,8.558-3.536.474-.456.415-.7.39-.8-.092-.38-.522-1.04-2.052-2.036a39.009,39.009,0,0,0-5.767-2.9c-5.047-2.142-12.648-4.749-22.592-7.749q-4.824-1.455-9.324-2.784l-.264-.078c-9.825-2.917-18.31-5.437-24.241-7.722a39.792,39.792,0,0,1-7.088-3.364c-1.849-1.2-2.87-2.373-3.121-3.6a3.876,3.876,0,0,1,1.664-3.689c2.95-2.45,9.743-4.534,20.191-6.192,7.535-1.2,14.471-1.755,15.785-1.855h.009a.5.5,0,0,1,.537.462l.089,1.228a.5.5,0,0,1-.465.535c-.066,0-7.138.532-15.082,1.762-10.2,1.58-17,3.577-19.642,5.774-.694.575-1,1.086-.9,1.519.108.517.669,1.381,2.736,2.581a47.59,47.59,0,0,0,7.068,3.126c5.954,2.206,14.3,4.682,23.128,7.3l.766.227q4.256,1.264,8.8,2.627c12.288,3.707,20.69,6.683,25.685,9.1,3.967,1.918,5.837,3.472,6.253,5.2a2.961,2.961,0,0,1-1.013,2.93c-3.146,3.01-9.116,4.027-9.787,4.133H244.4A.5.5,0,0,1,244.319,362.1Zm.385-1.3.034.223c1.585-.3,6.217-1.347,8.76-3.781a2,2,0,0,0,.734-1.974c-.207-.859-1.025-2.262-5.716-4.53-4.947-2.392-13.3-5.349-25.538-9.041q-4.538-1.368-8.8-2.625l-.766-.227c-8.848-2.626-17.206-5.107-23.191-7.325a48.5,48.5,0,0,1-7.223-3.2c-1.942-1.127-2.993-2.187-3.212-3.238a2.614,2.614,0,0,1,1.243-2.5c2.823-2.345,9.6-4.361,20.127-5.992,6.766-1.048,12.909-1.589,14.666-1.732l-.017-.231c-2.075.167-8.4.726-15.213,1.807-10.123,1.606-16.939,3.672-19.71,5.974a2.834,2.834,0,0,0-1.322,2.717c.192.935,1.1,1.93,2.685,2.958a38.871,38.871,0,0,0,6.9,3.271c5.895,2.271,14.362,4.785,24.166,7.7l.264.078q4.506,1.338,9.328,2.785c9.978,3.01,17.614,5.63,22.694,7.786,7.034,2.985,8.163,4.636,8.4,5.617a1.78,1.78,0,0,1-.668,1.757,14.3,14.3,0,0,1-5.669,2.98A27.333,27.333,0,0,1,244.7,360.8Z" transform="translate(-179.021 -314.09)" fill="#263238"/><path d="M185.2,321.39l1.773.389c8.879-4.614,32.89-6.441,33.135-6.461l-.089-1.228C218.907,314.176,193.309,316.111,185.2,321.39Z" transform="translate(-182.798 -314.09)" fill="#263238"/><path d="M186.973,322.279a.5.5,0,0,1-.107-.012l-1.773-.389a.5.5,0,0,1-.166-.907c3.42-2.227,10.179-4.128,20.09-5.651,6.991-1.075,13.2-1.593,14.939-1.727l.023,0a.5.5,0,0,1,.537.462l.089,1.228a.5.5,0,0,1-.459.535h-.015c-.989.077-24.328,1.935-32.929,6.4A.5.5,0,0,1,186.973,322.279Zm-.414-1.1.345.076c3.736-1.891,10.323-3.536,19.586-4.89,6.056-.885,11.407-1.363,13.082-1.5l-.017-.232C215.426,314.963,194.84,316.819,186.559,321.176Z" transform="translate(-182.798 -314.09)" fill="#263238"/><path d="M302.828,428.487a3.58,3.58,0,0,0-1.434-4.039c-1.788-1.166-5.053-2.6-10.562-3-9.769-.7-16.4,2.908-19.541,5.928s-2.441,6.632,2.1,8.84,7.794,2.791,11.631,2.212,10.107-3.607,12.327-5.12,4.886-2.908,5.469-4.766Z" transform="translate(-234.245 -379.663)" fill="#ebe3de"/><path d="M288.4,420.863h0c.811,0,1.641.03,2.469.089,5.643.4,8.987,1.9,10.8,3.077a4.08,4.08,0,0,1,1.642,4.6l-.013.049-.006.021c-.53,1.69-2.511,2.973-4.426,4.213-.412.267-.837.542-1.239.816-2.118,1.443-8.461,4.586-12.533,5.2a18.2,18.2,0,0,1-2.74.215,20.291,20.291,0,0,1-9.185-2.472,9.459,9.459,0,0,1-2.939-2.116,5.114,5.114,0,0,1-1.31-2.621,5.607,5.607,0,0,1,2.026-4.913,20.707,20.707,0,0,1,6.624-4.147A28.729,28.729,0,0,1,288.4,420.863Zm13.935,7.543.013-.047.006-.019a3.1,3.1,0,0,0-1.234-3.475c-1.709-1.114-4.891-2.527-10.32-2.914-.8-.058-1.61-.087-2.4-.087h0a27.733,27.733,0,0,0-10.454,1.935,20.213,20.213,0,0,0-6.306,3.941,4.663,4.663,0,0,0-1.732,4.037c.242,1.532,1.555,2.95,3.7,3.993a19.37,19.37,0,0,0,8.747,2.371,17.208,17.208,0,0,0,2.59-.2c3.765-.568,9.986-3.585,12.12-5.038.411-.28.842-.559,1.258-.829C300.082,430.928,301.9,429.748,302.332,428.406Z" transform="translate(-234.245 -379.663)" fill="#263238"/><path d="M299.792,446.127a12.931,12.931,0,0,1-10.7,1.975l-.121.1a16.284,16.284,0,0,0,8.031.715c3.837-.583,10.107-3.607,12.327-5.12s4.886-2.908,5.469-4.766v-.058a3.081,3.081,0,0,0,.1-.455C311.477,439.356,304.632,442.831,299.792,446.127Z" transform="translate(-246.23 -390.151)" fill="#fff"/><path d="M294.385,449.63a16.741,16.741,0,0,1-5.581-.955.5.5,0,0,1-.155-.855l.121-.1a.5.5,0,0,1,.479-.091,10.449,10.449,0,0,0,2.955.383,12.939,12.939,0,0,0,7.307-2.3c4.986-3.4,11.838-6.842,15.273-7.68a.5.5,0,0,1,.613.561,3.594,3.594,0,0,1-.1.454.5.5,0,0,1-.023.134c-.53,1.69-2.511,2.973-4.426,4.213-.412.267-.837.542-1.239.816-2.113,1.439-8.449,4.579-12.529,5.2A16.832,16.832,0,0,1,294.385,449.63Zm19.787-10.385a64.558,64.558,0,0,0-14.1,7.3,14.212,14.212,0,0,1-4.5,2.044c.452-.034.9-.088,1.347-.16h.005c3.772-.573,9.991-3.588,12.12-5.038.411-.28.842-.559,1.258-.829C311.911,441.516,313.568,440.443,314.172,439.245Z" transform="translate(-246.23 -390.151)" fill="#263238"/><path d="M289.036,439.252c0,.836-1.018,1.512-2.27,1.512s-2.266-.676-2.266-1.512,1.015-1.512,2.266-1.512S289.036,438.416,289.036,439.252Z" transform="translate(-243.497 -389.674)" fill="#fff"/><path d="M286.766,437.24c1.553,0,2.77.884,2.77,2.012s-1.217,2.012-2.77,2.012S284,440.38,284,439.252,285.215,437.24,286.766,437.24Zm0,3.024c1.043,0,1.77-.533,1.77-1.012s-.727-1.012-1.77-1.012-1.766.533-1.766,1.012S285.725,440.264,286.766,440.264Z" transform="translate(-243.497 -389.674)" fill="#263238"/></g><g transform="translate(8.914 127.563)"><path d="M166.722,337.071l-.249-1.2c3.681-.777,6.115-1.866,6.457-2.41a21.764,21.764,0,0,0-3.238-1.913c-4.692-2.476-12.54-6.608-10.045-11.969,1.458-3.129,9.407-5.87,24.3-8.369,10.8-1.815,21.341-2.787,21.446-2.8l.113,1.224c-.1,0-10.6.98-21.38,2.787-18.694,3.141-22.674,6.157-23.382,7.677-2,4.276,4.925,7.942,9.508,10.363,2.783,1.469,4.051,2.138,3.918,3.071C173.921,335.388,168.88,336.628,166.722,337.071Z" transform="translate(-101.649 -308.41)" fill="#fff"/><path d="M166.722,337.571a.5.5,0,0,1-.489-.4l-.249-1.2a.5.5,0,0,1,.386-.591,21.345,21.345,0,0,0,5.752-1.9c-.513-.329-1.4-.828-2.663-1.49l-.021-.011a39.6,39.6,0,0,1-7.808-4.972c-2.8-2.525-3.62-5.1-2.436-7.64.8-1.709,3.217-3.241,7.4-4.682a112.67,112.67,0,0,1,17.264-3.969c9.851-1.655,19.563-2.62,21.409-2.8l.067-.006a.5.5,0,0,1,.551.451l.113,1.224a.5.5,0,0,1-.475.545c-.187.015-10.473.961-21.32,2.781-8.182,1.375-14.351,2.862-18.337,4.419-3.5,1.367-4.431,2.452-4.675,2.976-.776,1.657-.07,3.385,2.156,5.286a40.757,40.757,0,0,0,7.133,4.425,29.655,29.655,0,0,1,3.112,1.774,1.982,1.982,0,0,1,1.068,1.809c-.133,1.008-1.22,1.891-3.321,2.695a31.034,31.034,0,0,1-4.517,1.262A.5.5,0,0,1,166.722,337.571Zm.342-1.318.046.224a28.625,28.625,0,0,0,3.873-1.113c2.317-.887,2.652-1.622,2.688-1.9.083-.589-1.323-1.332-3.653-2.562a41.5,41.5,0,0,1-7.318-4.55c-2.58-2.2-3.392-4.379-2.413-6.469,1.311-2.816,9.524-5.568,23.752-7.958,9.3-1.56,18.6-2.532,20.919-2.748l-.021-.224c-2.606.256-11.7,1.2-20.911,2.746-14.511,2.436-22.56,5.157-23.925,8.087-.991,2.13-.272,4.247,2.2,6.475a38.848,38.848,0,0,0,7.605,4.83l.021.011a18.617,18.617,0,0,1,3.358,2,.5.5,0,0,1,.07.62,4.988,4.988,0,0,1-2.216,1.317A27.976,27.976,0,0,1,167.063,336.253Z" transform="translate(-101.649 -308.41)" fill="#263238"/><path d="M211.778,308.41c-.1,0-10.643.983-21.446,2.8-9.979,1.675-16.832,3.46-20.711,5.4l2.037.439c3.366-1.376,9.112-2.982,18.873-4.622,10.756-1.808,21.256-2.776,21.38-2.787Z" transform="translate(-108.038 -308.41)" fill="#263238"/><path d="M211.778,307.91a.5.5,0,0,1,.5.446l.132,1.224a.5.5,0,0,1-.45.551h-.008c-.437.041-10.832,1.016-21.336,2.782-8.489,1.427-14.8,2.971-18.766,4.592a.5.5,0,0,1-.295.026l-2.037-.439a.5.5,0,0,1-.118-.936c3.943-1.968,10.764-3.747,20.852-5.441C200.883,308.929,211.538,307.91,211.778,307.91Zm-.419,1.275-.025-.232c-2.146.206-11.321,1.136-20.919,2.749-8.907,1.5-15.222,3.049-19.217,4.731l.415.089c4.039-1.627,10.375-3.172,18.835-4.594C199.822,310.353,209.111,309.4,211.358,309.185Z" transform="translate(-108.038 -308.41)" fill="#263238"/><path d="M114.463,366.461,92.231,379.118,11.24,351.029l24.626-8.879Z" transform="translate(-11.224 -329.034)" fill="#fff"/><path d="M92.231,379.618a.5.5,0,0,1-.164-.028L11.076,351.5a.5.5,0,0,1-.006-.943L35.7,341.68a.5.5,0,0,1,.317-.007l78.6,24.311a.5.5,0,0,1,.1.912L92.479,379.553A.5.5,0,0,1,92.231,379.618Zm-79.492-28.6,79.441,27.552L113.212,366.6l-77.334-23.92Z" transform="translate(-11.224 -329.034)" fill="#263238"/><path d="M184.9,385.931l2.643.812,2.764-1.442-2.612-.781Z" transform="translate(-117.378 -354.934)" fill="#263238"/><path d="M187.543,387.244a.5.5,0,0,1-.147-.022l-2.643-.812a.5.5,0,0,1-.078-.924l2.795-1.411a.5.5,0,0,1,.369-.033l2.612.781a.5.5,0,0,1,.088.922l-2.764,1.442A.5.5,0,0,1,187.543,387.244Zm-1.31-1.426,1.26.387,1.49-.778-1.242-.371Z" transform="translate(-117.378 -354.934)" fill="#263238"/><path d="M170.75,379.376l-2.29,1.407,5.263,1.617,2.783-1.407-5.625-1.683Z" transform="translate(-107.329 -351.749)" fill="#263238"/><path d="M170.882,378.81a.5.5,0,0,1,.143.021l5.625,1.683a.5.5,0,0,1,.082.925l-2.783,1.407a.5.5,0,0,1-.372.032l-5.263-1.617a.5.5,0,0,1-.115-.9l2.29-1.407.038-.021.132-.066A.5.5,0,0,1,170.882,378.81Zm4.28,2.3-4.226-1.265-1.272.782,4.014,1.233Z" transform="translate(-107.329 -351.749)" fill="#263238"/><path d="M194.56,388.84l2.814.863,2.8-1.462-2.838-.851Z" transform="translate(-123.283 -356.688)" fill="#263238"/><path d="M197.374,390.2a.5.5,0,0,1-.147-.022l-2.814-.863a.5.5,0,0,1-.085-.921l2.776-1.45a.5.5,0,0,1,.375-.036l2.838.851a.5.5,0,0,1,.088.922l-2.8,1.462A.5.5,0,0,1,197.374,390.2Zm-1.5-1.484,1.454.446,1.527-.8-1.466-.44Z" transform="translate(-123.283 -356.688)" fill="#263238"/><path d="M148.36,374.888l2.542.781,2.608-1.38-2.336-.7Z" transform="translate(-95.042 -348.253)" fill="#263238"/><path d="M150.9,376.17a.5.5,0,0,1-.147-.022l-2.542-.781a.5.5,0,0,1-.063-.932l2.814-1.3a.5.5,0,0,1,.353-.025l2.336.7a.5.5,0,0,1,.09.921l-2.608,1.38A.5.5,0,0,1,150.9,376.17Zm-1.145-1.375,1.094.336,1.347-.712-.986-.3Z" transform="translate(-95.042 -348.253)" fill="#263238"/><path d="M157.75,377.634l3.121.96,2.4-1.473-2.9-.871Z" transform="translate(-100.782 -349.879)" fill="#263238"/><path d="M160.871,379.094a.5.5,0,0,1-.147-.022l-3.121-.96a.5.5,0,0,1-.087-.92l2.616-1.384a.5.5,0,0,1,.377-.037l2.9.871a.5.5,0,0,1,.118.9l-2.4,1.473A.5.5,0,0,1,160.871,379.094Zm-1.82-1.583,1.751.539,1.255-.771-1.638-.491Z" transform="translate(-100.782 -349.879)" fill="#263238"/><path d="M181.6,397.949l-2.779-.879-2.76,1.442,2.744.9Z" transform="translate(-111.974 -362.605)" fill="#263238"/><path d="M178.82,396.57a.5.5,0,0,1,.151.023l2.779.879a.5.5,0,0,1,.081.92l-2.795,1.462a.5.5,0,0,1-.387.032l-2.744-.9a.5.5,0,0,1-.076-.918l2.76-1.442A.5.5,0,0,1,178.82,396.57Zm1.482,1.493-1.434-.453-1.524.8,1.417.464Z" transform="translate(-111.974 -362.605)" fill="#263238"/><path d="M204.67,391.916l3.553,1.092,2.842-1.485-3.584-1.073Z" transform="translate(-129.463 -358.559)" fill="#263238"/><path d="M208.223,393.508a.5.5,0,0,1-.147-.022l-3.553-1.092a.5.5,0,0,1-.084-.921l2.811-1.466a.5.5,0,0,1,.375-.036l3.584,1.073a.5.5,0,0,1,.088.922l-2.842,1.485A.5.5,0,0,1,208.223,393.508Zm-2.242-1.712,2.192.674,1.57-.82-2.212-.662Z" transform="translate(-129.463 -358.559)" fill="#263238"/><path d="M130.86,369.512l2.43.746,2.7-1.3-2.492-.746Z" transform="translate(-84.345 -344.964)" fill="#263238"/><path d="M133.29,370.759a.5.5,0,0,1-.147-.022l-2.43-.746a.5.5,0,0,1-.075-.926l2.636-1.3a.5.5,0,0,1,.365-.031l2.492.746a.5.5,0,0,1,.074.929l-2.7,1.3A.5.5,0,0,1,133.29,370.759Zm-1.081-1.355,1.04.32,1.361-.657-1.07-.32Z" transform="translate(-84.345 -344.964)" fill="#263238"/><path d="M203.41,404.911l-2.908-.921-2.873,1.5,3.032,1Z" transform="translate(-125.16 -366.835)" fill="#263238"/><path d="M200.5,403.49a.5.5,0,0,1,.151.023l2.908.921a.5.5,0,0,1,.1.911l-2.748,1.574a.5.5,0,0,1-.4.041l-3.032-1a.5.5,0,0,1-.076-.918l2.873-1.5A.5.5,0,0,1,200.5,403.49Zm1.67,1.554-1.623-.514-1.638.856,1.695.556Z" transform="translate(-125.16 -366.835)" fill="#263238"/><path d="M212.861,400.14l-2.733-.84-2.468,1.287,2.845.9Z" transform="translate(-131.291 -363.969)" fill="#263238"/><path d="M210.128,398.8a.5.5,0,0,1,.147.022l2.733.84a.5.5,0,0,1,.1.912l-2.356,1.349a.5.5,0,0,1-.4.043l-2.845-.9a.5.5,0,0,1-.08-.92l2.468-1.287A.5.5,0,0,1,210.128,398.8Zm1.483,1.479-1.434-.441-1.219.636,1.489.472Z" transform="translate(-131.291 -363.969)" fill="#263238"/><path d="M216.67,395.569l2.674.82,2.709-1.555-2.527-.754Z" transform="translate(-136.798 -360.778)" fill="#263238"/><path d="M219.344,396.889a.5.5,0,0,1-.147-.022l-2.674-.82a.5.5,0,0,1-.084-.921l2.857-1.489a.5.5,0,0,1,.374-.036l2.527.754a.5.5,0,0,1,.106.913l-2.709,1.555A.5.5,0,0,1,219.344,396.889Zm-1.362-1.441,1.3.4,1.511-.867-1.216-.363Z" transform="translate(-136.798 -360.778)" fill="#263238"/><path d="M192.235,401.342l-3.51-1.112L185.91,401.7l3.467,1.135Z" transform="translate(-117.995 -364.537)" fill="#263238"/><path d="M188.724,399.73a.5.5,0,0,1,.151.023l3.51,1.112a.5.5,0,0,1,.081.92l-2.857,1.493a.5.5,0,0,1-.387.032l-3.467-1.135a.5.5,0,0,1-.076-.918l2.814-1.469A.5.5,0,0,1,188.724,399.73Zm2.213,1.725-2.166-.686-1.578.824,2.139.7Z" transform="translate(-117.995 -364.537)" fill="#263238"/><path d="M232.23,397.816l-3.2-.956-2.717,1.559,3.153.968Z" transform="translate(-142.691 -362.477)" fill="#263238"/><path d="M229.027,396.36a.5.5,0,0,1,.143.021l3.2.956a.5.5,0,0,1,.1.914l-2.768,1.57a.5.5,0,0,1-.394.043l-3.153-.968a.5.5,0,0,1-.1-.912l2.717-1.559A.5.5,0,0,1,229.027,396.36Zm1.937,1.6-1.874-.559-1.531.879,1.845.566Z" transform="translate(-142.691 -362.477)" fill="#263238"/><path d="M223.222,403.268l-3.145-.968-2.367,1.361,3.094.976Z" transform="translate(-137.434 -365.802)" fill="#263238"/><path d="M220.077,401.8a.5.5,0,0,1,.147.022l3.145.968a.5.5,0,0,1,.1.913l-2.418,1.368a.5.5,0,0,1-.4.042l-3.094-.976a.5.5,0,0,1-.1-.91l2.367-1.361A.5.5,0,0,1,220.077,401.8Zm1.888,1.6-1.828-.563-1.191.684,1.8.568Z" transform="translate(-137.434 -365.802)" fill="#263238"/><path d="M142.741,371.046l-2.671,1.291,2.049.626,2.8-1.291-2.138-.641Z" transform="translate(-89.975 -346.688)" fill="#263238"/><path d="M142.783,370.53a.5.5,0,0,1,.144.021l2.138.641a.5.5,0,0,1,.065.933l-2.8,1.291a.5.5,0,0,1-.355.024l-2.049-.626a.5.5,0,0,1-.071-.928l2.671-1.291.047-.02.043-.016A.5.5,0,0,1,142.783,370.53Zm.728,1.24-.692-.208-1.382.668.646.2Z" transform="translate(-89.975 -346.688)" fill="#263238"/><path d="M46.674,363.572l2.29-1-1.407-.459-2.406.948Z" transform="translate(-31.953 -341.235)" fill="#263238"/><path d="M46.674,364.072a.5.5,0,0,1-.16-.026l-1.524-.513a.5.5,0,0,1-.024-.939l2.406-.948a.5.5,0,0,1,.338-.01l1.407.459a.5.5,0,0,1,.046.933l-2.29,1A.5.5,0,0,1,46.674,364.072Z" transform="translate(-31.953 -341.235)" fill="#263238"/><path d="M50.75,358.088l2.764.906,2.371-1.038-2.807-.886Z" transform="translate(-35.376 -338.155)" fill="#263238"/><path d="M53.514,359.494a.5.5,0,0,1-.156-.025l-2.764-.906a.5.5,0,0,1-.045-.933l2.328-1.018a.5.5,0,0,1,.351-.019l2.807.886a.5.5,0,0,1,.05.935l-2.371,1.038A.5.5,0,0,1,53.514,359.494Zm-1.363-1.473,1.337.438.977-.427-1.358-.429Z" transform="translate(-35.376 -338.155)" fill="#263238"/><path d="M59.67,354.386l2.807.89,2.06-.9L61.7,353.5Z" transform="translate(-40.828 -335.972)" fill="#263238"/><path d="M61.7,353a.5.5,0,0,1,.147.022l2.842.875a.5.5,0,0,1,.053.936l-2.06.9a.5.5,0,0,1-.352.019l-2.807-.89a.5.5,0,0,1-.049-.935l2.025-.886A.5.5,0,0,1,61.7,353Zm1.408,1.456-1.377-.424-.638.279,1.36.431Z" transform="translate(-40.828 -335.972)" fill="#263238"/><path d="M73.362,370.64l-1.648-.54-2.554.991,1.85.626Z" transform="translate(-46.629 -346.119)" fill="#263238"/><path d="M71.714,369.6a.5.5,0,0,1,.156.025l1.648.54a.5.5,0,0,1,.052.93l-2.352,1.077a.5.5,0,0,1-.368.019L69,371.565a.5.5,0,0,1-.021-.94l2.554-.991A.5.5,0,0,1,71.714,369.6Zm.279,1.117-.264-.087-1.1.428.358.121Z" transform="translate(-46.629 -346.119)" fill="#263238"/><path d="M56.615,365.022l-2.27-.742-2.305,1.011,2.255.758Z" transform="translate(-36.164 -342.562)" fill="#263238"/><path d="M54.345,363.78a.5.5,0,0,1,.155.025l2.27.742a.5.5,0,0,1,.047.932L54.5,366.506a.5.5,0,0,1-.362.017l-2.255-.758a.5.5,0,0,1-.041-.932l2.305-1.011A.5.5,0,0,1,54.345,363.78Zm.876,1.312-.85-.278-.945.415.844.284Z" transform="translate(-36.164 -342.562)" fill="#263238"/><path d="M69.94,357.6l1.205.381,1.971-.952-1.1-.338Z" transform="translate(-47.106 -337.922)" fill="#263238"/><path d="M71.145,358.481a.5.5,0,0,1-.151-.023l-1.205-.381a.5.5,0,0,1-.05-.935l2.076-.91a.5.5,0,0,1,.348-.02l1.1.338a.5.5,0,0,1,.071.928l-1.971.952A.5.5,0,0,1,71.145,358.481Z" transform="translate(-47.106 -337.922)" fill="#263238"/><path d="M65.375,367.915l-2.243-.735L60.8,368.21l2.037.688Z" transform="translate(-41.519 -344.334)" fill="#263238"/><path d="M63.132,366.68a.5.5,0,0,1,.156.025l2.243.735a.5.5,0,0,1,.025.941l-2.538.984a.5.5,0,0,1-.341.007l-2.037-.688a.5.5,0,0,1-.042-.931l2.332-1.03A.5.5,0,0,1,63.132,366.68Zm.757,1.274-.731-.239-.981.433.647.219Z" transform="translate(-41.519 -344.334)" fill="#263238"/><path d="M122.03,366.863l2.293.7,2.624-1.3L124.7,365.6Z" transform="translate(-78.947 -343.369)" fill="#263238"/><path d="M124.323,368.067a.5.5,0,0,1-.147-.022l-2.293-.7a.5.5,0,0,1-.067-.93l2.674-1.263a.5.5,0,0,1,.356-.027l2.243.669a.5.5,0,0,1,.079.927l-2.624,1.3A.5.5,0,0,1,124.323,368.067Zm-.913-1.3.869.267,1.306-.646-.841-.251Z" transform="translate(-78.947 -343.369)" fill="#263238"/><path d="M105.38,361.731l1.889.583,2.465-1.294-1.87-.56Z" transform="translate(-68.77 -340.227)" fill="#263238"/><path d="M107.269,362.814a.5.5,0,0,1-.147-.022l-1.889-.583a.5.5,0,0,1-.08-.923l2.484-1.271a.5.5,0,0,1,.371-.034l1.87.56a.5.5,0,0,1,.089.922l-2.465,1.294A.5.5,0,0,1,107.269,362.814Zm-.567-1.2.517.16,1.2-.628-.5-.151Z" transform="translate(-68.77 -340.227)" fill="#263238"/><path d="M77.766,360l2.052-.956-1.866-.571-1.983.96Z" transform="translate(-50.792 -339.01)" fill="#263238"/><path d="M77.766,360.5a.5.5,0,0,1-.151-.023l-1.8-.568a.5.5,0,0,1-.067-.927l1.983-.96a.5.5,0,0,1,.364-.028l1.866.571a.5.5,0,0,1,.065.931l-2.052.956A.5.5,0,0,1,77.766,360.5Zm-.447-1.165.412.13.7-.324-.433-.133Z" transform="translate(-50.792 -339.01)" fill="#263238"/><path d="M113.1,364.064l2.309.711,2.663-1.259-2.5-.746Z" transform="translate(-73.489 -341.639)" fill="#263238"/><path d="M115.409,365.276a.5.5,0,0,1-.147-.022l-2.309-.711a.5.5,0,0,1-.085-.921l2.472-1.294a.5.5,0,0,1,.375-.036l2.5.746a.5.5,0,0,1,.071.931l-2.663,1.259A.5.5,0,0,1,115.409,365.276Zm-1-1.332.963.3,1.308-.619-1.055-.315Z" transform="translate(-73.489 -341.639)" fill="#263238"/><path d="M99.242,357.992l-2.632,1.178,2.29.7,2.468-1.267-2.091-.626Z" transform="translate(-63.409 -338.711)" fill="#263238"/><path d="M99.277,357.48a.5.5,0,0,1,.143.021l2.091.626a.5.5,0,0,1,.085.924l-2.468,1.267a.5.5,0,0,1-.375.033l-2.29-.7a.5.5,0,0,1-.057-.934l2.632-1.178.046-.018.035-.012A.5.5,0,0,1,99.277,357.48Zm.757,1.249-.728-.218-1.277.572.823.253Z" transform="translate(-63.409 -338.711)" fill="#263238"/><path d="M87.76,356.425l2.251.692,2.651-1.186-2.375-.711Z" transform="translate(-57.999 -337.024)" fill="#263238"/><path d="M90.011,357.617a.5.5,0,0,1-.147-.022l-2.251-.692a.5.5,0,0,1-.068-.929l2.527-1.205a.5.5,0,0,1,.359-.028l2.375.711a.5.5,0,0,1,.061.935l-2.651,1.186A.5.5,0,0,1,90.011,357.617Zm-.878-1.293.845.26,1.251-.56-.9-.27Z" transform="translate(-57.999 -337.024)" fill="#263238"/><path d="M78.24,353.591l2.542.781,2.515-1.2-2.437-.731Z" transform="translate(-52.18 -335.324)" fill="#263238"/><path d="M80.782,354.872a.5.5,0,0,1-.147-.022l-2.542-.781a.5.5,0,0,1-.054-.936l2.62-1.151a.5.5,0,0,1,.345-.021l2.437.731a.5.5,0,0,1,.072.93L81,354.823A.5.5,0,0,1,80.782,354.872Zm-1.11-1.364,1.071.329,1.17-.559-1.021-.306Z" transform="translate(-52.18 -335.324)" fill="#263238"/><path d="M163.54,386.724l3.755,1.19,2.363-1.2L165.69,385.5Z" transform="translate(-104.321 -355.533)" fill="#263238"/><path d="M167.3,388.414a.5.5,0,0,1-.151-.023l-3.755-1.19a.5.5,0,0,1-.1-.911l2.15-1.224a.5.5,0,0,1,.394-.044l3.969,1.217a.5.5,0,0,1,.079.924l-2.363,1.2A.5.5,0,0,1,167.3,388.414Zm-2.514-1.821,2.47.783,1.075-.544-2.577-.79Z" transform="translate(-104.321 -355.533)" fill="#263238"/><path d="M176.07,390.725l2.678.847,2.363-1.232-2.663-.82Z" transform="translate(-111.98 -357.99)" fill="#263238"/><path d="M178.748,392.072a.5.5,0,0,1-.151-.023l-2.678-.847a.5.5,0,0,1-.075-.923l2.379-1.205a.5.5,0,0,1,.373-.032l2.663.82a.5.5,0,0,1,.084.921l-2.363,1.232A.5.5,0,0,1,178.748,392.072Zm-1.36-1.455,1.313.415,1.1-.573-1.306-.4Z" transform="translate(-111.98 -357.99)" fill="#263238"/><path d="M201.757,396.7l-3.549-1.092-2.418,1.263,3.51,1.112Z" transform="translate(-124.035 -361.713)" fill="#263238"/><path d="M198.208,395.11a.5.5,0,0,1,.147.022l3.549,1.092a.5.5,0,0,1,.084.921l-2.457,1.283a.5.5,0,0,1-.382.033l-3.51-1.112a.5.5,0,0,1-.081-.92l2.418-1.263A.5.5,0,0,1,198.208,395.11Zm2.239,1.712-2.19-.674-1.17.611,2.166.686Z" transform="translate(-124.035 -361.713)" fill="#263238"/><path d="M185.8,393.746l2.779.882,2.406-1.256-2.811-.863Z" transform="translate(-117.928 -359.818)" fill="#263238"/><path d="M188.579,395.129a.5.5,0,0,1-.151-.023l-2.779-.882a.5.5,0,0,1-.08-.92l2.375-1.236a.5.5,0,0,1,.378-.034l2.811.863a.5.5,0,0,1,.085.921l-2.406,1.256A.5.5,0,0,1,188.579,395.129Zm-1.481-1.495,1.434.455,1.142-.6-1.45-.445Z" transform="translate(-117.928 -359.818)" fill="#263238"/><path d="M81.5,373.21l-2.293-.75-2.363,1.085,2.293.774Z" transform="translate(-51.324 -347.562)" fill="#263238"/><path d="M79.2,371.96a.5.5,0,0,1,.155.025l2.293.75a.5.5,0,0,1,.057.928l-2.363,1.108a.5.5,0,0,1-.372.021l-2.294-.774a.5.5,0,0,1-.049-.928l2.363-1.085A.5.5,0,0,1,79.2,371.96Zm.939,1.333-.908-.3-1.04.477.909.307Z" transform="translate(-51.324 -347.562)" fill="#263238"/><path d="M134.73,377.727l2.744.871,1.986-1.2-2.671-.82Z" transform="translate(-86.71 -350.08)" fill="#263238"/><path d="M137.474,379.1a.5.5,0,0,1-.151-.023l-2.744-.871a.5.5,0,0,1-.092-.913l2.06-1.147a.5.5,0,0,1,.39-.041l2.671.82a.5.5,0,0,1,.111.906l-1.986,1.2A.5.5,0,0,1,137.474,379.1Zm-1.489-1.5,1.425.452.834-.5-1.4-.429Z" transform="translate(-86.71 -350.08)" fill="#263238"/><path d="M144.47,380.725l2.671.844,2.049-1.213-2.721-.836Z" transform="translate(-92.664 -351.878)" fill="#263238"/><path d="M147.141,382.069a.5.5,0,0,1-.151-.023l-2.671-.844a.5.5,0,0,1-.108-.9l2-1.205a.5.5,0,0,1,.405-.05l2.721.836a.5.5,0,0,1,.108.908L147.4,382A.5.5,0,0,1,147.141,382.069Zm-1.465-1.487,1.4.443.883-.523-1.426-.438Z" transform="translate(-92.664 -351.878)" fill="#263238"/><path d="M154.04,383.721l2.632.836,2.138-1.221L156.1,382.5Z" transform="translate(-98.514 -353.699)" fill="#263238"/><path d="M156.672,385.056a.5.5,0,0,1-.151-.023l-2.632-.836a.5.5,0,0,1-.1-.906l2.056-1.221a.5.5,0,0,1,.4-.048l2.713.836a.5.5,0,0,1,.1.912l-2.138,1.221A.5.5,0,0,1,156.672,385.056Zm-1.418-1.475,1.36.432.945-.54-1.4-.431Z" transform="translate(-98.514 -353.699)" fill="#263238"/><path d="M78.711,365.208l-1.734-.548-2.387,1.108,1.839.6Z" transform="translate(-49.949 -342.794)" fill="#263238"/><path d="M76.977,364.16a.5.5,0,0,1,.151.023l1.734.548a.5.5,0,0,1,.076.922l-2.282,1.162a.5.5,0,0,1-.383.03l-1.839-.6a.5.5,0,0,1-.055-.929l2.387-1.108A.5.5,0,0,1,76.977,364.16Zm.419,1.157-.384-.121-1.061.492.436.143Z" transform="translate(-49.949 -342.794)" fill="#263238"/><path d="M68.389,350.77,71,349.627l-3.992-1.2.008.023-2.923,1Z" transform="translate(-43.53 -332.873)" fill="#263238"/><path d="M68.389,351.27a.5.5,0,0,1-.147-.022l-4.3-1.322a.5.5,0,0,1-.014-.951l2.777-.945a.5.5,0,0,1,.443-.079l3.992,1.2a.5.5,0,0,1,.057.937l-2.608,1.143A.5.5,0,0,1,68.389,351.27Zm-2.677-1.846,2.646.813,1.192-.522-2.5-.748Z" transform="translate(-43.53 -332.873)" fill="#263238"/><path d="M59.482,348.026l2.939-1-.84-.253L58.74,347.8Z" transform="translate(-40.26 -331.858)" fill="#263238"/><path d="M59.482,348.526a.5.5,0,0,1-.148-.022l-.742-.229a.5.5,0,0,1-.022-.948l2.842-1.026a.5.5,0,0,1,.314-.009l.84.253a.5.5,0,0,1,.017.952l-2.939,1A.5.5,0,0,1,59.482,348.526Z" transform="translate(-40.26 -331.858)" fill="#263238"/><path d="M259.37,401.519l4.016,1.205,1.042-.595-3.957-1.209Z" transform="translate(-162.899 -364.959)" fill="#263238"/><path d="M260.47,400.42a.5.5,0,0,1,.146.022l3.957,1.209a.5.5,0,0,1,.1.912l-1.042.595a.5.5,0,0,1-.392.045L259.226,402a.5.5,0,0,1-.1-.918l1.1-.6A.5.5,0,0,1,260.47,400.42Z" transform="translate(-162.899 -364.959)" fill="#263238"/><path d="M71.372,362.83l-1.773-.56-2.29,1.108,1.691.556Z" transform="translate(-45.498 -341.333)" fill="#263238"/><path d="M69.6,361.77a.5.5,0,0,1,.151.023l1.773.56a.5.5,0,0,1,.06.93l-2.371,1.1a.5.5,0,0,1-.367.022l-1.691-.556a.5.5,0,0,1-.062-.925l2.29-1.108A.5.5,0,0,1,69.6,361.77Zm.4,1.149-.357-.113-1,.483.328.108Z" transform="translate(-45.498 -341.333)" fill="#263238"/><path d="M126,375l2.321.735,2.049-1.143-2.328-.715Z" transform="translate(-81.374 -348.43)" fill="#263238"/><path d="M128.321,376.238a.5.5,0,0,1-.151-.023l-2.321-.735a.5.5,0,0,1-.09-.915l2.041-1.123a.5.5,0,0,1,.388-.04l2.328.715a.5.5,0,0,1,.1.915l-2.049,1.143A.5.5,0,0,1,128.321,376.238Zm-1.058-1.359,1,.317.837-.467-1.006-.309Z" transform="translate(-81.374 -348.43)" fill="#263238"/><path d="M60.86,361.36l1.384.455,2.278-1.1-1.271-.4Z" transform="translate(-41.556 -340.135)" fill="#263238"/><path d="M62.244,362.314a.5.5,0,0,1-.156-.025l-1.384-.455a.5.5,0,0,1-.045-.933l2.391-1.05a.5.5,0,0,1,.353-.019l1.271.4a.5.5,0,0,1,.066.927l-2.278,1.1A.5.5,0,0,1,62.244,362.314Z" transform="translate(-41.556 -340.135)" fill="#263238"/><path d="M116.67,372.072l2.55.8,2.029-1.116-2.6-.8Z" transform="translate(-75.671 -346.645)" fill="#263238"/><path d="M119.22,373.376a.5.5,0,0,1-.15-.023l-2.55-.8a.5.5,0,0,1-.095-.913l1.975-1.112a.5.5,0,0,1,.392-.042l2.6.8a.5.5,0,0,1,.094.916l-2.029,1.116A.5.5,0,0,1,119.22,373.376Zm-1.3-1.435,1.247.393.807-.444-1.27-.391Z" transform="translate(-75.671 -346.645)" fill="#263238"/><path d="M104.046,373.223l-2.286-.723-2.391,1.221,2.4.785Z" transform="translate(-65.096 -347.586)" fill="#263238"/><path d="M101.761,372a.5.5,0,0,1,.151.023l2.286.723a.5.5,0,0,1,.095.912l-2.278,1.283a.5.5,0,0,1-.4.04l-2.4-.785a.5.5,0,0,1-.072-.921l2.391-1.221A.5.5,0,0,1,101.761,372Zm1.037,1.352-.992-.314-1.138.581,1.047.343Z" transform="translate(-65.096 -347.586)" fill="#263238"/><path d="M113.088,376.035l-2.535-.8-2.294,1.291,2.472.809Z" transform="translate(-70.53 -349.255)" fill="#263238"/><path d="M110.554,374.73a.5.5,0,0,1,.151.023l2.535.8a.5.5,0,0,1,.089.915l-2.356,1.294a.5.5,0,0,1-.4.037L108.1,377a.5.5,0,0,1-.09-.911l2.294-1.291A.5.5,0,0,1,110.554,374.73Zm1.271,1.428-1.216-.386-1.113.626,1.186.388Z" transform="translate(-70.53 -349.255)" fill="#263238"/><path d="M131.223,381.826l-2.795-.886-2.4,1.337,2.88.941Z" transform="translate(-81.392 -352.746)" fill="#263238"/><path d="M128.428,380.44a.5.5,0,0,1,.151.023l2.795.886a.5.5,0,0,1,.107.905l-2.313,1.392a.5.5,0,0,1-.413.047l-2.88-.941a.5.5,0,0,1-.088-.912l2.4-1.337A.5.5,0,0,1,128.428,380.44Zm1.589,1.528-1.534-.486-1.211.675,1.576.515Z" transform="translate(-81.392 -352.746)" fill="#263238"/><path d="M171.738,394.831l-2.694-.851-2.764,1.4,2.713.89Z" transform="translate(-105.996 -360.717)" fill="#263238"/><path d="M169.044,393.48a.5.5,0,0,1,.151.023l2.694.851a.5.5,0,0,1,.081.92l-2.744,1.434a.5.5,0,0,1-.387.032l-2.713-.89a.5.5,0,0,1-.069-.921l2.764-1.4A.5.5,0,0,1,169.044,393.48Zm1.4,1.466-1.352-.427-1.5.759,1.365.448Z" transform="translate(-105.996 -360.717)" fill="#263238"/><path d="M141.067,384.91l-2.663-.84-2.325,1.4,2.6.855Z" transform="translate(-87.536 -354.659)" fill="#263238"/><path d="M138.4,383.57a.5.5,0,0,1,.15.023l2.663.84a.5.5,0,0,1,.1.907l-2.383,1.415a.5.5,0,0,1-.411.045l-2.6-.855a.5.5,0,0,1-.1-.9l2.325-1.4A.5.5,0,0,1,138.4,383.57Zm1.446,1.48-1.382-.436-1.2.72,1.352.444Z" transform="translate(-87.536 -354.659)" fill="#263238"/><path d="M155.185,389.415l-7.347-2.325-2.4,1.419,7,2.293Z" transform="translate(-93.257 -356.505)" fill="#263238"/><path d="M152.441,391.3a.5.5,0,0,1-.156-.025l-7-2.293a.5.5,0,0,1-.1-.905l2.4-1.419a.5.5,0,0,1,.405-.046l7.347,2.325a.5.5,0,0,1,.075.923l-2.744,1.388A.5.5,0,0,1,152.441,391.3Zm-5.8-2.925,5.756,1.885,1.466-.741-5.965-1.887Z" transform="translate(-93.257 -356.505)" fill="#263238"/><path d="M122.056,378.915l-2.328-.735-2.367,1.3,2.313.758Z" transform="translate(-76.093 -351.058)" fill="#263238"/><path d="M119.727,377.68a.5.5,0,0,1,.15.023l2.328.735a.5.5,0,0,1,.093.914l-2.383,1.326a.5.5,0,0,1-.4.038l-2.313-.758a.5.5,0,0,1-.085-.913l2.367-1.3A.5.5,0,0,1,119.727,377.68Zm1.071,1.362-1.017-.321-1.171.644,1.011.331Z" transform="translate(-76.093 -351.058)" fill="#263238"/><path d="M100.13,366.972l2.021.641,2.052-1.046-2.021-.618Z" transform="translate(-65.56 -343.583)" fill="#263238"/><path d="M102.151,368.114a.5.5,0,0,1-.151-.023l-2.021-.641a.5.5,0,0,1-.072-.924l2.052-1.022a.5.5,0,0,1,.369-.031l2.021.618a.5.5,0,0,1,.081.924l-2.052,1.046A.5.5,0,0,1,102.151,368.114Zm-.693-1.244.649.206.767-.391-.647-.2Z" transform="translate(-65.56 -343.583)" fill="#263238"/><path d="M90.72,364.015l2.538.8L95.3,363.8l-2.589-.8Z" transform="translate(-59.808 -341.779)" fill="#263238"/><path d="M93.258,365.315a.5.5,0,0,1-.15-.023l-2.538-.8a.5.5,0,0,1-.077-.922l1.986-1.015a.5.5,0,0,1,.375-.033l2.589.8a.5.5,0,0,1,.077.925l-2.037,1.018A.5.5,0,0,1,93.258,365.315ZM92.034,363.9l1.182.373.74-.37-1.2-.37Z" transform="translate(-59.808 -341.779)" fill="#263238"/><path d="M95.63,370.579l-2.041-.649-2.43,1.17,2.1.688Z" transform="translate(-60.077 -346.015)" fill="#263238"/><path d="M93.59,369.43a.5.5,0,0,1,.152.024l2.041.649a.5.5,0,0,1,.075.922l-2.375,1.209a.5.5,0,0,1-.383.029l-2.1-.688a.5.5,0,0,1-.061-.926l2.43-1.17A.5.5,0,0,1,93.59,369.43Zm.728,1.256-.69-.22-1.133.545.719.236Z" transform="translate(-60.077 -346.015)" fill="#263238"/><path d="M108.2,369.483l2.224.7,1.959-1.1-2.122-.653Z" transform="translate(-70.493 -345.099)" fill="#263238"/><path d="M110.424,370.687a.5.5,0,0,1-.151-.023l-2.224-.7a.5.5,0,0,1-.077-.922l2.06-1.053a.5.5,0,0,1,.375-.033l2.122.653a.5.5,0,0,1,.1.913l-1.959,1.1A.5.5,0,0,1,110.424,370.687Zm-.912-1.313.855.271.756-.426-.816-.251Z" transform="translate(-70.493 -345.099)" fill="#263238"/><path d="M83.56,361.83l1.672.529,1.971-1-1.574-.486Z" transform="translate(-55.432 -340.477)" fill="#263238"/><path d="M85.232,362.859a.5.5,0,0,1-.151-.023l-1.672-.529a.5.5,0,0,1-.06-.93l2.068-.96a.5.5,0,0,1,.358-.024l1.574.486a.5.5,0,0,1,.079.923l-1.971,1A.5.5,0,0,1,85.232,362.859Zm-.293-1.117.249.079.689-.351-.212-.065Z" transform="translate(-55.432 -340.477)" fill="#263238"/><path d="M86.937,367.763l-2.5-.793-2.3,1.174,2.387.781Z" transform="translate(-54.564 -344.206)" fill="#263238"/><path d="M84.437,366.47a.5.5,0,0,1,.151.023l2.5.793a.5.5,0,0,1,.066.927l-2.41,1.162a.5.5,0,0,1-.373.025l-2.387-.781a.5.5,0,0,1-.072-.92l2.3-1.174A.5.5,0,0,1,84.437,366.47Zm1.149,1.389-1.1-.35-1.045.534,1.054.345Z" transform="translate(-54.564 -344.206)" fill="#263238"/><path d="M43.025,355.727l2.313-1.015-2.791-.882-2.527.914Z" transform="translate(-28.817 -336.174)" fill="#263238"/><path d="M43.025,356.227a.5.5,0,0,1-.156-.025l-3-.983a.5.5,0,0,1-.014-.945l2.527-.914a.5.5,0,0,1,.321-.007l2.791.882a.5.5,0,0,1,.05.935l-2.313,1.015A.5.5,0,0,1,43.025,356.227Zm-1.469-1.507,1.443.472.921-.4-1.362-.431Z" transform="translate(-28.817 -336.174)" fill="#263238"/><path d="M70.332,377.477,57.682,373.2l-.012,0,0-.012-6.239-2.107-4.148,1.835L66.4,379.537Z" transform="translate(-33.255 -346.725)" fill="#263238"/><path d="M66.4,380.037a.5.5,0,0,1-.163-.027L47.117,373.4a.5.5,0,0,1-.039-.93l4.148-1.835a.5.5,0,0,1,.362-.016l6.239,2.107.046.018L70.492,377a.5.5,0,0,1,.072.917l-3.934,2.06A.5.5,0,0,1,66.4,380.037Zm-17.753-7.169,17.712,6.126,2.707-1.418L57.595,373.7a.5.5,0,0,1-.174-.061l-5.968-2.015Z" transform="translate(-33.255 -346.725)" fill="#263238"/><path d="M24.251,365.173l3.961-1.835-1.827-.618-4.3,1.7Z" transform="translate(-17.857 -341.608)" fill="#263238"/><path d="M24.251,365.673a.5.5,0,0,1-.164-.028l-2.161-.75a.5.5,0,0,1-.02-.937l4.3-1.7a.5.5,0,0,1,.344-.009l1.827.618a.5.5,0,0,1,.05.927l-3.961,1.835A.5.5,0,0,1,24.251,365.673Zm-.726-1.281.7.243,2.642-1.224-.467-.158Z" transform="translate(-17.857 -341.608)" fill="#263238"/><path d="M36.615,366.005l-2.122-.715-3.973,1.839,1.975.68Z" transform="translate(-23.01 -343.179)" fill="#263238"/><path d="M34.493,364.79a.5.5,0,0,1,.16.026l2.122.715a.5.5,0,0,1,.041.932l-4.121,1.8a.5.5,0,0,1-.363.015l-1.975-.68a.5.5,0,0,1-.047-.926l3.973-1.839A.5.5,0,0,1,34.493,364.79Zm.737,1.276-.708-.238-2.664,1.233.616.212Z" transform="translate(-23.01 -343.179)" fill="#263238"/><path d="M44.935,368.9l-2.262-.766-4.132,1.811,2.262.781Z" transform="translate(-27.912 -344.915)" fill="#263238"/><path d="M42.672,367.63a.5.5,0,0,1,.16.026l2.262.766a.5.5,0,0,1,.042.931L41,371.18a.5.5,0,0,1-.365.015l-2.262-.781a.5.5,0,0,1-.038-.931l4.132-1.811A.5.5,0,0,1,42.672,367.63Zm.886,1.328-.863-.292-2.784,1.22.868.3Z" transform="translate(-27.912 -344.915)" fill="#263238"/><path d="M124.049,395.593,121.7,394.8l-4.1,2.072,2.566.886Z" transform="translate(-76.239 -361.218)" fill="#263238"/><path d="M121.7,394.3a.5.5,0,0,1,.16.026l2.352.793a.5.5,0,0,1,.084.91l-3.883,2.165a.5.5,0,0,1-.407.036l-2.566-.886a.5.5,0,0,1-.062-.919l4.1-2.072A.5.5,0,0,1,121.7,394.3Zm1.122,1.406-1.084-.365-2.856,1.444,1.238.428Z" transform="translate(-76.239 -361.218)" fill="#263238"/><path d="M105.456,389.231l-2.321-.781-3.946,2.064,2.185.758Z" transform="translate(-64.986 -357.336)" fill="#263238"/><path d="M103.136,387.95a.5.5,0,0,1,.16.026l2.321.781a.5.5,0,0,1,.064.921l-4.082,2.041a.5.5,0,0,1-.388.025l-2.185-.758a.5.5,0,0,1-.068-.915l3.946-2.064A.5.5,0,0,1,103.136,387.95Zm1.022,1.372-.979-.33-2.732,1.429.893.31Z" transform="translate(-64.986 -357.336)" fill="#263238"/><path d="M114.5,392.358l-2.807-.949-4.089,2.045,2.807.972Z" transform="translate(-70.127 -359.146)" fill="#263238"/><path d="M111.689,390.91a.5.5,0,0,1,.16.026l2.807.949a.5.5,0,0,1,.066.92l-4.089,2.068a.5.5,0,0,1-.389.026l-2.807-.972a.5.5,0,0,1-.06-.92l4.089-2.045A.5.5,0,0,1,111.689,390.91Zm1.517,1.54-1.48-.5-2.841,1.42,1.484.514Z" transform="translate(-70.127 -359.146)" fill="#263238"/><path d="M91.1,350.812l1.617-.847L89.8,349.07l-1.831.8Z" transform="translate(-58.127 -333.264)" fill="#263238"/><path d="M91.1,351.312a.5.5,0,0,1-.144-.021l-3.129-.941a.5.5,0,0,1-.056-.937l1.831-.8a.5.5,0,0,1,.347-.02l2.915.894a.5.5,0,0,1,.085.921l-1.617.847A.5.5,0,0,1,91.1,351.312Zm-1.682-1.528,1.631.49.359-.188-1.576-.483Z" transform="translate(-58.127 -333.264)" fill="#263238"/><path d="M98.91,353.084l1.73.521,1.854-.758-1.975-.606Z" transform="translate(-64.815 -335.202)" fill="#263238"/><path d="M100.64,354.1a.5.5,0,0,1-.144-.021l-1.73-.521a.5.5,0,0,1-.088-.922l1.609-.844a.5.5,0,0,1,.379-.035l1.975.606a.5.5,0,0,1,.042.941l-1.854.758A.5.5,0,0,1,100.64,354.1Zm-.413-1.147.388.117.394-.161-.44-.135Z" transform="translate(-64.815 -335.202)" fill="#263238"/><path d="M136.444,399.67l-5.679-1.92-3.9,2.173,5.392,1.862Z" transform="translate(-81.906 -363.021)" fill="#263238"/><path d="M130.765,397.25a.5.5,0,0,1,.16.026l5.679,1.92a.5.5,0,0,1,.065.92l-4.183,2.115a.5.5,0,0,1-.389.026l-5.392-1.862a.5.5,0,0,1-.08-.909l3.9-2.173A.5.5,0,0,1,130.765,397.25Zm4.39,2.512-4.34-1.467-2.725,1.52,4.135,1.428Z" transform="translate(-81.906 -363.021)" fill="#263238"/><path d="M106.58,355.524l1.963.587,1.753-.766-1.878-.575Z" transform="translate(-69.503 -336.749)" fill="#263238"/><path d="M108.543,356.611a.5.5,0,0,1-.143-.021L106.437,356a.5.5,0,0,1-.046-.942l1.839-.754a.5.5,0,0,1,.336-.015l1.878.575a.5.5,0,0,1,.054.936l-1.753.766A.5.5,0,0,1,108.543,356.611Zm-.465-1.161.433.129.348-.152-.415-.127Z" transform="translate(-69.503 -336.749)" fill="#263238"/><path d="M31.515,358.557l.019-.008.008.019,3.464,1.17,2.391-.945-4.435-1.454-2.441.882Z" transform="translate(-23.01 -338.32)" fill="#263238"/><path d="M35.006,360.238a.5.5,0,0,1-.16-.026l-3.464-1.17-.045-.018-.977-.328a.5.5,0,0,1-.011-.944l2.441-.882a.5.5,0,0,1,.326,0l4.435,1.454a.5.5,0,0,1,.028.94l-2.391.945A.5.5,0,0,1,35.006,360.238Zm-2.972-2.032,2.958,1,.933-.368-2.956-.969Z" transform="translate(-23.01 -338.32)" fill="#263238"/><path d="M79.02,347.2l2.266.68,1.843-.8L80.94,346.4Z" transform="translate(-52.656 -331.632)" fill="#263238"/><path d="M81.286,348.377a.5.5,0,0,1-.144-.021l-2.266-.68a.5.5,0,0,1-.048-.941l1.92-.8a.5.5,0,0,1,.339-.016l2.189.673a.5.5,0,0,1,.053.936l-1.843.8A.5.5,0,0,1,81.286,348.377Zm-.779-1.256.747.224.438-.191-.727-.223Z" transform="translate(-52.656 -331.632)" fill="#263238"/><path d="M54.449,351.358l-2.465-.758-2.2.8,2.659.844Z" transform="translate(-34.783 -334.2)" fill="#263238"/><path d="M51.984,350.1a.5.5,0,0,1,.147.022l2.465.758a.5.5,0,0,1,.054.936l-2.01.882a.5.5,0,0,1-.352.019l-2.659-.844a.5.5,0,0,1-.019-.947l2.2-.8A.5.5,0,0,1,51.984,350.1Zm1.033,1.341L52,351.127l-.661.239,1.074.341Z" transform="translate(-34.783 -334.2)" fill="#263238"/><path d="M215.359,417.242l-3.386-1.112-2.643,1.5,3.293,1.112Z" transform="translate(-132.311 -374.256)" fill="#263238"/><path d="M211.973,415.63a.5.5,0,0,1,.156.025l3.386,1.112a.5.5,0,0,1,.084.913l-2.737,1.5a.5.5,0,0,1-.4.035L209.17,418.1a.5.5,0,0,1-.087-.909l2.643-1.5A.5.5,0,0,1,211.973,415.63Zm2.135,1.727-2.081-.683-1.48.84,2.027.684Z" transform="translate(-132.311 -374.256)" fill="#263238"/><path d="M252.25,403.89l-2.88,1.578,4.066,1.248,2.849-1.617Z" transform="translate(-156.787 -366.774)" fill="#263238"/><path d="M252.25,403.39a.5.5,0,0,1,.143.021l4.035,1.209a.5.5,0,0,1,.1.914l-2.849,1.617a.5.5,0,0,1-.393.043l-4.066-1.248a.5.5,0,0,1-.094-.917l2.88-1.578A.5.5,0,0,1,252.25,403.39Zm2.77,1.852-2.713-.813-1.658.909,2.728.837Z" transform="translate(-156.787 -366.774)" fill="#263238"/><path d="M71.883,345.122l1.932-.8-2.325-.711-2.111.762Z" transform="translate(-46.764 -329.927)" fill="#263238"/><path d="M71.883,345.622a.5.5,0,0,1-.144-.021l-2.5-.75a.5.5,0,0,1-.026-.949l2.111-.762a.5.5,0,0,1,.316-.008l2.325.711a.5.5,0,0,1,.045.94l-1.932.8A.5.5,0,0,1,71.883,345.622Zm-.909-1.294.882.264.482-.2-.835-.255Z" transform="translate(-46.764 -329.927)" fill="#263238"/><path d="M242.8,409.36l-2.535,1.392,4.109,1.3,2.515-1.431Z" transform="translate(-151.224 -370.118)" fill="#263238"/><path d="M242.8,408.86a.5.5,0,0,1,.147.022l4.089,1.259a.5.5,0,0,1,.1.912l-2.515,1.431a.5.5,0,0,1-.4.042l-4.109-1.3a.5.5,0,0,1-.09-.915l2.535-1.392A.5.5,0,0,1,242.8,408.86Zm2.837,1.9-2.782-.857-1.324.727,2.786.88Z" transform="translate(-151.224 -370.118)" fill="#263238"/><path d="M211.365,425.14l-4.225,2.317,4.26,1.469,4.167-2.367Z" transform="translate(-130.973 -379.764)" fill="#263238"/><path d="M211.365,424.64a.5.5,0,0,1,.16.026l4.2,1.419a.5.5,0,0,1,.087.908l-4.167,2.367a.5.5,0,0,1-.41.038l-4.26-1.469a.5.5,0,0,1-.077-.911l4.225-2.317A.5.5,0,0,1,211.365,424.64Zm2.985,2.035-2.937-.992-3.043,1.668,2.979,1.028Z" transform="translate(-130.973 -379.764)" fill="#263238"/><path d="M233.074,414.34l-2.954,1.617,4.144,1.361,2.939-1.672Z" transform="translate(-145.02 -373.162)" fill="#263238"/><path d="M233.074,413.84a.5.5,0,0,1,.151.023l4.128,1.306a.5.5,0,0,1,.1.911l-2.939,1.672a.5.5,0,0,1-.4.04l-4.144-1.361a.5.5,0,0,1-.084-.914l2.954-1.617A.5.5,0,0,1,233.074,413.84Zm2.886,1.938-2.833-.9-1.755.961,2.837.932Z" transform="translate(-145.02 -373.162)" fill="#263238"/><path d="M21.524,361.11l-1.248-.35-4.486,1.621,1.263.435Z" transform="translate(-14.006 -340.41)" fill="#263238"/><path d="M20.276,360.26a.5.5,0,0,1,.135.019l1.248.35a.5.5,0,0,1,.043.949l-4.47,1.706a.5.5,0,0,1-.341.006l-1.263-.435a.5.5,0,0,1-.007-.943l4.486-1.621A.5.5,0,0,1,20.276,360.26Z" transform="translate(-14.006 -340.41)" fill="#263238"/><path d="M203.694,422.484l-3.273-1.1-4.1,2.321,3.16,1.1Z" transform="translate(-124.359 -377.465)" fill="#263238"/><path d="M200.421,420.88a.5.5,0,0,1,.16.026l3.273,1.1a.5.5,0,0,1,.081.912l-4.214,2.313a.5.5,0,0,1-.4.034l-3.16-1.1a.5.5,0,0,1-.082-.908l4.1-2.321A.5.5,0,0,1,200.421,420.88Zm2.034,1.714-1.982-.669-2.944,1.666,1.905.661Z" transform="translate(-124.359 -377.465)" fill="#263238"/><path d="M170.775,411.418l-3.425-1.158-4.19,2.185,3.394,1.174Z" transform="translate(-104.089 -370.668)" fill="#263238"/><path d="M167.35,409.76a.5.5,0,0,1,.16.026l3.425,1.158a.5.5,0,0,1,.071.917l-4.222,2.2a.5.5,0,0,1-.395.029L163,412.917a.5.5,0,0,1-.068-.916l4.19-2.185A.5.5,0,0,1,167.35,409.76Zm2.154,1.757-2.113-.715-2.972,1.549,2.093.724Z" transform="translate(-104.089 -370.668)" fill="#263238"/><path d="M186.121,416.623l-2.954-1-.078.043-.047-.086-4.183-1.411-4.229,2.208,7.4,2.562Z" transform="translate(-111.1 -373.058)" fill="#263238"/><path d="M182.031,419.44a.5.5,0,0,1-.164-.027l-7.4-2.562a.5.5,0,0,1-.068-.916l4.229-2.208a.5.5,0,0,1,.391-.031l4.183,1.411a.5.5,0,0,0,.125.043l2.954,1a.5.5,0,0,1,.086.909l-4.089,2.317A.5.5,0,0,1,182.031,419.44Zm-6.142-3.155,6.092,2.109,2.921-1.655-1.718-.581a.5.5,0,0,1-.469-.159l-3.813-1.286Z" transform="translate(-111.1 -373.058)" fill="#263238"/><path d="M160.369,407.887l-2.713-.917-4.156,2.169,2.69.929Z" transform="translate(-98.184 -368.657)" fill="#263238"/><path d="M157.656,406.47a.5.5,0,0,1,.16.026l2.713.917a.5.5,0,0,1,.071.917l-4.179,2.181a.5.5,0,0,1-.395.029l-2.69-.929a.5.5,0,0,1-.068-.916l4.156-2.169A.5.5,0,0,1,157.656,406.47Zm1.444,1.516-1.4-.474-2.937,1.533,1.389.48Z" transform="translate(-98.184 -368.657)" fill="#263238"/><path d="M227.432,421.254l-4.163-1.364-2.748,1.5,4.179,1.415Z" transform="translate(-139.152 -376.555)" fill="#263238"/><path d="M223.268,419.39a.5.5,0,0,1,.156.025l4.163,1.364a.5.5,0,0,1,.092.91l-2.733,1.555a.5.5,0,0,1-.408.039l-4.179-1.415a.5.5,0,0,1-.08-.912l2.748-1.5A.5.5,0,0,1,223.268,419.39Zm2.935,1.988-2.885-.945-1.559.854,2.887.978Z" transform="translate(-139.152 -376.555)" fill="#263238"/><path d="M114.75,357.952l1.765.529,1.718-.758-1.742-.533Z" transform="translate(-74.497 -338.228)" fill="#263238"/><path d="M116.515,358.981a.5.5,0,0,1-.143-.021l-1.765-.529a.5.5,0,0,1-.057-.937l1.742-.762a.5.5,0,0,1,.347-.02l1.742.533a.5.5,0,0,1,.056.936l-1.718.758A.5.5,0,0,1,116.515,358.981Z" transform="translate(-74.497 -338.228)" fill="#263238"/><path d="M150.476,404.567l-2.768-.937-4.2,2.122,2.818.976Z" transform="translate(-92.077 -366.615)" fill="#263238"/><path d="M147.708,403.13a.5.5,0,0,1,.16.026l2.768.937a.5.5,0,0,1,.071.917l-4.148,2.161a.5.5,0,0,1-.395.029l-2.818-.976a.5.5,0,0,1-.062-.919l4.2-2.122A.5.5,0,0,1,147.708,403.13Zm1.5,1.535-1.459-.494-2.958,1.5,1.5.519Z" transform="translate(-92.077 -366.615)" fill="#263238"/><path d="M167.54,373.915l2.7.809,1.392-.723-2.461-.75Z" transform="translate(-106.766 -348.045)" fill="#263238"/><path d="M169.169,372.75a.5.5,0,0,1,.146.022l2.461.75a.5.5,0,0,1,.085.922l-1.392.723a.5.5,0,0,1-.374.035l-2.7-.809a.5.5,0,0,1-.045-.942l1.629-.665A.5.5,0,0,1,169.169,372.75Zm1.143,1.371-1.119-.341-.153.062,1.147.344Z" transform="translate(-106.766 -348.045)" fill="#263238"/><path d="M193.88,410.225l-3.09-1.015-2.69,1.4,3.211,1.085Z" transform="translate(-119.334 -370.026)" fill="#263238"/><path d="M190.79,408.71a.5.5,0,0,1,.156.025l3.09,1.015a.5.5,0,0,1,.093.909l-2.569,1.473a.5.5,0,0,1-.409.04l-3.211-1.085a.5.5,0,0,1-.071-.917l2.69-1.4A.5.5,0,0,1,190.79,408.71Zm1.868,1.639-1.823-.6-1.464.764,1.887.637Z" transform="translate(-119.334 -370.026)" fill="#263238"/><path d="M172.117,403.038l-2.744-.9-2.593,1.353,2.713.917Z" transform="translate(-106.302 -365.705)" fill="#263238"/><path d="M169.373,401.64a.5.5,0,0,1,.155.025l2.744.9a.5.5,0,0,1,.076.918l-2.624,1.372a.5.5,0,0,1-.392.031l-2.713-.917a.5.5,0,0,1-.071-.917l2.593-1.353A.5.5,0,0,1,169.373,401.64Zm1.462,1.5-1.417-.464-1.368.714,1.4.474Z" transform="translate(-106.302 -365.705)" fill="#263238"/><path d="M243.7,401.28l-3.732-1.12-2.779,1.574,3.642,1.12Z" transform="translate(-149.341 -364.494)" fill="#263238"/><path d="M239.969,399.66a.5.5,0,0,1,.144.021l3.732,1.12a.5.5,0,0,1,.1.917l-2.869,1.574a.5.5,0,0,1-.387.04l-3.642-1.12a.5.5,0,0,1-.1-.913l2.779-1.574A.5.5,0,0,1,239.969,399.66Zm2.445,1.755-2.384-.715-1.584.9,2.331.716Z" transform="translate(-149.341 -364.494)" fill="#263238"/><path d="M204.628,413.691l-3.017-.991-2.581,1.481,2.962,1Z" transform="translate(-126.015 -372.16)" fill="#263238"/><path d="M201.611,412.2a.5.5,0,0,1,.156.025l3.017.991a.5.5,0,0,1,.09.91l-2.636,1.489a.5.5,0,0,1-.406.038l-2.962-1a.5.5,0,0,1-.089-.907l2.581-1.481A.5.5,0,0,1,201.611,412.2Zm1.785,1.613-1.729-.568-1.425.818,1.7.573Z" transform="translate(-126.015 -372.16)" fill="#263238"/><path d="M234.462,406.752l-3.619-1.112-2.433,1.376,3.53,1.12Z" transform="translate(-143.974 -367.844)" fill="#263238"/><path d="M230.843,405.14a.5.5,0,0,1,.147.022l3.619,1.112a.5.5,0,0,1,.094.916l-2.523,1.384a.5.5,0,0,1-.392.038l-3.53-1.12a.5.5,0,0,1-.095-.912L230.6,405.2A.5.5,0,0,1,230.843,405.14Zm2.341,1.742-2.283-.7-1.247.705,2.232.708Z" transform="translate(-143.974 -367.844)" fill="#263238"/><path d="M213.973,408.2l-3.083-.976-2.76,1.582,3.024.991Z" transform="translate(-131.578 -368.81)" fill="#263238"/><path d="M210.89,406.72a.5.5,0,0,1,.151.023l3.083.976a.5.5,0,0,1,.1.912l-2.818,1.6a.5.5,0,0,1-.4.04l-3.024-.991a.5.5,0,0,1-.093-.909l2.76-1.582A.5.5,0,0,1,210.89,406.72Zm1.838,1.606-1.78-.563-1.595.914,1.746.572Z" transform="translate(-131.578 -368.81)" fill="#263238"/><path d="M224.964,411.712l-3.51-1.112-2.834,1.605,3.405,1.116Z" transform="translate(-137.99 -370.876)" fill="#263238"/><path d="M221.454,410.1a.5.5,0,0,1,.151.023l3.51,1.112a.5.5,0,0,1,.089.915l-2.939,1.609a.5.5,0,0,1-.4.037l-3.405-1.116a.5.5,0,0,1-.091-.91l2.834-1.605A.5.5,0,0,1,221.454,410.1Zm2.244,1.735-2.187-.693-1.66.94,2.124.7Z" transform="translate(-137.99 -370.876)" fill="#263238"/><path d="M182.623,406.505l-3.467-1.135-2.636,1.376,3.429,1.155Z" transform="translate(-112.256 -367.679)" fill="#263238"/><path d="M179.156,404.87a.5.5,0,0,1,.156.025l3.467,1.135a.5.5,0,0,1,.076.918l-2.674,1.4a.5.5,0,0,1-.391.031l-3.429-1.155a.5.5,0,0,1-.072-.917l2.636-1.376A.5.5,0,0,1,179.156,404.87Zm2.184,1.741-2.139-.7-1.409.736,2.115.712Z" transform="translate(-112.256 -367.679)" fill="#263238"/><path d="M107.448,381.752l-2.48-.812L102.55,382.1l2.569.867Z" transform="translate(-67.04 -352.746)" fill="#263238"/><path d="M104.968,380.44a.5.5,0,0,1,.156.025l2.48.812a.5.5,0,0,1,.076.918l-2.328,1.217a.5.5,0,0,1-.391.031l-2.569-.867a.5.5,0,0,1-.057-.924l2.418-1.162A.5.5,0,0,1,104.968,380.44Zm1.2,1.418L105,381.478l-1.13.543,1.2.406Z" transform="translate(-67.04 -352.746)" fill="#263238"/><path d="M116.705,384.741l-2.445-.8-2.34,1.228,2.348.789Z" transform="translate(-72.767 -354.579)" fill="#263238"/><path d="M114.26,383.44a.5.5,0,0,1,.156.025l2.445.8a.5.5,0,0,1,.068.923l-2.437,1.217a.5.5,0,0,1-.383.027l-2.348-.789a.5.5,0,0,1-.073-.917l2.34-1.228A.5.5,0,0,1,114.26,383.44Zm1.133,1.4-1.087-.356-1.117.586,1.042.35Z" transform="translate(-72.767 -354.579)" fill="#263238"/><path d="M99.022,378.908l-2.091-.688-2.27,1.186,1.955.661Z" transform="translate(-62.217 -351.083)" fill="#263238"/><path d="M96.93,377.72a.5.5,0,0,1,.156.025l2.091.688a.5.5,0,0,1,.061.925l-2.406,1.158a.5.5,0,0,1-.377.023l-1.955-.661a.5.5,0,0,1-.071-.917l2.27-1.186A.5.5,0,0,1,96.93,377.72ZM97.687,379l-.713-.234-1.045.546.653.221Z" transform="translate(-62.217 -351.083)" fill="#263238"/><path d="M142.446,393.253l-9.19-3.013-2.476,1.252,9.081,3.067Z" transform="translate(-84.296 -358.43)" fill="#263238"/><path d="M139.861,395.059a.5.5,0,0,1-.16-.026l-9.081-3.067a.5.5,0,0,1-.066-.92l2.476-1.252a.5.5,0,0,1,.381-.029l9.19,3.013a.5.5,0,0,1,.07.921l-2.585,1.306A.5.5,0,0,1,139.861,395.059Zm-7.79-3.659,7.752,2.618,1.32-.667L133.3,390.78Z" transform="translate(-84.296 -358.43)" fill="#263238"/><path d="M162.269,399.814l-2.733-.894-2.6,1.314,2.748.929Z" transform="translate(-100.287 -363.736)" fill="#263238"/><path d="M159.537,398.42a.5.5,0,0,1,.155.025l2.733.894a.5.5,0,0,1,.076.918l-2.581,1.349a.5.5,0,0,1-.392.031l-2.748-.929a.5.5,0,0,1-.066-.92l2.6-1.314A.5.5,0,0,1,159.537,398.42Zm1.45,1.5-1.409-.461-1.349.682,1.417.479Z" transform="translate(-100.287 -363.736)" fill="#263238"/><path d="M126.043,387.861l-2.818-.921-2.445,1.221,2.8.949Z" transform="translate(-78.183 -356.413)" fill="#263238"/><path d="M123.225,386.44a.5.5,0,0,1,.155.025l2.818.921a.5.5,0,0,1,.071.921l-2.465,1.248a.5.5,0,0,1-.386.027l-2.8-.949a.5.5,0,0,1-.063-.921L123,386.493A.5.5,0,0,1,123.225,386.44Zm1.514,1.521-1.475-.482-1.188.593,1.464.5Z" transform="translate(-78.183 -356.413)" fill="#263238"/><path d="M140.62,365.763l2.457.739,1.7-.7-2.492-.762Z" transform="translate(-90.311 -343.026)" fill="#263238"/><path d="M142.284,364.54a.5.5,0,0,1,.146.022l2.492.762a.5.5,0,0,1,.044.94l-1.7.7a.5.5,0,0,1-.334.017l-2.457-.739a.5.5,0,0,1-.055-.937l1.664-.723A.5.5,0,0,1,142.284,364.54Zm1.01,1.332-.98-.3-.242.105.979.294Z" transform="translate(-90.311 -343.026)" fill="#263238"/><path d="M150.15,368.666l2.068.618,1.633-.7-2.014-.618Z" transform="translate(-96.136 -344.817)" fill="#263238"/><path d="M152.218,369.784a.5.5,0,0,1-.143-.021l-2.068-.618a.5.5,0,0,1-.047-.941l1.687-.7a.5.5,0,0,1,.337-.016l2.014.618a.5.5,0,0,1,.049.938l-1.633.7A.5.5,0,0,1,152.218,369.784Zm-.574-1.193.544.163.208-.089-.534-.164Z" transform="translate(-96.136 -344.817)" fill="#263238"/><path d="M158.63,371.212l2.22.661,1.637-.672-2.231-.68Z" transform="translate(-101.32 -346.376)" fill="#263238"/><path d="M160.85,372.373a.5.5,0,0,1-.143-.021l-2.22-.661a.5.5,0,0,1-.053-.939l1.625-.692a.5.5,0,0,1,.342-.018l2.231.68a.5.5,0,0,1,.044.941l-1.637.672A.5.5,0,0,1,160.85,372.373Zm-.748-1.244.721.215.178-.073-.717-.219Z" transform="translate(-101.32 -346.376)" fill="#263238"/><path d="M177.38,376.779l2.247.673,0,0,1.446-.68-2.309-.707Z" transform="translate(-112.781 -349.763)" fill="#263238"/><path d="M179.627,377.952a.5.5,0,0,1-.143-.021l-2.247-.673a.5.5,0,0,1-.088-.922l1.38-.719a.5.5,0,0,1,.378-.035l2.309.707a.5.5,0,0,1,.066.931l-1.379.649A.5.5,0,0,1,179.627,377.952Zm-.923-1.3.876.262.1-.049-.875-.268Z" transform="translate(-112.781 -349.763)" fill="#263238"/><path d="M90.322,376.112l-2.313-.762-2.379,1.116,2.433.82Z" transform="translate(-56.697 -349.329)" fill="#263238"/><path d="M88.009,374.85a.5.5,0,0,1,.156.025l2.313.762a.5.5,0,0,1,.074.919l-2.259,1.174a.5.5,0,0,1-.39.03l-2.433-.82a.5.5,0,0,1-.053-.927L87.8,374.9A.5.5,0,0,1,88.009,374.85Zm1.029,1.366-1-.328-1.072.5,1.052.355Z" transform="translate(-56.697 -349.329)" fill="#263238"/><path d="M131.71,363.02l2.247.673,1.675-.727-2.344-.715Z" transform="translate(-84.864 -341.321)" fill="#263238"/><path d="M133.957,364.192a.5.5,0,0,1-.143-.021l-2.247-.673a.5.5,0,0,1-.076-.928l1.578-.77a.5.5,0,0,1,.365-.029l2.344.715a.5.5,0,0,1,.053.937l-1.675.727A.5.5,0,0,1,133.957,364.192Zm-.877-1.284.845.253.262-.114-.857-.261Z" transform="translate(-84.864 -341.321)" fill="#263238"/><path d="M122.4,360.254l2.465.739,1.586-.774-2.344-.719Z" transform="translate(-79.173 -339.64)" fill="#263238"/><path d="M124.865,361.493a.5.5,0,0,1-.144-.021l-2.465-.739a.5.5,0,0,1-.059-.936l1.707-.754a.5.5,0,0,1,.349-.021l2.344.719a.5.5,0,0,1,.073.927l-1.586.774A.5.5,0,0,1,124.865,361.493Zm-1.024-1.329.98.294.271-.132-.954-.293Z" transform="translate(-79.173 -339.64)" fill="#263238"/><path d="M226.7,391.671l2.465.739,1.143-.653-2.379-.727Z" transform="translate(-142.929 -358.913)" fill="#263238"/><path d="M227.928,390.53a.5.5,0,0,1,.146.022l2.379.727a.5.5,0,0,1,.1.912l-1.143.653a.5.5,0,0,1-.392.045l-2.465-.739a.5.5,0,0,1-.088-.922l1.228-.641A.5.5,0,0,1,227.928,390.53Z" transform="translate(-142.929 -358.913)" fill="#263238"/><path d="M214.58,388.011l3.584,1.073,1.24-.645-3.557-1.088Z" transform="translate(-135.521 -356.664)" fill="#263238"/><path d="M215.847,386.85a.5.5,0,0,1,.146.022l3.557,1.088a.5.5,0,0,1,.085.922l-1.24.645a.5.5,0,0,1-.374.035l-3.584-1.073a.5.5,0,0,1-.088-.922l1.267-.661A.5.5,0,0,1,215.847,386.85Z" transform="translate(-135.521 -356.664)" fill="#263238"/><path d="M251.739,398.257l-3.747-1.147-1.112.626,3.755,1.127Z" transform="translate(-155.265 -362.63)" fill="#263238"/><path d="M250.635,399.363a.5.5,0,0,1-.144-.021l-3.755-1.127a.5.5,0,0,1-.1-.915l1.112-.626a.5.5,0,0,1,.392-.042l3.747,1.147a.5.5,0,0,1,.094.916l-1.1.606A.5.5,0,0,1,250.635,399.363Z" transform="translate(-155.265 -362.63)" fill="#263238"/><path d="M235.82,394.389l3.211.96,1.12-.63-3.2-.98Z" transform="translate(-148.504 -360.57)" fill="#263238"/><path d="M236.955,393.24a.5.5,0,0,1,.147.022l3.2.98a.5.5,0,0,1,.1.914l-1.12.63a.5.5,0,0,1-.388.043l-3.211-.96a.5.5,0,0,1-.1-.913l1.135-.649A.5.5,0,0,1,236.955,393.24Z" transform="translate(-148.504 -360.57)" fill="#263238"/><path d="M186.17,379.476l2.227.669,1.419-.673-2.208-.672Z" transform="translate(-118.154 -351.437)" fill="#263238"/><path d="M188.4,380.645a.5.5,0,0,1-.144-.021l-2.227-.669a.5.5,0,0,1-.069-.931l1.438-.676a.5.5,0,0,1,.358-.026l2.208.672a.5.5,0,0,1,.068.93l-1.419.673A.5.5,0,0,1,188.4,380.645Zm-.833-1.272.792.238.077-.037-.787-.24Z" transform="translate(-118.154 -351.437)" fill="#263238"/><path d="M194.92,382.115l2.554.766,1.306-.68-2.449-.75Z" transform="translate(-123.503 -353.057)" fill="#263238"/><path d="M196.331,380.95a.5.5,0,0,1,.146.022l2.449.75a.5.5,0,0,1,.085.922l-1.306.68a.5.5,0,0,1-.375.035l-2.554-.766a.5.5,0,0,1-.069-.931l1.411-.665A.5.5,0,0,1,196.331,380.95Zm1.135,1.371-1.1-.336-.055.026,1.109.333Z" transform="translate(-123.503 -353.057)" fill="#263238"/><path d="M204.38,384.93l2.838.847,1.279-.665-2.818-.863Z" transform="translate(-129.286 -354.769)" fill="#263238"/><path d="M205.678,383.75a.5.5,0,0,1,.146.022l2.818.863a.5.5,0,0,1,.084.922l-1.279.665a.5.5,0,0,1-.374.035l-2.838-.847a.5.5,0,0,1-.089-.922l1.3-.68A.5.5,0,0,1,205.678,383.75Zm1.5,1.483-1.453-.445-.028.015,1.466.438Z" transform="translate(-129.286 -354.769)" fill="#263238"/><path d="M219.3,417.347l-.187,2.515L241.295,407.5l.233-2.81Z" transform="translate(-138.29 -367.263)" fill="#fff"/><path d="M219.11,420.362a.5.5,0,0,1-.5-.537l.187-2.515a.5.5,0,0,1,.251-.4l22.231-12.657a.5.5,0,0,1,.746.476l-.233,2.81a.5.5,0,0,1-.255.4L219.353,420.3A.5.5,0,0,1,219.11,420.362Zm.665-2.712-.1,1.324,21.141-11.78.133-1.6Z" transform="translate(-138.29 -367.263)" fill="#263238"/><path d="M268.48,413.557V416.6l2.842-1.535.152-3.149Z" transform="translate(-168.468 -371.683)" fill="#fff"/><path d="M271.473,411.42a.5.5,0,0,1,.5.524l-.152,3.149a.5.5,0,0,1-.262.416l-2.842,1.535a.5.5,0,0,1-.738-.44v-3.048a.5.5,0,0,1,.26-.439l2.993-1.637A.5.5,0,0,1,271.473,411.42Zm-.637,3.343.1-1.977-1.951,1.067v1.913Z" transform="translate(-168.468 -371.683)" fill="#263238"/><path d="M262.324,419.178l-3.914-.766,3.992-2.282Z" transform="translate(-162.313 -374.256)" fill="#263238"/><path d="M262.324,419.678a.5.5,0,0,1-.1-.009l-3.914-.766a.5.5,0,0,1-.152-.925l3.992-2.282a.5.5,0,0,1,.748.447l-.078,3.048a.5.5,0,0,1-.5.487Zm-2.5-1.5,2.015.394.04-1.569Z" transform="translate(-162.313 -374.256)" fill="#263238"/><path d="M92.02,395.595,11.2,367.186l.016-2.2,80.991,28.089Z" transform="translate(-11.2 -342.996)" fill="#fff"/><path d="M92.02,396.095a.5.5,0,0,1-.166-.028l-80.82-28.408a.5.5,0,0,1-.334-.475l.016-2.2a.5.5,0,0,1,.664-.469l80.991,28.089a.5.5,0,0,1,.335.509l-.187,2.515a.5.5,0,0,1-.5.463ZM11.7,366.833,91.57,394.906l.11-1.48L11.711,365.691Z" transform="translate(-11.2 -342.996)" fill="#263238"/></g><g transform="translate(61.697 28.351)"><path d="M229.252,323.65l-23.5,8.474,42.9,10.923,23.942-10.134Z" transform="translate(-182.906 -218.513)" fill="#263238"/><path d="M229.252,323.15a.5.5,0,0,1,.1.011l43.339,9.263a.5.5,0,0,1,.09.949l-23.942,10.134a.5.5,0,0,1-.318.024l-42.9-10.923a.5.5,0,0,1-.046-.955l23.5-8.474A.5.5,0,0,1,229.252,323.15Zm41.684,9.921-41.649-8.9-21.835,7.873,41.157,10.48Z" transform="translate(-182.906 -218.513)" fill="#263238"/><path d="M205.75,345.45v1.333l42.83,11.343.07-1.753Z" transform="translate(-182.906 -231.839)" fill="#fff"/><path d="M205.75,344.95a.5.5,0,0,1,.123.015l42.9,10.923a.5.5,0,0,1,.376.5l-.07,1.753a.5.5,0,0,1-.628.463l-42.83-11.343a.5.5,0,0,1-.372-.483V345.45a.5.5,0,0,1,.5-.5Zm42.384,11.808L206.25,346.093v.305l41.855,11.085Z" transform="translate(-182.906 -231.839)" fill="#263238"/><path d="M316,357.614l23.942-10.134-.175,1.465L315.93,359.367Z" transform="translate(-250.256 -233.08)" fill="#fff"/><path d="M315.93,359.867a.5.5,0,0,1-.5-.52l.07-1.753a.5.5,0,0,1,.3-.441l23.942-10.134a.5.5,0,0,1,.691.52L340.263,349a.5.5,0,0,1-.3.4L316.13,359.825A.5.5,0,0,1,315.93,359.867Zm.557-1.916-.025.638L339.3,348.6l.039-.326Z" transform="translate(-250.256 -233.08)" fill="#263238"/><path d="M269.681,296.45l-.968,14.989-1.353.583,24.467,5.8,1.353-.579,1.065-16.249Z" transform="translate(-220.567 -201.887)" fill="#fff"/><path d="M269.681,295.95a.5.5,0,0,1,.091.008l24.564,4.544a.5.5,0,0,1,.408.524l-1.065,16.249a.5.5,0,0,1-.3.427l-1.353.579a.5.5,0,0,1-.312.027l-24.467-5.8a.5.5,0,0,1-.083-.946l1.071-.462.948-14.684a.5.5,0,0,1,.5-.468Zm24.036,5.455-23.573-4.361-.932,14.427a.5.5,0,0,1-.27.412l22.839,5.414.919-.394Z" transform="translate(-220.567 -201.887)" fill="#263238"/><path d="M268.328,297.95l-.968,14.989,24.467,5.8,1.065-16.245Z" transform="translate(-220.567 -202.804)" fill="#263238"/><path d="M268.328,297.45a.5.5,0,0,1,.091.008L292.983,302a.5.5,0,0,1,.408.524l-1.065,16.245a.5.5,0,0,1-.614.454l-24.467-5.8a.5.5,0,0,1-.384-.519l.968-14.989a.5.5,0,0,1,.5-.468Zm24.036,5.455-23.573-4.361-.9,14.006,23.48,5.566Z" transform="translate(-220.567 -202.804)" fill="#263238"/><path d="M277.658,53.936,276.2,53.38l-2.049.128-.167.56-114.251,6.8a1.279,1.279,0,0,0-1.2,1.139l-7.541,78.1a1.038,1.038,0,0,0,.832,1.123l106.542,20.412-1.166.711,4.723.917.548-.074,1.333-.645a1.166,1.166,0,0,0,.832-.96l13.8-106.41a1.166,1.166,0,0,0-.781-1.24Z" transform="translate(-149.43 -53.305)" fill="#fff"/><path d="M276.2,52.88a.5.5,0,0,1,.178.033l1.454.553a1.675,1.675,0,0,1,1.107,1.769v.006l-13.8,106.41a1.67,1.67,0,0,1-1.145,1.363l-1.3.628a.5.5,0,0,1-.151.045l-.548.074a.5.5,0,0,1-.162,0l-4.723-.917a.5.5,0,0,1-.165-.918l.061-.037L151.729,141.716a1.532,1.532,0,0,1-1.235-1.665l7.541-78.093v-.006a1.774,1.774,0,0,1,1.665-1.584L273.6,53.59l.067-.225a.5.5,0,0,1,.448-.356l2.049-.128Zm1.747,2.235a.67.67,0,0,0-.447-.706l-.016-.006-1.361-.517-1.593.1-.067.226a.5.5,0,0,1-.449.356l-114.251,6.8a.777.777,0,0,0-.73.692l-7.541,78.091a.536.536,0,0,0,.431.585l106.54,20.412a.5.5,0,0,1,.166.918l-.065.04,3.376.656.387-.052,1.261-.611a.5.5,0,0,1,.079-.03.667.667,0,0,0,.475-.548l13.8-106.406Z" transform="translate(-149.43 -53.305)" fill="#263238"/><path d="M155.4,61.137l-8.412,79.487a1.03,1.03,0,0,0,.832,1.123L259.255,163.1a1.166,1.166,0,0,0,1.364-.987L274.446,54.49a1.166,1.166,0,0,0-1.213-1.3L156.615,60A1.275,1.275,0,0,0,155.4,61.137Z" transform="translate(-146.984 -53.187)" fill="#263238"/><path d="M273.288,52.687a1.666,1.666,0,0,1,1.655,1.862L261.115,162.177a1.677,1.677,0,0,1-.674,1.126,1.666,1.666,0,0,1-1.276.289L147.728,142.239a1.538,1.538,0,0,1-1.235-1.669l8.412-79.486a1.764,1.764,0,0,1,1.684-1.586L273.2,52.689h.006ZM259.464,162.62a.662.662,0,0,0,.391-.126.669.669,0,0,0,.269-.448L273.951,54.426a.666.666,0,0,0-.691-.739L156.644,60.5h-.008a.77.77,0,0,0-.737.692l-8.412,79.487a.533.533,0,0,0,.428.58L259.349,162.61A.658.658,0,0,0,259.464,162.62Z" transform="translate(-146.984 -53.187)" fill="#263238"/><path d="M164.093,70.091l-7.083,65.932,106.612,16.354L275.634,63.91Z" transform="translate(-153.113 -59.742)" fill="#ebe3de"/><path d="M275.634,63.41a.5.5,0,0,1,.5.567l-12.012,88.467a.5.5,0,0,1-.571.427L156.934,136.517a.5.5,0,0,1-.421-.548L163.6,70.037a.5.5,0,0,1,.469-.446l111.542-6.181Zm-12.439,88.4,11.862-87.363L164.544,70.566,157.558,135.6Z" transform="translate(-153.113 -59.742)" fill="#263238"/><path d="M205.43,155.353a.5.5,0,0,1-.146-.978c20.5-6.277,38.61-11.687,53.831-16.08a220.39,220.39,0,0,1,24.152-5.577,166.911,166.911,0,0,1,18.295-2.127.5.5,0,1,1,.057,1,165.918,165.918,0,0,0-18.184,2.115,219.39,219.39,0,0,0-24.042,5.552c-15.216,4.391-33.322,9.8-53.816,16.076A.5.5,0,0,1,205.43,155.353Z" transform="translate(-182.711 -100.807)" fill="#263238"/><path d="M244.852,121.847a.5.5,0,0,1-.189-.037,218,218,0,0,0-27.075-9c-7.523-1.975-15.25-3.6-22.966-4.826a182.029,182.029,0,0,0-21.863-2.306.5.5,0,1,1,.023-1,183.139,183.139,0,0,1,22,2.319c7.748,1.232,15.507,2.863,23.063,4.846a219,219,0,0,1,27.2,9.039.5.5,0,0,1-.189.963Z" transform="translate(-162.746 -84.969)" fill="#263238"/><path d="M243.2,187.52a.5.5,0,0,1-.342-.865c.066-.061,6.663-6.238,16.2-13.912,5.6-4.508,11.111-8.644,16.372-12.294a174.677,174.677,0,0,1,18.46-11.338c5.969-3.114,14.778-7.322,22.843-9.69a32.493,32.493,0,0,1,7.228-1.511.5.5,0,0,1,.029,1,32.705,32.705,0,0,0-7.052,1.493c-7.969,2.35-16.681,6.515-22.585,9.6a173.669,173.669,0,0,0-18.348,11.27c-5.24,3.636-10.729,7.757-16.313,12.249-9.511,7.652-16.086,13.807-16.151,13.868A.5.5,0,0,1,243.2,187.52Z" transform="translate(-205.798 -105.281)" fill="#263238"/><path d="M147.823,267.356l111.433,21.357a1.166,1.166,0,0,0,1.364-.987l1.341-10.457L147.788,258.68l-.8,7.557A1.03,1.03,0,0,0,147.823,267.356Z" transform="translate(-146.985 -178.799)" fill="#fff"/><path d="M147.788,258.18a.5.5,0,0,1,.08.007l114.173,18.589a.5.5,0,0,1,.416.557l-1.341,10.457v0a1.674,1.674,0,0,1-.674,1.121,1.666,1.666,0,0,1-1.276.289L147.729,267.847a1.539,1.539,0,0,1-1.235-1.663l.8-7.557a.5.5,0,0,1,.5-.448Zm113.616,19.5L148.23,259.259l-.741,7.031a.533.533,0,0,0,.428.576L259.35,288.222a.667.667,0,0,0,.506-.116.67.67,0,0,0,.269-.446Z" transform="translate(-146.985 -178.799)" fill="#263238"/><path d="M157.01,203.1l16.089,2.465,3.4-30.752-16.323-1.17Z" transform="translate(-153.113 -126.816)" fill="#263238"/><path d="M173.1,206.062a.5.5,0,0,1-.076-.006l-16.089-2.465a.5.5,0,0,1-.421-.548l3.164-29.458a.5.5,0,0,1,.533-.445l16.323,1.17a.5.5,0,0,1,.461.554l-3.4,30.752a.5.5,0,0,1-.5.445Zm-15.541-3.386,15.1,2.313,3.283-29.717-15.323-1.1Z" transform="translate(-153.113 -126.816)" fill="#263238"/><path d="M195.147,200.583l-3.417-.393L190.44,210.3l3.58.463Z" transform="translate(-173.548 -143.046)" fill="#babdbf"/><path d="M191.73,199.69a.5.5,0,0,1,.058,0l3.417.393a.5.5,0,0,1,.44.552l-1.127,10.177a.5.5,0,0,1-.561.441l-3.58-.463a.5.5,0,0,1-.432-.559l1.291-10.107A.5.5,0,0,1,191.73,199.69Zm2.866,1.333-2.432-.279L191,209.865l2.58.333Z" transform="translate(-173.548 -143.046)" fill="#263238"/><path d="M188.957,186.61a.187.187,0,0,1-.027.07l5.333.614.863-7.825-5.162-.389Z" transform="translate(-172.625 -130.142)" fill="#babdbf"/><path d="M194.263,187.794a.5.5,0,0,1-.057,0l-5.333-.614a.5.5,0,0,1-.4-.691l1-7.471a.5.5,0,0,1,.533-.432l5.162.389a.5.5,0,0,1,.459.553l-.863,7.825a.5.5,0,0,1-.5.445Zm-4.753-1.551,4.311.5.751-6.811-4.176-.314Z" transform="translate(-172.625 -130.142)" fill="#263238"/><path d="M181.5,209.256l1.291-10.1-5.1-.587L176.45,208.6Z" transform="translate(-164.996 -142.055)" fill="#babdbf"/><path d="M181.5,209.756a.5.5,0,0,1-.064,0l-5.053-.653a.5.5,0,0,1-.432-.557l1.244-10.033a.5.5,0,0,1,.553-.435l5.1.587a.5.5,0,0,1,.439.56L182,209.32a.5.5,0,0,1-.5.437Zm-4.5-1.585,4.064.525,1.163-9.1-4.1-.472Z" transform="translate(-164.996 -142.055)" fill="#263238"/><path d="M180.749,226.171l-6.177-.8-1.112,8.98,6.216.952Z" transform="translate(-163.168 -158.438)" fill="#babdbf"/><path d="M174.572,224.87a.5.5,0,0,1,.064,0l6.177.8a.5.5,0,0,1,.432.554l-1.073,9.131a.5.5,0,0,1-.572.436l-6.216-.952a.5.5,0,0,1-.42-.556l1.112-8.98a.5.5,0,0,1,.5-.439Zm5.623,1.733-5.188-.673-.99,8,5.224.8Z" transform="translate(-163.168 -158.438)" fill="#263238"/><path d="M182.963,186.256a.194.194,0,0,1,0-.082l1-7.487-3.285-.237-.921,7.436Z" transform="translate(-167.019 -129.757)" fill="#babdbf"/><path d="M182.963,186.756a.5.5,0,0,1-.057,0l-3.2-.369a.5.5,0,0,1-.439-.558l.921-7.436a.5.5,0,0,1,.532-.437l3.285.237a.5.5,0,0,1,.46.565l-1,7.464a.5.5,0,0,1-.5.538Zm-2.645-1.308,2.2.254.878-6.554-2.281-.165Z" transform="translate(-167.019 -129.757)" fill="#263238"/><path d="M191.513,227.56,190.44,236.7l2.523.389,1.015-9.209Z" transform="translate(-173.548 -159.776)" fill="#babdbf"/><path d="M191.513,227.06a.5.5,0,0,1,.064,0l2.465.319a.5.5,0,0,1,.433.551l-1.015,9.209a.5.5,0,0,1-.573.439l-2.523-.389a.5.5,0,0,1-.42-.552l1.073-9.139a.5.5,0,0,1,.5-.442Zm1.914,1.252-1.476-.191-.958,8.158,1.53.236Z" transform="translate(-173.548 -159.776)" fill="#263238"/></g></g></svg>