<?xml version="1.0" encoding="UTF-8"?>
<svg id="logo" xmlns="http://www.w3.org/2000/svg" viewBox="0 0 1290.29 326.29">
  <defs>
    <style>
      .cls-1 {
        fill: none;
        stroke: #000;
        stroke-miterlimit: 10;
        stroke-width: 3px;
      }
    </style>
  </defs>
  <g>
    <path d="M176.55,112.71c2.9,0,12.63,0,12.63,11.59,0,9.31-4.14,12.83-12.63,12.83h-52.78v24.84h46.15c4.14,0,12.42.41,12.42,11.38,0,8.28-3.1,12.42-12.42,12.42h-46.15v33.12h60.44c4.35,0,12.42.21,12.42,12s-7.45,12.21-12.42,12.21h-60.44v35.19c0,4.76-.41,12.62-12.62,12.62-11.38,0-13.87-4.55-13.87-12.62v-35.19H12.83c-3.73,0-12.42,0-12.42-12s8.07-12.21,12.42-12.21h18.01v-32.91c0-18.63,8.07-24.01,24.01-24.01h42.43v-24.84h-42.43c-3.1,4.97-12.21,18.21-23.39,30.22-9.52,9.93-11.8,10.76-15.52,10.76-8.07,0-15.94-7.45-15.94-15.32,0-4.76,2.28-7.24,4.97-9.93,21.32-20.7,25.66-27.11,38.5-51.12,2.48-4.55,4.76-7.66,11.38-7.66,7.04,0,15.52,4.14,15.52,11.38,0,2.28-.83,4.55-1.86,7.24h108.04ZM97.28,218.89v-33.12h-33.32c-4.35,0-7.04,2.28-7.04,7.04v26.08h40.36Z"/>
    <path d="M292.04,106.71c0-3.31,0-12.83,12.42-12.83,11.18,0,14.07,4.97,14.07,12.83v13.45h72.65c2.9,0,12.62,0,12.62,12s-9.52,12.21-12.62,12.21h-72.65v27.32h63.75c2.9,0,12.83,0,12.83,12s-9.73,12.21-12.83,12.21h-49.26c6,9.31,20.08,30.42,52.16,49.05,14.07,8.28,16.76,9.73,16.76,17.18,0,8.49-6.83,15.73-13.45,15.73-8.9,0-27.32-14.28-35.81-21.32-20.08-16.35-30.01-32.49-34.15-39.32v60.85c0,3.31,0,12.83-12.63,12.83-10.76,0-13.87-4.55-13.87-12.83v-60.44c-4.55,7.04-13.87,21.53-33.12,38.29-9.11,7.87-28.15,21.94-36.43,21.94-6.62,0-13.45-7.04-13.45-15.52,0-6.83,2.9-8.69,12.21-14.49,20.28-12.42,38.08-24.84,56.5-51.95h-49.26c-2.9,0-12.83,0-12.83-12s9.11-12.21,12.83-12.21h63.54v-27.32h-72.23c-3.1,0-12.83,0-12.83-12s9.11-12.21,12.83-12.21h72.23v-13.45Z"/>
    <path d="M509.58,130.51c5.38,0,10.97,1.24,10.97,10.97s-5.38,11.38-10.97,11.38h-51.33c-2.9,0-11.18,0-11.18-10.56,0-9.52,4.35-11.8,11.18-11.8h51.33ZM503.78,100.29c2.9,0,10.97,0,10.97,10.76s-7.66,10.97-10.97,10.97h-40.15c-3.1,0-10.97,0-10.97-10.76s7.24-10.97,10.97-10.97h40.15ZM503.78,161.14c3.1,0,10.97.21,10.97,10.97s-7.24,10.97-10.97,10.97h-40.15c-3.1,0-10.97,0-10.97-10.76s6.83-11.18,10.97-11.18h40.15ZM503.78,191.77c3.1,0,10.97,0,10.97,10.56s-7.66,10.97-11.38,10.97h-39.74c-2.9,0-10.97,0-10.97-10.76s7.24-10.76,10.97-10.76h40.15ZM524.69,123.27c0-17.59,7.87-22.35,22.35-22.35h66.85c14.49,0,22.56,4.55,22.56,22.35v142.4c0,11.59-1.45,16.35-6.83,19.87-4.76,3.1-8.69,3.52-23.8,3.52-8.49,0-18.42,0-18.42-13.87,0-7.24,3.31-9.73,4.97-10.76-2.9.21-3.93.21-5.8.21h-13.87c-16.14,0-19.87-3.73-19.87-19.87v-20.08c0-16.14,3.73-19.87,19.87-19.87h13.87c16.14,0,19.87,3.73,19.87,19.87v20.08c0,10.76-1.45,15.11-7.04,18.01,11.38,0,11.8,0,12.62-.62.83-.62,2.28-2.69,2.28-7.04v-67.68c-1.04,6.42-5.17,7.87-10.76,7.87h-46.15c-5.59,0-9.73-1.45-10.76-7.66v7.24c0,34.98-2.07,55.05-7.86,74.51-3.93,13.45-6.62,19.04-14.9,19.04-4.35,0-10.76-2.28-12.83-8.69-3.31,5.59-8.49,6.62-19.04,6.62h-17.8c-17.59,0-21.32-3.93-21.32-21.52v-21.32c0-17.59,3.52-21.73,21.52-21.73h17.39c17.8,0,21.73,3.93,21.73,21.73v21.32c0,1.66,0,2.07-.21,4.35,5.8-13.25,11.38-26.91,11.38-76.37v-69.54ZM493.43,246.62c0-3.52-1.86-4.97-4.97-4.97h-9.31c-2.9,0-4.97,1.45-4.97,4.97v13.66c0,3.52,1.86,4.97,4.97,4.97h9.31c3.31,0,4.97-1.66,4.97-4.97v-13.66ZM546.62,146.66c1.04-5.8,4.35-7.86,10.76-7.86h12.83v-4.14c0-2.69,0-9.52,7.66-10.76h-26.29c-3.1,0-4.97,1.66-4.97,4.97v17.8ZM546.62,182.67c1.04-6.21,5.17-7.66,10.76-7.66h12.83v-15.94h-12.83c-6,0-9.73-1.66-10.76-7.87v31.46ZM574.77,223.65c-2.69,0-4.97,1.04-4.97,4.97v11.59c0,3.1,1.66,4.97,4.97,4.97h9.73c3.31,0,4.97-1.66,4.97-4.97v-11.59c0-3.31-1.86-4.97-4.97-4.97h-9.73ZM614.3,128.86c0-2.9-1.24-4.97-4.97-4.97h-26.91c7.66,1.24,7.66,8.07,7.66,10.76v4.14h13.66c8.07,0,9.73,3.73,10.56,7.86v-17.8ZM614.3,151.42c-1.04,6-4.55,7.66-10.56,7.66h-13.66v15.94h13.45c7.45,0,9.73,2.9,10.76,7.86v-31.46Z"/>
    <path d="M839.29,108.99c8.28,0,10.14,4.35,10.14,11.38,0,9.93-6.42,9.93-11.8,9.93-2.07,10.56-6,25.46-16.14,40.36,3.52,2.48,13.87,7.24,19.66,9.93,4.55,2.28,8.28,4.55,8.28,10.14s-3.73,13.66-11.8,13.66c-5.38,0-20.49-7.87-31.87-17.18-18.63,14.7-36.43,18.42-42.02,18.42-6.83,0-10.35-6.42-10.35-12.21,0-7.04,4.55-8.49,10.14-10.35,14.07-4.55,21.94-9.73,25.46-12.21-5.38-6.62-9.31-12.62-13.45-20.7-4.97,5.17-7.24,7.45-11.8,7.45-3.72,0-6.21-1.86-8.07-3.73-.41,12.62-2.9,16.14-17.8,16.14h-6.83c2.9,2.69,7.04,6.21,12.62,10.14,6.62,4.35,7.87,5.38,7.87,9.52,0,4.97-4.35,11.59-10.56,11.59s-15.94-11.18-21.32-17.8v13.25c0,2.48,0,8.07-6,10.14h116.11c2.69,0,10.76,0,10.76,9.52s-8.28,9.31-10.76,9.31h-63.54v9.31h54.43c7.45,0,9.52,3.73,9.52,10.14,0,8.9-6.83,9.11-9.52,9.11h-54.43v10.35h72.44c2.69,0,10.97,0,10.97,9.73s-8.28,9.52-10.97,9.52h-173.03c-3.31,0-10.76-.21-10.76-9.73s8.07-9.52,10.76-9.52h21.73v-21.53c0-8.28,2.69-12.62,13.66-12.62,11.8,0,12.21,8.07,12.21,12.62v21.53h27.11v-38.91h-65.61c-5.17,0-10.56-1.24-10.56-9.52,0-8.9,6.83-9.31,10.56-9.31h28.36c-5.8-2.07-5.8-7.66-5.8-10.14v-12.83c-11.38,11.38-26.49,21.94-32.49,21.94s-10.55-6.42-10.55-11.8c0-4.35,2.48-6.21,6-8.07,9.31-4.76,15.52-8.07,25.46-15.94h-7.04c-10.56,0-17.8-1.03-17.8-15.52v-8.07c0-14.69,7.24-15.52,17.8-15.52h18.63v-6.62h-32.7c-2.69,0-10.35,0-10.35-9.31s8.07-9.31,10.35-9.31h32.7v-3.73c0-5.17,2.48-7.66,12.42-7.66,6,0,9.93,2.07,9.93,7.45v3.93h32.49c3.31,0,10.35.41,10.35,9.52s-8.07,9.11-10.35,9.11h-32.49v6.62h18.21c6.62,0,13.87,0,16.76,7.24.41-.62.62-.83,1.04-1.24,6.62-6.42,15.52-14.9,22.15-29.8,5.38-11.8,6.21-13.66,12.62-13.66s12.42,2.69,12.42,8.69c0,2.28-.41,3.73-1.66,6.83h38.08ZM698.75,156.18v-10.76h-14.07c-2.9,0-4.14,1.66-4.14,4.14,0,3.73,0,6.62,4.14,6.62h14.07ZM718,156.18h14.28c2.9,0,4.14-1.66,4.14-4.14,0-3.73,0-6.62-4.14-6.62h-14.28v10.76ZM790.65,130.3c-.62.83-.62,1.03-1.24,1.86,5.17,10.76,8.69,16.56,15.11,23.59,5.38-7.87,7.87-14.28,10.35-25.46h-24.22Z"/>
    <path d="M1055.99,200.88c2.48,3.1,4.14,5.38,4.14,9.31,0,6.62-5.38,12.62-11.59,12.62-3.52,0-18.42-6.42-21.53-7.45-8.9-2.9-14.9-3.93-21.11-5.17-3.93-.62-9.31-1.66-9.31-9.52,0-4.55,2.69-11.18,8.69-11.18.62,0,10.56,2.9,12,3.31-10.14-13.66-15.52-21.32-22.35-31.87-22.77,3.1-46.57,5.17-69.54,5.17-10.76,0-22.15,0-22.15-13.87,0-12.83,9.52-12.83,14.69-12.83,37.46,0,41.6,0,62.09-2.48-12-20.49-13.25-22.77-13.25-27.11,0-8.9,10.14-12,15.52-12,3.1,0,7.86,1.24,10.56,6,4.55,7.66,11.18,20.7,15.52,28.56,9.11-1.86,22.15-4.55,38.29-10.56,10.56-3.93,11.59-4.35,14.28-4.35,8.28,0,12,8.69,12,15.11,0,8.07-5.79,10.35-9.93,12-8.49,3.1-20.9,6.83-40.36,11.18,17.18,25.04,18.21,26.49,33.32,45.12ZM995.14,255.11c19.04,0,33.32-2.28,39.12-3.31,7.87-1.24,8.69-1.45,11.18-1.45,7.24,0,11.38,5.38,11.38,13.04,0,9.11-6.21,11.59-8.49,12.42-6.83,2.48-28.36,5.17-52.36,5.17-26.08,0-49.47-3.31-65.61-16.76-10.14-8.49-15.94-20.28-15.94-32.91,0-10.97,5.79-28.77,17.59-28.77,7.45,0,14.49,5.17,14.49,11.38,0,1.45-.21,2.9-1.45,4.97-1.86,4.14-3.31,6.83-3.31,11.8,0,24.42,43.46,24.42,53.4,24.42Z"/>
    <path d="M1200.47,170.46c19.66,0,29.39,14.07,29.39,29.18,0,6.62-4.55,36.22-4.55,42.22,0,3.73.62,11.38,10.35,11.38,14.49,0,22.56-15.94,26.7-24.63,6.21-12.62,7.24-14.49,13.87-14.49,5.17,0,14.07,3.1,14.07,12.83,0,6.83-17.39,52.36-57.12,52.36-8.49,0-34.77-2.28-34.77-34.36,0-6.62,4.55-34.98,4.55-40.77,0-8.69-7.24-8.69-8.9-8.69-27.53,0-43.67,31.46-48.84,41.19-2.69,5.38-16.14,33.53-16.97,34.77-2.07,2.9-4.55,4.55-8.69,4.55-7.24,0-14.7-5.79-14.7-12.62,0-4.14.83-5.38,6.42-16.35,10.76-21.11,63.54-127.7,66.44-133.29,3.52-6.62,6.42-12.21,14.07-12.21,5.38,0,14.49,3.73,14.49,11.59,0,3.52-.41,3.93-7.66,17.39-3.1,5.59-12,22.15-26.49,51.33,4.97-3.93,13.87-11.38,28.35-11.38Z"/>
  </g>
  <rect class="cls-1" x="908.24" y="14.55" width="13.83" height="41.23" rx="3" ry="3" transform="translate(353.84 -688.49) rotate(50)"/>
  <rect class="cls-1" x="922.94" y="47.03" width="13.83" height="41.23" rx="3" ry="3" transform="translate(997.51 -862.21) rotate(90)"/>
  <rect class="cls-1" x="873.89" y="1.5" width="13.83" height="41.23" rx="3" ry="3" transform="translate(1761.62 44.23) rotate(-180)"/>
  <path class="cls-1" d="M879.5,54.83h-98.74c-5.02,0-9.09,4.07-9.09,9.09v9.27c.07,0,.14-.02.21-.02h94.4c1.7,0,3.08,1.38,3.08,3.08v79.52h10.13c5.02,0,9.09-4.07,9.09-9.09V63.92c0-5.02-4.07-9.09-9.09-9.09Z"/>
  <path class="cls-1" d="M421.11,324.79h98.74c5.02,0,9.09-4.07,9.09-9.09v-9.27c-.07,0-.14.02-.21.02h-94.4c-1.7,0-3.08-1.38-3.08-3.08v-79.52h-10.13c-5.02,0-9.09,4.07-9.09,9.09v82.76c0,5.02,4.07,9.09,9.09,9.09Z"/>
</svg>