<svg xmlns="http://www.w3.org/2000/svg" xmlns:xlink="http://www.w3.org/1999/xlink" width="204.14" height="176.531" viewBox="0 0 204.14 176.531"><defs><clipPath id="a"><rect width="31.283" height="91.511" fill="none"/></clipPath><clipPath id="b"><rect width="50.563" height="96.613" fill="none"/></clipPath></defs><g transform="translate(-34.57 -75.52)"><g transform="translate(61.679 76.835)"><path d="M185.5,235.341s34.347-8.326,55.608-26.958,27.973-46.388,15.463-70.191S208.14,110.61,182.433,92.287s-58.952-21.638-80.7,3.242-3.745,38.981-9.249,71.39S105.438,251.635,185.5,235.341Z" transform="translate(-90.673 -77.706)" fill="#ebe3de"/><path d="M185.5,235.341s34.347-8.326,55.608-26.958,27.973-46.388,15.463-70.191S208.14,110.61,182.433,92.287s-58.952-21.638-80.7,3.242-3.745,38.981-9.249,71.39S105.438,251.635,185.5,235.341Z" transform="translate(-90.673 -77.706)" fill="#fff" opacity="0.7"/></g><g transform="translate(34.57 160.244)"><g transform="translate(0 0)" clip-path="url(#a)"><path d="M103.922,285.949c.029,0,.532-1.933.551-2.073.2-1.45-.266-4.436-1.764-5.161a1.972,1.972,0,0,0-2.682,1.189,4.111,4.111,0,0,0,.71,3.383A14.207,14.207,0,0,0,103.922,285.949Z" transform="translate(-68.324 -264.905)" fill="#ebe3de"/><path d="M82.888,268.262c-1.657-.174-3.619,2.092-4.228,3.45-.048.116-.657,2.049-.628,2.044h.039c-.314.358-.647.744-1,1.169-.648.8-1.372,1.7-2.092,2.74a34.405,34.405,0,0,0-2.17,3.455,25.319,25.319,0,0,0-1.856,4.175v.053c0-.483,0-1.851-.029-1.957-.188-1.474-1.45-4.209-3.064-4.513a1.967,1.967,0,0,0-2.271,1.856,4.122,4.122,0,0,0,1.58,3.083,13.758,13.758,0,0,0,3.735,1.706,34.336,34.336,0,0,0-1.111,4.484c-.159.889-.29,1.788-.411,2.7v-.85c-.188-1.474-1.45-4.214-3.064-4.513a1.967,1.967,0,0,0-2.271,1.851,4.114,4.114,0,0,0,1.58,3.083,13.331,13.331,0,0,0,3.619,1.672l-.13,1.044c-.2,1.667-.391,3.339-.628,4.967-.082.575-.188,1.136-.29,1.7v-.739c-.193-1.474-1.45-4.209-3.064-4.513a1.967,1.967,0,0,0-2.271,1.855,4.122,4.122,0,0,0,1.58,3.083,12.173,12.173,0,0,0,3.513,1.633c-.121.575-.242,1.15-.382,1.7-.106.372-.184.739-.314,1.111s-.237.73-.353,1.092c-.251.686-.483,1.4-.763,2.063-.179.483-.358.9-.536,1.343.092-.57.246-1.691.246-1.788a7.664,7.664,0,0,0-1.024-3.721,2.194,2.194,0,0,0-.029-.435,1.967,1.967,0,0,0-2.416-1.672c-1.609.43-2.629,3.252-2.706,4.735,0,.087.053,1.044.1,1.648-.077-.353-.155-.691-.242-1.049-.169-.715-.358-1.421-.561-2.179-.106-.362-.217-.73-.333-1.1s-.256-.749-.387-1.126c-.319-.87-.681-1.74-1.068-2.6a13.03,13.03,0,0,0,3.711-1.392,4.1,4.1,0,0,0,1.8-2.957,1.967,1.967,0,0,0-2.126-2.015c-1.653.179-3.093,2.812-3.382,4.272,0,.092-.116,1.16-.159,1.744-.237-.517-.483-1.034-.725-1.551-.739-1.488-1.537-2.972-2.319-4.455l-.715-1.367a13.982,13.982,0,0,0,3.866-1.425,4.1,4.1,0,0,0,1.807-2.952,1.971,1.971,0,0,0-2.126-2.02c-1.657.179-3.093,2.817-3.382,4.272,0,.111-.164,1.648-.179,2.044-.522-1.005-1.029-2.01-1.493-3.02a33.832,33.832,0,0,1-1.624-4.2,13.132,13.132,0,0,0,3.866-1.426,4.117,4.117,0,0,0,1.8-2.957,1.967,1.967,0,0,0-2.126-2.015c-1.653.179-3.088,2.817-3.382,4.272,0,.1-.126,1.266-.164,1.826h-.092a24.851,24.851,0,0,1-.846-4.446c-.1-.826-.135-1.624-.159-2.416a13.716,13.716,0,0,0,3.9-.966,3.991,3.991,0,0,0,2.121-2.745,1.972,1.972,0,0,0-1.894-2.237c-1.662,0-3.382,2.46-3.837,3.866,0,.077-.193.884-.3,1.479v-1.049c0-1.256.082-2.416.164-3.431.048-.58.1-1.1.159-1.59a13.055,13.055,0,0,0,3-2.663,4.116,4.116,0,0,0,.619-3.411,1.971,1.971,0,0,0-2.711-1.111c-1.575.8-1.967,3.784-1.72,5.233,0,.13.58,2.073.6,2.054h.029c-.063.483-.126.966-.188,1.527-.1,1.02-.2,2.174-.232,3.436a34.74,34.74,0,0,0,.1,4.083,25.611,25.611,0,0,0,.754,4.5s0,.039,0,.053c-.266-.411-1.034-1.537-1.1-1.619-.966-1.121-3.513-2.72-5.045-2.073a1.967,1.967,0,0,0-.875,2.8,4.124,4.124,0,0,0,3.02,1.7,13.593,13.593,0,0,0,4.054-.638,35.054,35.054,0,0,0,1.58,4.378c.358.831.744,1.657,1.145,2.479-.237-.348-.454-.657-.483-.7-.966-1.121-3.513-2.721-5.045-2.073a1.976,1.976,0,0,0-.86,2.8,4.14,4.14,0,0,0,3.02,1.7,13.4,13.4,0,0,0,3.943-.6l.483.942c.754,1.5,1.517,3,2.218,4.494.246.522.483,1.049.7,1.575-.213-.309-.391-.565-.425-.6-.966-1.126-3.513-2.725-5.045-2.073a1.967,1.967,0,0,0-.87,2.8,4.155,4.155,0,0,0,3.02,1.7,12.2,12.2,0,0,0,3.832-.575c.217.541.43,1.092.614,1.628.121.372.256.72.358,1.1s.2.744.309,1.107c.169.715.348,1.45.483,2.145.106.483.2.966.295,1.416-.237-.527-.73-1.546-.783-1.628-.788-1.256-3.059-3.223-4.673-2.812a1.967,1.967,0,0,0-1.285,2.634,4.126,4.126,0,0,0,2.73,2.136,14.07,14.07,0,0,0,4.078,0c.155.773.3,1.527.42,2.237.44,2.474.705,4.547.875,6,.029.256.053.483.077.706H55.354L56.9,349.089H66l1.546-30.162H62.878l.106-.213c.638-1.339,1.527-3.252,2.489-5.6.3-.739.614-1.537.928-2.358a13.677,13.677,0,0,0,4.069.314,4.13,4.13,0,0,0,2.9-1.933,1.972,1.972,0,0,0-1.087-2.721c-1.58-.532-3.987,1.261-4.871,2.455-.053.072-.532.9-.826,1.45.126-.338.251-.662.377-1.01.251-.686.483-1.382.734-2.126.106-.362.217-.73.329-1.1s.2-.763.3-1.15c.213-.9.387-1.827.541-2.759a13,13,0,0,0,3.866.889,4.137,4.137,0,0,0,3.136-1.45,1.967,1.967,0,0,0-.662-2.856c-1.479-.763-4.131.643-5.185,1.691-.063.063-.734.9-1.1,1.367.092-.56.179-1.121.251-1.7.2-1.648.362-3.324.522-5l.159-1.532a13.844,13.844,0,0,0,4,.933,4.16,4.16,0,0,0,3.136-1.45,1.967,1.967,0,0,0-.662-2.856c-1.479-.763-4.131.643-5.185,1.691-.077.082-1.044,1.285-1.276,1.6.121-1.121.251-2.242.42-3.339a34.894,34.894,0,0,1,.966-4.4,14.45,14.45,0,0,0,4.015.966,4.159,4.159,0,0,0,3.136-1.45,1.967,1.967,0,0,0-.662-2.856c-1.479-.763-4.131.643-5.185,1.691-.068.072-.8.991-1.145,1.45l-.082-.044a24.872,24.872,0,0,1,1.744-4.175c.377-.744.783-1.45,1.189-2.087a13.25,13.25,0,0,0,3.8,1.334,4.058,4.058,0,0,0,3.281-1.111A1.976,1.976,0,0,0,81,276.6c-1.387-.923-4.18.188-5.315,1.111-.063.053-.652.633-1.073,1.068.188-.295.377-.6.565-.884.7-1.049,1.4-1.967,2.025-2.774.362-.454.7-.86,1.015-1.237a12.868,12.868,0,0,0,3.972-.565,4.161,4.161,0,0,0,2.416-2.5,1.972,1.972,0,0,0-1.72-2.551ZM64.564,312.717c-1,2.3-1.933,4.18-2.585,5.484-.13.261-.251.483-.362.71h-.13c-.034-.256-.068-.532-.111-.846-.2-1.45-.522-3.556-1.015-6.04-.155-.788-.333-1.624-.527-2.484a21.735,21.735,0,0,0,2.276-1.068,14.532,14.532,0,0,0,3.315,2.141C65.149,311.335,64.869,312.041,64.564,312.717Z" transform="translate(-38.567 -257.786)" fill="#ebe3de"/><path d="M44.37,287.277a14.092,14.092,0,0,0,4.122.454s-.628-1.933-.686-2.03c-.643-1.338-2.667-3.556-4.32-3.329a1.972,1.972,0,0,0-1.58,2.464A4.154,4.154,0,0,0,44.37,287.277Z" transform="translate(-38.325 -266.876)" fill="#ebe3de"/><path d="M44.37,287.277a14.092,14.092,0,0,0,4.122.454s-.628-1.933-.686-2.03c-.643-1.338-2.667-3.556-4.32-3.329a1.972,1.972,0,0,0-1.58,2.464A4.154,4.154,0,0,0,44.37,287.277Z" transform="translate(-38.325 -266.876)" fill="#fff" opacity="0.3"/><path d="M103.922,285.949c.029,0,.532-1.933.551-2.073.2-1.45-.266-4.436-1.764-5.161a1.972,1.972,0,0,0-2.682,1.189,4.111,4.111,0,0,0,.71,3.383A14.207,14.207,0,0,0,103.922,285.949Z" transform="translate(-68.324 -264.905)" fill="#fff" opacity="0.3"/><path d="M49.676,286.01a35.06,35.06,0,0,0,1.58,4.378c.358.831.744,1.657,1.145,2.479-.237-.348-.454-.657-.483-.7-.966-1.121-3.513-2.72-5.045-2.073a1.976,1.976,0,0,0-.879,2.812,4.14,4.14,0,0,0,3.02,1.7,13.4,13.4,0,0,0,3.943-.6l.483.942c.754,1.5,1.517,3,2.218,4.494.246.522.483,1.049.7,1.575-.213-.309-.391-.565-.425-.6-.966-1.126-3.513-2.725-5.045-2.073a1.967,1.967,0,0,0-.87,2.8,4.155,4.155,0,0,0,3.02,1.7,12.2,12.2,0,0,0,3.832-.575c.217.541.43,1.092.614,1.628.121.372.256.72.358,1.1s.2.744.309,1.107c.169.715.348,1.45.483,2.145.106.483.2.966.295,1.416-.237-.527-.73-1.546-.783-1.628-.788-1.256-3.059-3.223-4.673-2.812a1.967,1.967,0,0,0-1.285,2.634,4.126,4.126,0,0,0,2.73,2.136,14.07,14.07,0,0,0,4.078,0c.155.773.3,1.527.42,2.237.44,2.474.705,4.547.875,6,.029.256.053.483.077.706H55.354L56.9,349.089H66l1.546-30.162H62.878l.106-.213c.638-1.339,1.527-3.252,2.489-5.6.3-.739.614-1.537.928-2.358a13.677,13.677,0,0,0,4.069.314,4.13,4.13,0,0,0,2.9-1.933,1.972,1.972,0,0,0-1.087-2.721c-1.58-.532-3.987,1.261-4.871,2.455-.053.072-.532.9-.826,1.45.126-.338.251-.662.377-1.01.251-.686.483-1.382.734-2.126.106-.362.217-.73.329-1.1s.2-.763.3-1.15c.213-.9.387-1.827.541-2.759a13,13,0,0,0,3.866.889,4.137,4.137,0,0,0,3.136-1.45,1.967,1.967,0,0,0-.662-2.856c-1.479-.763-4.131.643-5.185,1.691-.063.063-.734.9-1.1,1.367.092-.56.179-1.121.251-1.7.2-1.648.362-3.324.522-5l.159-1.532a13.844,13.844,0,0,0,4,.933,4.16,4.16,0,0,0,3.136-1.45,1.967,1.967,0,0,0-.662-2.856c-1.479-.763-4.131.643-5.185,1.691-.077.082-1.044,1.285-1.276,1.6.121-1.121.251-2.242.42-3.339a34.894,34.894,0,0,1,.966-4.4,14.45,14.45,0,0,0,4.015.966,4.159,4.159,0,0,0,3.136-1.45,1.967,1.967,0,0,0-.662-2.856c-1.479-.763-4.131.643-5.185,1.691-.068.072-.8.991-1.145,1.45l-.082-.044a24.872,24.872,0,0,1,1.744-4.175c.377-.744.783-1.45,1.189-2.087a13.25,13.25,0,0,0,3.8,1.334,4.058,4.058,0,0,0,3.281-1.111A1.976,1.976,0,0,0,81,276.6c-1.387-.923-4.18.188-5.315,1.111-.063.053-.652.633-1.073,1.068.188-.295.377-.6.565-.884.7-1.049,1.4-1.967,2.025-2.774.362-.454.7-.86,1.015-1.237a12.868,12.868,0,0,0,3.972-.565,4.161,4.161,0,0,0,2.416-2.5A1.972,1.972,0,0,0,82.96,268.4c-1.657-.174-3.619,2.092-4.228,3.45-.048.116-.657,2.049-.628,2.044h.039c-.314.358-.647.744-1,1.169-.647.8-1.372,1.7-2.092,2.74a34.4,34.4,0,0,0-2.17,3.455,25.318,25.318,0,0,0-1.856,4.175v.053c0-.483,0-1.851-.029-1.957-.188-1.474-1.45-4.209-3.064-4.513a1.967,1.967,0,0,0-2.271,1.856,4.122,4.122,0,0,0,1.58,3.083,13.757,13.757,0,0,0,3.735,1.706,34.338,34.338,0,0,0-1.184,4.349c-.159.889-.29,1.788-.411,2.7v-.85c-.188-1.474-1.45-4.214-3.064-4.513a1.967,1.967,0,0,0-2.271,1.851,4.114,4.114,0,0,0,1.58,3.083,13.331,13.331,0,0,0,3.619,1.672l-.13,1.044c-.2,1.667-.391,3.339-.628,4.967-.082.575-.188,1.136-.29,1.7v-.739c-.193-1.474-1.45-4.209-3.064-4.513a1.967,1.967,0,0,0-2.271,1.855,4.122,4.122,0,0,0,1.58,3.083,12.173,12.173,0,0,0,3.513,1.633c-.121.575-.242,1.15-.382,1.7-.106.372-.184.739-.314,1.111s-.237.73-.353,1.092c-.251.686-.483,1.4-.763,2.063-.179.483-.358.9-.536,1.343.092-.57.246-1.691.246-1.788a7.664,7.664,0,0,0-1.024-3.721,2.194,2.194,0,0,0-.029-.435,1.967,1.967,0,0,0-2.416-1.672c-1.609.43-2.629,3.252-2.706,4.735,0,.087.053,1.044.1,1.648-.077-.353-.155-.691-.242-1.049-.169-.715-.358-1.421-.561-2.179-.106-.362-.217-.73-.333-1.1s-.256-.749-.387-1.126c-.319-.87-.681-1.74-1.068-2.6a13.03,13.03,0,0,0,3.711-1.392,4.1,4.1,0,0,0,1.8-2.957,1.967,1.967,0,0,0-2.126-2.015c-1.653.179-3.093,2.812-3.382,4.272,0,.092-.116,1.16-.159,1.744-.237-.517-.483-1.034-.725-1.551-.739-1.488-1.537-2.972-2.319-4.455l-.715-1.367a13.982,13.982,0,0,0,3.866-1.425,4.1,4.1,0,0,0,1.807-2.952,1.971,1.971,0,0,0-2.126-2.02c-1.657.179-3.093,2.817-3.382,4.272,0,.111-.164,1.648-.179,2.044-.522-1.005-1.029-2.01-1.493-3.02a33.832,33.832,0,0,1-1.624-4.2,13.132,13.132,0,0,0,3.866-1.426,4.117,4.117,0,0,0,1.8-2.957,1.967,1.967,0,0,0-2.126-2.015c-1.653.179-3.088,2.817-3.382,4.272,0,.1-.126,1.266-.164,1.826h-.092a24.851,24.851,0,0,1-.846-4.446c-.1-.826-.135-1.624-.159-2.416a13.716,13.716,0,0,0,3.9-.966,3.991,3.991,0,0,0,2.121-2.745,1.972,1.972,0,0,0-1.894-2.237c-1.662,0-3.382,2.46-3.837,3.866,0,.077-.193.884-.3,1.479v-1.049c0-1.256.082-2.416.164-3.431.048-.58.1-1.1.159-1.59a13.055,13.055,0,0,0,3-2.663,4.116,4.116,0,0,0,.619-3.411,1.971,1.971,0,0,0-2.711-1.111c-1.575.8-1.967,3.784-1.72,5.233,0,.13.58,2.073.6,2.054h.029c-.063.483-.126.966-.188,1.527-.1,1.02-.2,2.174-.232,3.436a34.74,34.74,0,0,0,.1,4.083,25.611,25.611,0,0,0,.754,4.5s0,.039,0,.053c-.266-.411-1.034-1.537-1.1-1.619-.966-1.121-3.513-2.72-5.045-2.073a1.967,1.967,0,0,0-.875,2.8,4.124,4.124,0,0,0,3.02,1.7A14.008,14.008,0,0,0,49.676,286.01Zm12.452,22.455a14.533,14.533,0,0,0,3.315,2.141c-.295.73-.59,1.45-.879,2.1-1,2.3-1.933,4.18-2.585,5.484-.13.261-.251.483-.362.71h-.13c-.034-.256-.068-.531-.111-.846-.2-1.45-.522-3.556-1.015-6.04-.155-.788-.333-1.624-.527-2.484A21.752,21.752,0,0,0,62.129,308.465Z" transform="translate(-38.567 -257.786)" fill="#fff" opacity="0.3"/></g></g><g transform="translate(52.811 140.374)"><path d="M104.824,208.7H254.233a5.561,5.561,0,0,1,5.554,5.554v98.488a.5.5,0,0,1-.5.5H99.77a.5.5,0,0,1-.5-.5V214.254A5.561,5.561,0,0,1,104.824,208.7ZM258.788,312.243V214.254a4.56,4.56,0,0,0-4.554-4.554H104.824a4.56,4.56,0,0,0-4.554,4.554v97.988Z" transform="translate(-86.506 -209.2)" fill="#263238"/><path d="M0-.5H146.573a.5.5,0,0,1,.5.5V82.832a.5.5,0,0,1-.5.5H0a.5.5,0,0,1-.5-.5V0A.5.5,0,0,1,0-.5ZM146.073.5H.5V82.332H146.073Z" transform="translate(19.734 8.089)" fill="#263238"/><rect width="109.626" height="5.402" transform="translate(38.575 98.556)" fill="#263238"/><path d="M0-.5H109.626a.5.5,0,0,1,.5.5V5.4a.5.5,0,0,1-.5.5H0a.5.5,0,0,1-.5-.5V0A.5.5,0,0,1,0-.5ZM109.126.5H.5V4.9H109.126Z" transform="translate(38.575 98.556)" fill="#263238"/><rect width="109.626" height="2.803" transform="translate(38.575 101.156)" fill="#fff"/><path d="M0-.5H109.626a.5.5,0,0,1,.5.5V2.8a.5.5,0,0,1-.5.5H0a.5.5,0,0,1-.5-.5V0A.5.5,0,0,1,0-.5ZM109.126.5H.5V2.3H109.126Z" transform="translate(38.575 101.156)" fill="#263238"/><path d="M73.07,431s1.8,2.2,7.2,4H251.916s4-1,5.8-3.8Z" transform="translate(-72.708 -323.824)" fill="#263238"/><path d="M73.07,430.5h0l184.645.2a.5.5,0,0,1,.42.77c-1.883,2.931-5.927,3.97-6.1,4.013a.5.5,0,0,1-.121.015H80.275a.5.5,0,0,1-.158-.026c-5.477-1.822-7.356-4.064-7.434-4.159a.5.5,0,0,1,.387-.817ZM256.7,431.7l-182.332-.2a20.3,20.3,0,0,0,5.987,3H251.851A11.211,11.211,0,0,0,256.7,431.7Z" transform="translate(-72.708 -323.824)" fill="#263238"/><rect width="185.399" height="4.204" rx="1.89" transform="translate(0 103.219)" fill="#fff"/><path d="M1.89-.5H183.509a2.393,2.393,0,0,1,2.39,2.39v.424a2.393,2.393,0,0,1-2.39,2.39H1.89A2.393,2.393,0,0,1-.5,2.314V1.89A2.393,2.393,0,0,1,1.89-.5ZM183.509,3.7a1.392,1.392,0,0,0,1.39-1.39V1.89A1.392,1.392,0,0,0,183.509.5H1.89A1.392,1.392,0,0,0,.5,1.89v.424A1.392,1.392,0,0,0,1.89,3.7Z" transform="translate(0 103.219)" fill="#263238"/><path d="M264.653,214.181a1.4,1.4,0,1,0-.407.991A1.4,1.4,0,0,0,264.653,214.181Z" transform="translate(-170.267 -211.05)" fill="#fff"/><path d="M263.251,216.083a1.9,1.9,0,1,1,1.348-.558,1.9,1.9,0,0,1-1.348.558Z" transform="translate(-170.267 -211.05)" fill="#263238"/><path d="M102.451,256.25h0a.4.4,0,0,1-.4-.4v-11.6a.4.4,0,0,1,.4-.4h0a.4.4,0,0,1,.4.4v11.6A.4.4,0,0,1,102.451,256.25Z" transform="translate(-87.684 -227.112)" fill="#263238"/><path d="M102.451,256.6a.75.75,0,0,1-.747-.738v-11.6a.747.747,0,0,1,1.494,0v11.6A.75.75,0,0,1,102.451,256.6Zm0-12.39a.055.055,0,0,0-.055.055v11.593a.055.055,0,0,0,.055.05h0a.055.055,0,0,0,.055-.055V244.256A.055.055,0,0,0,102.451,244.206Z" transform="translate(-87.684 -227.112)" fill="#fff"/><path d="M0,83.3a.5.5,0,0,1-.5-.5V0A.5.5,0,0,1,0-.5.5.5,0,0,1,.5,0V82.8A.5.5,0,0,1,0,83.3Z" transform="translate(126.505 8.089)" fill="#263238"/><path d="M0,83.3a.5.5,0,0,1-.5-.5V0A.5.5,0,0,1,0-.5.5.5,0,0,1,.5,0V82.8A.5.5,0,0,1,0,83.3Z" transform="translate(128.559 8.089)" fill="#263238"/><path d="M106.688.5H0A.5.5,0,0,1-.5,0,.5.5,0,0,1,0-.5H106.688a.5.5,0,0,1,.5.5A.5.5,0,0,1,106.688.5Z" transform="translate(19.817 85.422)" fill="#263238"/><path d="M36.086.5H0A.5.5,0,0,1-.5,0,.5.5,0,0,1,0-.5H36.086a.5.5,0,0,1,.5.5A.5.5,0,0,1,36.086.5Z" transform="translate(24.518 75.11)" fill="#263238"/><path d="M36.086.5H0A.5.5,0,0,1-.5,0,.5.5,0,0,1,0-.5H36.086a.5.5,0,0,1,.5.5A.5.5,0,0,1,36.086.5Z" transform="translate(24.518 71.675)" fill="#263238"/><path d="M36.086.5H0A.5.5,0,0,1-.5,0,.5.5,0,0,1,0-.5H36.086a.5.5,0,0,1,.5.5A.5.5,0,0,1,36.086.5Z" transform="translate(24.518 68.239)" fill="#263238"/><path d="M36.086.5H0A.5.5,0,0,1-.5,0,.5.5,0,0,1,0-.5H36.086a.5.5,0,0,1,.5.5A.5.5,0,0,1,36.086.5Z" transform="translate(24.518 64.804)" fill="#263238"/><path d="M36.086.5H0A.5.5,0,0,1-.5,0,.5.5,0,0,1,0-.5H36.086a.5.5,0,0,1,.5.5A.5.5,0,0,1,36.086.5Z" transform="translate(24.518 61.363)" fill="#263238"/><path d="M36.086.5H0A.5.5,0,0,1-.5,0,.5.5,0,0,1,0-.5H36.086a.5.5,0,0,1,.5.5A.5.5,0,0,1,36.086.5Z" transform="translate(24.518 51.341)" fill="#263238"/><path d="M36.086.5H0A.5.5,0,0,1-.5,0,.5.5,0,0,1,0-.5H36.086a.5.5,0,0,1,.5.5A.5.5,0,0,1,36.086.5Z" transform="translate(24.518 47.906)" fill="#263238"/><path d="M36.086.5H0A.5.5,0,0,1-.5,0,.5.5,0,0,1,0-.5H36.086a.5.5,0,0,1,.5.5A.5.5,0,0,1,36.086.5Z" transform="translate(24.518 44.47)" fill="#263238"/><path d="M36.086.5H0A.5.5,0,0,1-.5,0,.5.5,0,0,1,0-.5H36.086a.5.5,0,0,1,.5.5A.5.5,0,0,1,36.086.5Z" transform="translate(24.518 41.034)" fill="#263238"/><path d="M36.086.5H0A.5.5,0,0,1-.5,0,.5.5,0,0,1,0-.5H36.086a.5.5,0,0,1,.5.5A.5.5,0,0,1,36.086.5Z" transform="translate(24.518 37.594)" fill="#263238"/><path d="M369.96,242.18a.483.483,0,0,0-.483.483l-.029.628h-7.8l-.459,10.935h14.98l.343-8.287.116-2.648.048-1.092Z" transform="translate(-221.605 -226.244)" fill="#ebe3de"/><path d="M369.96,241.68h0l6.717.019a.5.5,0,0,1,.5.522l-.164,3.74-.343,8.286a.5.5,0,0,1-.5.479H361.19a.5.5,0,0,1-.5-.521l.459-10.935a.5.5,0,0,1,.5-.479h7.322l.007-.142A.984.984,0,0,1,369.96,241.68Zm6.194,1.018-6.178-.018v.006l-.029.628a.5.5,0,0,1-.5.477h-7.32l-.417,9.935H375.69l.323-7.808Z" transform="translate(-221.605 -226.244)" fill="#263238"/><path d="M376.723,256.192l-.068-10.172H362.26l.116,10.051Z" transform="translate(-222.158 -228.228)" fill="#fff"/><path d="M376.723,256.692h0l-14.346-.121a.5.5,0,0,1-.5-.494l-.116-10.051a.5.5,0,0,1,.5-.506h14.395a.5.5,0,0,1,.5.5l.068,10.172a.5.5,0,0,1-.5.5Zm-13.852-1.117,13.349.112-.061-9.167H362.766Z" transform="translate(-222.158 -228.228)" fill="#263238"/><path d="M376.092,256.192l-.657-10.172H361.04l.116,10.051Z" transform="translate(-221.527 -228.228)" fill="#fff"/><path d="M376.092,256.692h0l-14.936-.121a.5.5,0,0,1-.5-.494l-.116-10.051a.5.5,0,0,1,.5-.506h14.395a.5.5,0,0,1,.5.468l.657,10.172a.5.5,0,0,1-.5.532Zm-14.442-1.117,13.908.113-.592-9.167h-13.42Z" transform="translate(-221.527 -228.228)" fill="#263238"/><path d="M359.05,255.856l-2-10.486h15.071l1.909,10.486Z" transform="translate(-219.465 -227.892)" fill="#ebe3de"/><path d="M374.03,256.356H359.05a.5.5,0,0,1-.491-.406l-2-10.486a.5.5,0,0,1,.491-.594h15.071a.5.5,0,0,1,.492.41l1.909,10.486a.5.5,0,0,1-.492.59Zm-14.566-1h13.967L371.7,245.87h-14.05Z" transform="translate(-219.465 -227.892)" fill="#263238"/><path d="M369.96,280.42a.483.483,0,0,0-.483.459l-.029.633h-7.8l-.459,10.935h14.98l.343-8.292.116-2.643.048-1.092Z" transform="translate(-221.605 -246.006)" fill="#ebe3de"/><path d="M369.96,279.92h6.717a.5.5,0,0,1,.5.522l-.164,3.735-.343,8.291a.5.5,0,0,1-.5.479H361.19a.5.5,0,0,1-.5-.521l.459-10.935a.5.5,0,0,1,.5-.479h7.321l.007-.156A.983.983,0,0,1,369.96,279.92Zm6.195,1h-6.179l-.028.615a.5.5,0,0,1-.5.477h-7.32l-.417,9.935H375.69l.323-7.813Z" transform="translate(-221.605 -246.006)" fill="#263238"/><path d="M376.723,294.432l-.068-10.172H362.26l.116,10.046Z" transform="translate(-222.158 -247.99)" fill="#fff"/><path d="M376.723,294.932h0l-14.346-.126a.5.5,0,0,1-.5-.494l-.116-10.046a.5.5,0,0,1,.5-.506h14.395a.5.5,0,0,1,.5.5l.068,10.172a.5.5,0,0,1-.5.5ZM362.87,293.81l13.349.117-.061-9.167H362.766Z" transform="translate(-222.158 -247.99)" fill="#263238"/><path d="M376.092,294.432l-.657-10.172H361.04l.116,10.046Z" transform="translate(-221.527 -247.99)" fill="#fff"/><path d="M376.092,294.932h0l-14.936-.126a.5.5,0,0,1-.5-.494l-.116-10.046a.5.5,0,0,1,.5-.506h14.395a.5.5,0,0,1,.5.468l.657,10.172a.5.5,0,0,1-.5.532ZM361.65,293.81l13.908.117-.592-9.167h-13.42Z" transform="translate(-221.527 -247.99)" fill="#263238"/><path d="M359.05,294.091l-2-10.491h15.071l1.909,10.491Z" transform="translate(-219.465 -247.649)" fill="#ebe3de"/><path d="M374.03,294.591H359.05a.5.5,0,0,1-.491-.406l-2-10.491a.5.5,0,0,1,.491-.594h15.071a.5.5,0,0,1,.492.41L374.522,294a.5.5,0,0,1-.492.59Zm-14.566-1h13.967L371.7,284.1h-14.05Z" transform="translate(-219.465 -247.649)" fill="#263238"/><path d="M369.96,318.65a.483.483,0,0,0-.483.483l-.029.628h-7.8L361.19,330.7h14.98l.343-8.287.116-2.648.048-1.092Z" transform="translate(-221.605 -265.762)" fill="#ebe3de"/><path d="M369.96,318.15h0l6.717.019a.5.5,0,0,1,.5.522l-.164,3.74-.343,8.286a.5.5,0,0,1-.5.479H361.19a.5.5,0,0,1-.5-.521l.459-10.935a.5.5,0,0,1,.5-.479h7.322l.007-.142A.984.984,0,0,1,369.96,318.15Zm6.194,1.018-6.178-.018v.006l-.029.628a.5.5,0,0,1-.5.477h-7.32l-.417,9.935H375.69l.323-7.808Z" transform="translate(-221.605 -265.762)" fill="#263238"/><path d="M376.723,332.662l-.068-10.172H362.26l.116,10.051Z" transform="translate(-222.158 -267.747)" fill="#fff"/><path d="M376.723,333.162h0l-14.346-.121a.5.5,0,0,1-.5-.494L361.76,322.5a.5.5,0,0,1,.5-.506h14.395a.5.5,0,0,1,.5.5l.068,10.172a.5.5,0,0,1-.5.5Zm-13.852-1.117,13.349.112-.061-9.167H362.766Z" transform="translate(-222.158 -267.747)" fill="#263238"/><path d="M376.092,332.662l-.657-10.172H361.04l.116,10.051Z" transform="translate(-221.527 -267.747)" fill="#fff"/><path d="M376.092,333.162h0l-14.936-.121a.5.5,0,0,1-.5-.494L360.54,322.5a.5.5,0,0,1,.5-.506h14.395a.5.5,0,0,1,.5.468l.657,10.172a.5.5,0,0,1-.5.532Zm-14.442-1.117,13.908.112-.592-9.167h-13.42Z" transform="translate(-221.527 -267.747)" fill="#263238"/><path d="M359.05,332.321l-2-10.491h15.071l1.909,10.491Z" transform="translate(-219.465 -267.406)" fill="#ebe3de"/><path d="M374.03,332.821H359.05a.5.5,0,0,1-.491-.406l-2-10.491a.5.5,0,0,1,.491-.594h15.071a.5.5,0,0,1,.492.41l1.909,10.491a.5.5,0,0,1-.492.59Zm-14.566-1h13.967L371.7,322.33h-14.05Z" transform="translate(-219.465 -267.406)" fill="#263238"/><path d="M369.96,356.89a.483.483,0,0,0-.483.459l-.029.633h-7.8l-.459,10.935h14.98l.343-8.292.116-2.643.048-1.092Z" transform="translate(-221.605 -285.524)" fill="#ebe3de"/><path d="M369.96,356.39h6.717a.5.5,0,0,1,.5.522l-.164,3.735-.343,8.291a.5.5,0,0,1-.5.479H361.19a.5.5,0,0,1-.5-.521l.459-10.935a.5.5,0,0,1,.5-.479h7.321l.007-.156A.983.983,0,0,1,369.96,356.39Zm6.195,1h-6.179l-.028.615a.5.5,0,0,1-.5.477h-7.32l-.417,9.935H375.69l.323-7.813Z" transform="translate(-221.605 -285.524)" fill="#263238"/><path d="M376.723,370.9l-.068-10.172H362.26l.116,10.046Z" transform="translate(-222.158 -287.509)" fill="#fff"/><path d="M376.723,371.4h0l-14.346-.126a.5.5,0,0,1-.5-.494l-.116-10.046a.5.5,0,0,1,.5-.506h14.395a.5.5,0,0,1,.5.5l.068,10.172a.5.5,0,0,1-.5.5ZM362.87,370.28l13.349.117-.061-9.167H362.766Z" transform="translate(-222.158 -287.509)" fill="#263238"/><path d="M376.092,370.9l-.657-10.172H361.04l.116,10.046Z" transform="translate(-221.527 -287.509)" fill="#fff"/><path d="M376.092,371.4h0l-14.936-.126a.5.5,0,0,1-.5-.494l-.116-10.046a.5.5,0,0,1,.5-.506h14.395a.5.5,0,0,1,.5.468l.657,10.172a.5.5,0,0,1-.5.532ZM361.65,370.28l13.908.117-.592-9.167h-13.42Z" transform="translate(-221.527 -287.509)" fill="#263238"/><path d="M359.05,370.56l-2-10.49h15.071l1.909,10.49Z" transform="translate(-219.465 -287.168)" fill="#ebe3de"/><path d="M374.03,371.06H359.05a.5.5,0,0,1-.491-.406l-2-10.49a.5.5,0,0,1,.491-.594h15.071a.5.5,0,0,1,.492.41l1.909,10.49a.5.5,0,0,1-.492.59Zm-14.566-1h13.967l-1.727-9.49h-14.05Z" transform="translate(-219.465 -287.168)" fill="#263238"/></g><g transform="translate(123.771 146.806)"><g transform="translate(0 0)" clip-path="url(#b)"><path d="M294.22,417.13a5.74,5.74,0,0,1,1.024,3.223c-.1,1.662,4.011,3.474,5.137,2.788a2.7,2.7,0,0,0,.483-3.716,35.955,35.955,0,0,0-2.493-2.9c-.246-.295-.246-.536-1.029-.536S294.515,415.956,294.22,417.13Z" transform="translate(-257.955 -322.498)" fill="#263238"/><path d="M297.2,415.49h.139a1.34,1.34,0,0,1,1.322.595c.027.039.053.075.081.109a36.6,36.6,0,0,1,2.515,2.926l.011.015a3.463,3.463,0,0,1,.539,2.663,2.64,2.64,0,0,1-1.169,1.769,1.79,1.79,0,0,1-.939.222,6.9,6.9,0,0,1-4.275-1.92,2.108,2.108,0,0,1-.682-1.527,5.22,5.22,0,0,0-.935-2.927.5.5,0,0,1-.074-.407C294.116,415.49,296.359,415.49,297.2,415.49Zm3.259,4.233a35.6,35.6,0,0,0-2.453-2.851l-.022-.025c-.057-.068-.1-.132-.139-.184-.059-.084-.081-.111-.1-.122a.967.967,0,0,0-.4-.051H297.2c-1.342,0-2.154.2-2.419.587a6.213,6.213,0,0,1,.96,3.272c0,.011,0,.022,0,.033a1.209,1.209,0,0,0,.411.8,6.025,6.025,0,0,0,3.548,1.606.827.827,0,0,0,.419-.076,1.656,1.656,0,0,0,.71-1.117A2.483,2.483,0,0,0,300.462,419.723Z" transform="translate(-257.955 -322.498)" fill="#263238"/><path d="M301.51,421.735a4.413,4.413,0,0,1-.121,1.232c-.246.879-.483.928-.483.928l-.44-.686-.928.246-.048.879a4.465,4.465,0,0,1-1.566-.193,2.9,2.9,0,0,1-1.812-2.005,7.425,7.425,0,0,0-1.073-2.416,5.141,5.141,0,0,1,.633,2.561c-.1,1.662,4.011,3.474,5.137,2.788A2.657,2.657,0,0,0,301.51,421.735Z" transform="translate(-258.379 -324.426)" fill="#fff"/><path d="M295.04,419.22a.5.5,0,0,1,.414.219,7.9,7.9,0,0,1,1.145,2.579q0,.017.007.035a2.305,2.305,0,0,0,1.5,1.62,3.959,3.959,0,0,0,.914.162l.022-.407a.5.5,0,0,1,.371-.456l.928-.246a.5.5,0,0,1,.542.2q.013-.042.025-.087a3.91,3.91,0,0,0,.105-1.084.5.5,0,0,1,.95-.239,3.556,3.556,0,0,1,.277,2.185,2.636,2.636,0,0,1-1.168,1.793,1.79,1.79,0,0,1-.939.222,6.9,6.9,0,0,1-4.276-1.92,2.1,2.1,0,0,1-.682-1.535,4.649,4.649,0,0,0-.572-2.3.5.5,0,0,1,.438-.741Zm5.806,5.171a.5.5,0,0,1-.361-.227l-.243-.379-.224.06-.028.517a.5.5,0,0,1-.156.336,2.465,2.465,0,0,0,.3.02.827.827,0,0,0,.419-.076A1.3,1.3,0,0,0,300.846,424.391Z" transform="translate(-258.379 -324.426)" fill="#263238"/><path d="M265.839,415.386a17.065,17.065,0,0,1-2.933,2.054c-1.561.831-3.383.483-3.614,1.271s1.024,1.512,3.866,1.9,3.324-.295,4.547-.734,3.382-.1,3.866-.44.048-1.662-.145-2.9a13.818,13.818,0,0,0-.295-1.561,4.832,4.832,0,0,1-2.74.44,10,10,0,0,0-2.551-.034Z" transform="translate(-239.89 -321.976)" fill="#263238"/><path d="M271.13,414.48a.5.5,0,0,1,.477.35,13.9,13.9,0,0,1,.312,1.633c.044.283.1.576.159.86.222,1.113.414,2.075-.219,2.524a3.466,3.466,0,0,1-1.81.274,7.574,7.574,0,0,0-2.175.229c-.24.086-.45.183-.671.286a5.288,5.288,0,0,1-2.549.595,11.494,11.494,0,0,1-1.565-.121c-2.264-.312-3.653-.844-4.13-1.581a1.133,1.133,0,0,1-.147-.959c.212-.721,1.006-.854,1.847-.995a6.458,6.458,0,0,0,2.008-.574,16.6,16.6,0,0,0,2.844-1.992.5.5,0,0,1,.271-.119,10.5,10.5,0,0,1,2.679.035,4.332,4.332,0,0,0,2.452-.395A.5.5,0,0,1,271.13,414.48Zm.137,4.556a4.908,4.908,0,0,0-.169-1.517c-.059-.294-.119-.6-.167-.9-.065-.416-.119-.725-.162-.949a5.372,5.372,0,0,1-2.445.247,9.528,9.528,0,0,0-2.277-.049,17.6,17.6,0,0,1-2.9,2.011l-.007,0a7.353,7.353,0,0,1-2.317.68,5.531,5.531,0,0,0-.871.187c-.139.051-.179.093-.182.1a.14.14,0,0,0,.028.134c.078.121.612.746,3.426,1.133a10.512,10.512,0,0,0,1.428.112,4.33,4.33,0,0,0,2.129-.5c.232-.107.471-.218.753-.319a8.2,8.2,0,0,1,2.5-.288A6.33,6.33,0,0,0,271.267,419.036Z" transform="translate(-239.89 -321.976)" fill="#263238"/><path d="M267.7,422.841c1.223-.44,3.382-.1,3.866-.44.329-.227.237-.9.082-1.691a6.816,6.816,0,0,1-1.6.763,36.622,36.622,0,0,0-3.866,1.126,5.828,5.828,0,0,1-4.4-.246c-1.223-.483-.734-.44-.589-.928a.527.527,0,0,0-.072-.483c-.928.169-1.682.222-1.831.71-.246.778,1.024,1.512,3.866,1.9S266.473,423.266,267.7,422.841Z" transform="translate(-239.887 -324.937)" fill="#fff"/><path d="M264.658,424.173h0a11.551,11.551,0,0,1-1.572-.122c-2.278-.314-3.672-.851-4.142-1.6a1.111,1.111,0,0,1-.132-.954c.218-.711,1.011-.845,1.85-.987.119-.02.242-.041.369-.064a.5.5,0,0,1,.493.2,1.027,1.027,0,0,1,.145.931,1.326,1.326,0,0,1-.061.162c.086.038.2.087.358.149l.031.013a5.328,5.328,0,0,0,4.02.225,37.243,37.243,0,0,1,3.894-1.135,6.319,6.319,0,0,0,1.462-.7.5.5,0,0,1,.763.323c.146.742.345,1.758-.286,2.2a3.487,3.487,0,0,1-1.807.272,7.572,7.572,0,0,0-2.175.229l0,0c-.244.085-.456.181-.68.282A5.323,5.323,0,0,1,264.658,424.173Zm-4.094-2.627c-.351.064-.768.154-.8.253a.121.121,0,0,0,.022.123c.053.084.319.407,1.4.728-.4-.177-.608-.331-.689-.586A.64.64,0,0,1,260.564,421.546Zm10.7-.041a7.319,7.319,0,0,1-1.067.444l-.042.012q-.27.063-.539.13l.407-.007a6.249,6.249,0,0,0,1.236-.087A1.2,1.2,0,0,0,271.266,421.505Z" transform="translate(-239.887 -324.937)" fill="#263238"/><path d="M266.742,314.55s-.343,3.276-.343,10.462a136.61,136.61,0,0,0,.928,16.333c.391,2.981.483,3.03.536,3.421s1.86,11.486,1.86,12.172v.928s-.966.966-.638,1.86a11.18,11.18,0,0,1,.783,2.735c-.15.048-.681.295-.681.734v.44a4.137,4.137,0,0,0,2.44,1.319c1.711.343,2.252.59,2.692-.048a7.466,7.466,0,0,0,1.223-2.493c.193-.928.44-1.367-.15-2.3a3.41,3.41,0,0,1-.783-1.812c0-.488.686-8.6.246-11.389a47.72,47.72,0,0,1-.831-6.055c0-1.45.44-14.081.44-14.081s2.493,15.593,2.788,18.966,1.223,11.93,1.121,12.467-.831,1.368-.483,2.247a11.657,11.657,0,0,0,1.314,2.146.594.594,0,0,0-.145.73c.2.483.589,1.319.783,1.372s4.156-.59,4.156-.59,1.416-2.445.966-3.716-.879-1.856-.879-2a32.5,32.5,0,0,0,.483-3.962c.048-1.759-1.561-19.111-1.561-19.111s-.686-15.695-.686-15.84-.145-2.643-.145-2.643-5.185,3.426-9.63,1.957S266.742,314.55,266.742,314.55Z" transform="translate(-243.577 -270.075)" fill="#ebe3de"/><path d="M266.743,314.05a.5.5,0,0,1,.448.279h0a6.227,6.227,0,0,0,1.175,1.477,11.215,11.215,0,0,0,4.337,2.522,7.113,7.113,0,0,0,2.234.341,14.687,14.687,0,0,0,6.964-2.24.5.5,0,0,1,.775.388c.034.58.142,2.466.146,2.664.006.251.451,10.446.685,15.814.081.868,1.61,17.4,1.562,19.159,0,.005,0,.011,0,.016a33.122,33.122,0,0,1-.467,3.892c.024.048.057.111.087.17a12.446,12.446,0,0,1,.748,1.7c.512,1.447-.848,3.862-1.005,4.133a.5.5,0,0,1-.353.243c-.617.1-3.718.6-4.2.6a.648.648,0,0,1-.173-.021c-.169-.046-.483-.133-1.105-1.647a1.088,1.088,0,0,1-.018-.929,12.182,12.182,0,0,1-1.148-1.94l-.013-.03a2.518,2.518,0,0,1,.273-2.072,2.722,2.722,0,0,0,.182-.442c.037-.482-.374-4.631-.675-7.665-.18-1.818-.351-3.536-.45-4.675-.181-2.073-1.214-8.89-1.969-13.748-.122,3.654-.261,8.013-.261,8.819a26.226,26.226,0,0,0,.5,3.99c.1.592.213,1.262.327,1.987.367,2.325-.018,8.068-.182,10.521-.031.468-.058.872-.058.946,0,.345.145.663.7,1.544a2.51,2.51,0,0,1,.3,2.289c-.028.119-.057.243-.085.376q0,.016-.007.031a7.934,7.934,0,0,1-1.3,2.653,1.313,1.313,0,0,1-1.162.6,6.985,6.985,0,0,1-1.341-.212c-.2-.043-.431-.092-.683-.143a4.649,4.649,0,0,1-2.724-1.477.5.5,0,0,1-.129-.335v-.44a1.251,1.251,0,0,1,.661-1.037c-.109-.448-.407-1.376-.732-2.26a2.393,2.393,0,0,1,.607-2.224v-.737c-.007-.535-1.155-7.712-1.588-10.413-.172-1.078-.256-1.6-.268-1.691s-.025-.15-.048-.258c-.069-.329-.2-.94-.489-3.165V341.4a137.629,137.629,0,0,1-.931-16.392c0-7.127.342-10.479.346-10.512a.5.5,0,0,1,.5-.448Zm8.194,5.618a8.109,8.109,0,0,1-2.548-.391,11.671,11.671,0,0,1-5.253-3.313c-.1,1.579-.236,4.553-.236,9.047a136.636,136.636,0,0,0,.924,16.271c.287,2.185.41,2.772.476,3.087.024.117.044.209.06.329.011.083.123.783.265,1.668.96,6,1.6,10.1,1.6,10.571v.928a.5.5,0,0,1-.146.354c-.191.193-.7.855-.522,1.334.152.414.379,1.062.558,1.64.329,1.06.318,1.271.22,1.472a.521.521,0,0,1-.311.271c-.132.043-.335.189-.335.259v.241a3.648,3.648,0,0,0,2.017,1.024l.022,0c.262.053.5.1.706.148a6.628,6.628,0,0,0,1.131.19.331.331,0,0,0,.344-.179l.011-.016a6.937,6.937,0,0,0,1.137-2.312c.029-.14.06-.27.087-.385a1.552,1.552,0,0,0-.173-1.524,3.843,3.843,0,0,1-.861-2.08c0-.1.019-.385.061-1.013.148-2.211.541-8.084.192-10.3-.114-.72-.226-1.388-.325-1.977a26.741,26.741,0,0,1-.512-4.156c0-1.442.422-13.582.44-14.1a.5.5,0,0,1,.993-.062c.1.637,2.5,15.649,2.792,19,.1,1.133.269,2.848.449,4.664.55,5.545.733,7.578.665,7.94a3.008,3.008,0,0,1-.261.692,1.691,1.691,0,0,0-.253,1.265,11.179,11.179,0,0,0,1.25,2.037.5.5,0,0,1-.074.689.094.094,0,0,0-.023.116q.011.02.019.041a7.434,7.434,0,0,0,.517,1.054c.539-.054,2.149-.3,3.64-.536.486-.905,1.065-2.386.814-3.094a11.537,11.537,0,0,0-.693-1.577,1.291,1.291,0,0,1-.215-.591.5.5,0,0,1,.008-.091,32.122,32.122,0,0,0,.475-3.893c.042-1.752-1.543-18.87-1.559-19.043,0-.008,0-.016,0-.024-.115-2.623-.687-15.713-.687-15.862,0-.094-.05-.964-.1-1.792A14.873,14.873,0,0,1,274.937,319.668Z" transform="translate(-243.577 -270.075)" fill="#263238"/><path d="M.585,2.356a.5.5,0,0,1-.477-.35L-.477.15A.5.5,0,0,1-.15-.477.5.5,0,0,1,.477-.15l.585,1.856a.5.5,0,0,1-.477.65Z" transform="translate(30.302 54.84)" fill="#263238"/><path d="M2.1,1.771A.5.5,0,0,1,1.843,1.7L-.259.428A.5.5,0,0,1-.428-.259.5.5,0,0,1,.259-.428L2.361.843a.5.5,0,0,1-.259.928Z" transform="translate(28.93 54.057)" fill="#263238"/><path d="M252.664,250.832s-3.561-.517-4.127-.14-2.576,3.513-3.561,4.832-7.6,6.9-7.6,6.9l-5.774-11.114a16.71,16.71,0,0,0,.372-2.532c0-.841-.42-1.358-.42-2.155s.377-1.971.188-2.252-.705.048-1.034.609a5.788,5.788,0,0,0-.28,2.112s-2.938-3.624-3.189-4.078c-.068-.126-.561-.1-.561.28a36.141,36.141,0,0,0,1.827,3.8s-.188.28-.372.28-2.769-3.093-2.9-3.141-.561.048-.329.561,2.2,3.146,2.2,3.146a5.8,5.8,0,0,0-1.126.14.411.411,0,0,0-.044.657,2.039,2.039,0,0,0,.561.372s.048.285.092.754a1.706,1.706,0,0,0,.657,1.5,5.234,5.234,0,0,0,1.643,1.034c.232.043,5.257,14.786,6.055,16.1s1.174,1.358,2.063,1.121,9.65-6.828,9.65-6.828-.372,12.051-.8,12.9-.889.846-.889,1.406a9.071,9.071,0,0,0,.188,1.45,9.051,9.051,0,0,0,7.127,4.078c4.784.14,9.142-1.783,9.142-2.672a6.2,6.2,0,0,0-.329-1.643c0-.184.565-1.078.483-1.638s-.42-.706-.329-1.546,4.127-12.9,4.315-16.6.232-3.986-.657-4.639-4.175-1.223-4.175-1.223l-5.533-1.406-2.2-.188Z" transform="translate(-222.1 -233.069)" fill="#d9d9d9"/><path d="M227.065,242.441a.678.678,0,0,1,.615.325h0c.121.218,1.171,1.557,2.312,2.979a2.876,2.876,0,0,1,.288-1.023,1.744,1.744,0,0,1,1.271-.958.723.723,0,0,1,.609.323c.219.325.137.808.024,1.476a7.084,7.084,0,0,0-.127,1.055,2.9,2.9,0,0,0,.183.9,3.986,3.986,0,0,1,.237,1.257q0,.017,0,.035a17.27,17.27,0,0,1-.344,2.428l5.4,10.4a92.82,92.82,0,0,0,7.041-6.408c.322-.432.76-1.066,1.223-1.737a17.867,17.867,0,0,1,2.462-3.212,2.312,2.312,0,0,1,1.247-.222h0a28.205,28.205,0,0,1,3.229.283.5.5,0,0,1,.2.075l.238.154,2.079.178a.5.5,0,0,1,.081.014l5.514,1.4c.429.075,3.426.619,4.366,1.309a1.942,1.942,0,0,1,.924,1.451,20.511,20.511,0,0,1-.047,3.286l-.017.331c-.136,2.676-2.2,9.49-3.428,13.561-.443,1.465-.862,2.85-.89,3.072a1.254,1.254,0,0,0,.126.778,2.355,2.355,0,0,1,.2.641,3.013,3.013,0,0,1-.379,1.535c-.024.053-.052.117-.074.169a6.7,6.7,0,0,1,.3,1.619c0,.01,0,.021,0,.031,0,.4-.306.8-.935,1.2a9.922,9.922,0,0,1-2,.932,19.026,19.026,0,0,1-6.208,1.047c-.171,0-.344,0-.513-.007a9.12,9.12,0,0,1-5.666-2.21,9.337,9.337,0,0,1-1.876-2.113.5.5,0,0,1-.059-.151,9.6,9.6,0,0,1-.2-1.53c0-.008,0-.016,0-.024a1.314,1.314,0,0,1,.468-.987,2.341,2.341,0,0,0,.471-.636c.236-.625.534-6.278.714-11.656-.85.634-2.241,1.668-3.664,2.705-4.678,3.41-5.131,3.53-5.324,3.582a3.086,3.086,0,0,1-.779.128c-.792,0-1.274-.54-1.84-1.473-.432-.712-1.807-4.506-3.7-9.787-.933-2.6-1.981-5.521-2.274-6.176a5.708,5.708,0,0,1-1.618-1.05,2.2,2.2,0,0,1-.835-1.875c-.017-.176-.034-.322-.048-.433a2.535,2.535,0,0,1-.436-.325.911.911,0,0,1,.106-1.449.5.5,0,0,1,.162-.068q.154-.035.31-.062a27.86,27.86,0,0,1-1.733-2.53.915.915,0,0,1,.013-.91.832.832,0,0,1,.7-.368.71.71,0,0,1,.247.042c.162.06.172.064,1.263,1.307.157.179.344.393.536.61l-.06-.119c-.967-1.911-.967-2.108-.967-2.266A.849.849,0,0,1,227.065,242.441Zm3.366,5.145a.5.5,0,0,1-.388-.185c-.316-.39-1.442-1.782-2.283-2.861.335.681.771,1.527,1.19,2.31a.5.5,0,0,1-.026.514,1.056,1.056,0,0,1-.787.5c-.265,0-.433-.154-1.036-.814l-.1-.111c.179.243.353.479.512.691a.5.5,0,0,1-.387.8,5.313,5.313,0,0,0-.682.062,1.538,1.538,0,0,0,.264.151h0a.518.518,0,0,1,.3.432c.006.036.013.089.023.158.017.123.041.323.065.573a.5.5,0,0,1,0,.089,1.2,1.2,0,0,0,.465,1.059l.035.029a4.714,4.714,0,0,0,1.458.924c.258.077.351.31.555.821.128.321.3.785.537,1.416.434,1.176,1.009,2.778,1.618,4.474,1.427,3.976,3.2,8.925,3.616,9.606.555.916.783.992.985.992a2.271,2.271,0,0,0,.518-.093c.615-.211,5.342-3.63,9.482-6.745a.5.5,0,0,1,.8.415c0,.03-.095,3.053-.24,6.139-.3,6.343-.509,6.764-.611,6.967a3.316,3.316,0,0,1-.651.891c-.177.182-.185.2-.185.279a8.6,8.6,0,0,0,.159,1.271,8.793,8.793,0,0,0,1.649,1.819,8.019,8.019,0,0,0,5.022,1.95c.16,0,.323.007.484.007a18.21,18.21,0,0,0,5.629-.905,5.845,5.845,0,0,0,2.511-1.309,5.7,5.7,0,0,0-.3-1.445.5.5,0,0,1-.027-.163,1.494,1.494,0,0,1,.186-.584,2.621,2.621,0,0,0,.3-.982,1.413,1.413,0,0,0-.127-.384,2.217,2.217,0,0,1-.2-1.289c.031-.282.306-1.2.927-3.251,1.218-4.028,3.256-10.769,3.386-13.323l.017-.331c.174-3.406.15-3.424-.47-3.879a14.785,14.785,0,0,0-3.965-1.133l-.038-.008-5.493-1.4-2.163-.185a.5.5,0,0,1-.229-.079l-.25-.162a26.574,26.574,0,0,0-2.978-.258h0a2.406,2.406,0,0,0-.7.061,27.532,27.532,0,0,0-2.183,2.94c-.469.68-.911,1.321-1.245,1.768-1.008,1.35-7.4,6.749-7.674,6.978a.5.5,0,0,1-.766-.152l-5.774-11.114a.5.5,0,0,1-.044-.341,16.258,16.258,0,0,0,.36-2.438,3.123,3.123,0,0,0-.191-.941,3.833,3.833,0,0,1-.229-1.2,7.756,7.756,0,0,1,.141-1.221c.017-.1.037-.218.055-.335a1.721,1.721,0,0,0-.11.166,5.186,5.186,0,0,0-.212,1.843.5.5,0,0,1-.5.515Z" transform="translate(-222.1 -233.069)" fill="#263238"/><path d="M273.126,266.661c.188-3.7.232-3.987-.657-4.639s-4.175-1.223-4.175-1.223l-5.533-1.406-2.2-.188-.329-.232s-3.561-.517-4.127-.14-2.576,3.513-3.561,4.832-7.6,6.9-7.6,6.9l-1.933-3.928-3.532,2.358c1.45,3.827,2.716,7.108,3.025,7.62.8,1.31,1.174,1.358,2.063,1.121s9.659-6.808,9.659-6.808-.372,12.051-.8,12.9-.889.846-.889,1.406a9.082,9.082,0,0,0,.188,1.45,9.051,9.051,0,0,0,7.127,4.078c4.784.14,9.142-1.783,9.142-2.672a6.192,6.192,0,0,0-.329-1.643c0-.184.565-1.078.483-1.638s-.42-.705-.329-1.546S272.938,270.367,273.126,266.661Z" transform="translate(-229.666 -241.21)" fill="#263238"/><path d="M257.072,258.2h0a28.189,28.189,0,0,1,3.229.283.5.5,0,0,1,.217.086l.218.154,2.068.177a.5.5,0,0,1,.081.014l5.514,1.4c.429.075,3.426.619,4.366,1.309a1.943,1.943,0,0,1,.924,1.453,20.935,20.935,0,0,1-.047,3.286l-.017.328c-.136,2.676-2.19,9.486-3.417,13.555-.441,1.464-.858,2.846-.886,3.068a1.255,1.255,0,0,0,.126.778,2.354,2.354,0,0,1,.2.64,3.013,3.013,0,0,1-.379,1.535c-.024.053-.052.116-.074.169a6.694,6.694,0,0,1,.3,1.619c0,.01,0,.021,0,.031,0,.4-.306.8-.935,1.2a9.925,9.925,0,0,1-2,.932,19.027,19.027,0,0,1-6.208,1.047c-.171,0-.344,0-.513-.007a9.12,9.12,0,0,1-5.666-2.21,9.337,9.337,0,0,1-1.876-2.113.5.5,0,0,1-.059-.152,9.611,9.611,0,0,1-.2-1.53q0-.012,0-.024a1.314,1.314,0,0,1,.468-.987,2.341,2.341,0,0,0,.471-.636c.237-.624.534-6.279.715-11.658-.85.632-2.244,1.664-3.669,2.7-4.683,3.4-5.135,3.52-5.328,3.572a3.069,3.069,0,0,1-.777.127c-.792,0-1.275-.54-1.842-1.471-.281-.466-1.169-2.7-3.065-7.7a.5.5,0,0,1,.19-.593l3.532-2.358a.5.5,0,0,1,.726.2l1.65,3.354a92.633,92.633,0,0,0,7.03-6.4c.322-.431.76-1.065,1.222-1.737a17.869,17.869,0,0,1,2.462-3.212A2.312,2.312,0,0,1,257.072,258.2Zm2.968,1.256a26.472,26.472,0,0,0-2.968-.256h0a2.4,2.4,0,0,0-.7.061,27.531,27.531,0,0,0-2.183,2.94c-.468.679-.911,1.321-1.245,1.768-1.009,1.35-7.4,6.749-7.674,6.978a.5.5,0,0,1-.771-.161l-1.681-3.417-2.727,1.82c.8,2.119,2.517,6.625,2.844,7.167.557.914.785.99.987.99a2.252,2.252,0,0,0,.515-.092c.615-.21,5.347-3.62,9.492-6.727a.5.5,0,0,1,.8.416c0,.03-.095,3.053-.239,6.139-.3,6.343-.509,6.764-.611,6.967a3.316,3.316,0,0,1-.651.891c-.176.182-.185.2-.185.279a8.6,8.6,0,0,0,.16,1.271,8.792,8.792,0,0,0,1.649,1.819,8.019,8.019,0,0,0,5.022,1.95c.16,0,.323.007.484.007a18.21,18.21,0,0,0,5.629-.905,5.846,5.846,0,0,0,2.511-1.309,5.693,5.693,0,0,0-.3-1.445.5.5,0,0,1-.027-.163,1.494,1.494,0,0,1,.186-.584,2.622,2.622,0,0,0,.3-.982,1.412,1.412,0,0,0-.127-.384,2.217,2.217,0,0,1-.2-1.289c.031-.282.305-1.2.923-3.247,1.214-4.025,3.246-10.763,3.375-13.317l.017-.328c.174-3.409.15-3.427-.47-3.882a14.769,14.769,0,0,0-3.965-1.133l-.038-.008-5.493-1.4-2.163-.185a.5.5,0,0,1-.246-.09Z" transform="translate(-229.666 -241.21)" fill="#263238"/><path d="M268.744,278.457a.375.375,0,0,1-.366-.3l-1.174-5.489a.375.375,0,1,1,.733-.157l.448,2.093.009-2.069a.375.375,0,0,1,.375-.373h0a.375.375,0,0,1,.373.377l-.024,5.542a.375.375,0,0,1-.336.371Z" transform="translate(-244.183 -248.365)" fill="#fff"/><path d="M274.47,318.052a25.021,25.021,0,0,1-6.568-.88.375.375,0,1,1,.2-.724,24.185,24.185,0,0,0,14.152-.433.375.375,0,1,1,.241.71A24.977,24.977,0,0,1,274.47,318.052Z" transform="translate(-244.405 -271.016)" fill="#fff"/><path d="M290.15,321.927a.375.375,0,0,1-.044-.747c.437-.052.864-.118,1.428-.219a.375.375,0,0,1,.132.738c-.579.1-1.019.171-1.471.225Z" transform="translate(-255.852 -273.579)" fill="#fff"/><path d="M277.7,320.663a13.646,13.646,0,0,1-7.26-1.752.375.375,0,0,1,.419-.622h0a8.711,8.711,0,0,0,1.825.833,15.558,15.558,0,0,0,5.243.79h0a.375.375,0,0,1,0,.75Z" transform="translate(-245.774 -272.168)" fill="#fff"/><path d="M234.882,255.676a.5.5,0,0,1-.33-.124,2.042,2.042,0,0,1-.686-1.675,2.254,2.254,0,0,1,.55-1.422,2.921,2.921,0,0,0,.209-.3,1.674,1.674,0,0,0,.227-.725.5.5,0,1,1,1,.073,2.679,2.679,0,0,1-.363,1.16,3.812,3.812,0,0,1-.277.4,1.29,1.29,0,0,0-.345.874v.009a1.037,1.037,0,0,0,.348.853.5.5,0,0,1-.33.876Z" transform="translate(-227.021 -237.476)" fill="#263238"/><path d="M227.391,253.1s-1.875-1.31-2.252-1.078a.875.875,0,0,0-.14,1.314,4.472,4.472,0,0,0,2.58.483C227.908,253.644,227.69,253.291,227.391,253.1Z" transform="translate(-222.061 -237.746)" fill="#d9d9d9"/><path d="M227.2,254.371a5.035,5.035,0,0,1-2.537-.662q-.018-.016-.034-.033a1.375,1.375,0,0,1,.22-2.066l.024-.015a.717.717,0,0,1,.382-.1,6.478,6.478,0,0,1,2.411,1.19,1.111,1.111,0,0,1,.573.93.764.764,0,0,1-.43.646A1.284,1.284,0,0,1,227.2,254.371Zm-1.857-1.4a4.545,4.545,0,0,0,1.532.381,7.781,7.781,0,0,0-1.537-.844.375.375,0,0,0,.005.464Z" transform="translate(-222.061 -237.746)" fill="#263238"/><path d="M229.139,256.923s-1.31-.28-1.628-.333-.507.126-.483.459.348.541.855.561,1.633.208,1.682-.28a.338.338,0,0,0-.425-.406Z" transform="translate(-223.23 -240.117)" fill="#d9d9d9"/><path d="M227.4,256.081a1.15,1.15,0,0,1,.189.016c.278.046,1.242.251,1.554.317a.838.838,0,0,1,.91,1c-.048.349-.313.748-1.267.748-.222,0-.446-.018-.644-.033-.106-.008-.207-.016-.283-.019-.933-.036-1.3-.574-1.335-1.024a.94.94,0,0,1,.232-.737A.865.865,0,0,1,227.4,256.081Z" transform="translate(-223.23 -240.117)" fill="#263238"/><path d="M287.69,253.577a.5.5,0,0,1-.015-1,12.446,12.446,0,0,0,3.3-.459.5.5,0,1,1,.431.9,13.4,13.4,0,0,1-3.7.556Z" transform="translate(-254.58 -238.045)" fill="#263238"/><path d="M265.371,268.064s-5.315,5.426-7.04,7.48a34.234,34.234,0,0,1-3.909,3.866l-11.815-7.852a22.048,22.048,0,0,1-1.223-2.054c-.343-.734-.879-.928-1.319-2.054s-.884-1.856-1.223-1.073a1.3,1.3,0,0,0,0,1.416c.2.391.879,1.566.879,1.566s-2.933-1.174-3.962-1.614-2.1-.585-2.15-.193.15.338.638.536,3.518,1.856,3.518,1.856l-.295.15s-4.006-.734-4.4-.783-.295.483,0,.633,1.807.879,1.807.879-.343.295.048.831a6.987,6.987,0,0,0,1.271,1.174,1.851,1.851,0,0,0,.541.928c.391.295,2.933.246,4.006.343a4.74,4.74,0,0,1,1.566.343s12.452,10.631,13.283,10.631,12.414-10.95,13.685-12.564,2.2-4.446,1.421-5.765a2.408,2.408,0,0,0-2.788-1.324" transform="translate(-226.222 -244.633)" fill="#ccc"/><path d="M255.6,285.573c-.293,0-.7,0-7.183-5.356-2.964-2.447-5.823-4.881-6.362-5.34a4.228,4.228,0,0,0-1.327-.278H240.7c-.327-.029-.812-.045-1.326-.062-1.768-.058-2.58-.111-2.936-.379a.507.507,0,0,1-.039-.033,2.343,2.343,0,0,1-.635-.993,7.5,7.5,0,0,1-1.219-1.153l-.022-.028a1.27,1.27,0,0,1-.281-.878c-.472-.228-1.2-.58-1.4-.682a.971.971,0,0,1-.5-1.094.7.7,0,0,1,.787-.481c.2.024,1.189.2,2.189.38-.609-.323-1.107-.58-1.264-.643-.1-.039-.182-.068-.258-.093a.819.819,0,0,1-.688-.968.7.7,0,0,1,.358-.528c.7-.4,2.193.2,2.485.323.562.24,1.709.706,2.623,1.075-.075-.136-.139-.256-.183-.341l-.014-.027a1.768,1.768,0,0,1,0-1.813c.228-.527.555-.632.789-.628.576.01.947.665,1.358,1.717a3.663,3.663,0,0,0,.717,1.159,3.754,3.754,0,0,1,.584.854,21.635,21.635,0,0,0,1.135,1.915l11.417,7.588a33.847,33.847,0,0,0,3.565-3.565c1.72-2.046,6.847-7.284,7.064-7.506a.5.5,0,1,1,.714.7c-.053.054-5.322,5.436-7.015,7.452l0,0a34.837,34.837,0,0,1-3.966,3.922.5.5,0,0,1-.6.034l-11.815-7.852a.5.5,0,0,1-.138-.138,22.633,22.633,0,0,1-1.25-2.1l-.01-.02a2.807,2.807,0,0,0-.448-.644,4.678,4.678,0,0,1-.884-1.439,6.927,6.927,0,0,0-.383-.846.727.727,0,0,0,.058.754l.014.028c.189.374.859,1.529.866,1.54a.5.5,0,0,1-.618.715c-.028-.011-2.71-1.085-3.835-1.56.957.506,2.108,1.134,2.3,1.241a.5.5,0,0,1-.013.884l-.295.15a.5.5,0,0,1-.317.046c-.887-.163-2.044-.373-2.948-.534l.666.322a.5.5,0,0,1,.144.8.363.363,0,0,0,.082.177,6.492,6.492,0,0,0,1.168,1.076.5.5,0,0,1,.2.291,1.346,1.346,0,0,0,.354.637,14.723,14.723,0,0,0,2.369.186c.523.017,1.017.033,1.372.065a5.227,5.227,0,0,1,1.72.379h0a.507.507,0,0,1,.14.085c.316.269,3.173,2.7,6.2,5.2a68.85,68.85,0,0,0,6.754,5.271,69.927,69.927,0,0,0,6.568-5.719c3.2-2.988,6.159-5.9,6.729-6.62,1.153-1.464,2.026-4.11,1.383-5.2a1.924,1.924,0,0,0-2.184-1.109.5.5,0,1,1-.347-.938,2.472,2.472,0,0,1,1.757.064,3.409,3.409,0,0,1,1.636,1.475,4.3,4.3,0,0,1,.11,3.158,9.375,9.375,0,0,1-1.568,3.17c-.716.91-4.172,4.257-7.059,6.944-1.712,1.593-3.227,2.96-4.382,3.953C256.073,285.573,255.82,285.573,255.6,285.573Z" transform="translate(-226.222 -244.633)" fill="#263238"/><path d="M237.09,276.65s1.566.541,2.054.686" transform="translate(-228.431 -250.489)" fill="#fff"/><path d="M239.144,277.836a.5.5,0,0,1-.143-.021c-.493-.146-2.01-.671-2.075-.693a.5.5,0,0,1,.327-.945c.016.005,1.561.539,2.033.679a.5.5,0,0,1-.142.979Z" transform="translate(-228.431 -250.489)" fill="#263238"/><path d="M1.03.645a.5.5,0,0,1-.07,0L-.07.5A.5.5,0,0,1-.5-.07.5.5,0,0,1,.07-.5L1.1-.35a.5.5,0,0,1-.069,1Z" transform="translate(9.978 28.166)" fill="#263238"/><path d="M283.193,268.033s-5.315,5.427-7.04,7.48a34.242,34.242,0,0,1-3.909,3.866l-3.155-2.073-1.788,3.358a50.252,50.252,0,0,0,6.122,4.349c.826,0,12.414-10.95,13.685-12.563s2.2-4.446,1.421-5.765a2.408,2.408,0,0,0-2.788-1.324l-.71.449" transform="translate(-244.043 -244.602)" fill="#263238"/><path d="M273.422,285.388c-.223,0-.559,0-6.35-4.426a.375.375,0,0,1-.1-.474l1.788-3.358a.375.375,0,0,1,.537-.137l2.921,1.919a33.978,33.978,0,0,0,3.654-3.643c1.712-2.038,6.839-7.276,7.057-7.5a.375.375,0,0,1,.536.525c-.053.054-5.325,5.44-7.021,7.459a34.736,34.736,0,0,1-3.955,3.911.375.375,0,0,1-.447.026l-2.812-1.847-1.445,2.714a55.217,55.217,0,0,0,5.64,4.061,64.242,64.242,0,0,0,6.6-5.727c3.23-3.011,6.212-5.944,6.789-6.676a8.456,8.456,0,0,0,1.412-2.86,3.461,3.461,0,0,0-.019-2.482,2.074,2.074,0,0,0-2.3-1.175l-.675.427a.375.375,0,0,1-.4-.634l.71-.449a.375.375,0,0,1,.07-.035,2.346,2.346,0,0,1,1.666.062,3.286,3.286,0,0,1,1.575,1.423c.864,1.465-.07,4.436-1.449,6.187-.711.9-4.162,4.245-7.048,6.93-1.71,1.591-3.224,2.957-4.378,3.95C273.852,285.388,273.614,285.388,273.422,285.388Z" transform="translate(-244.043 -244.602)" fill="#fff"/><path d="M289.3,260.967l-5.533-1.406-1.759-.155-.773-.266s-.4-.058-.966-.121l-.14,10.751,11.051-8.408C290.215,261.122,289.3,260.967,289.3,260.967Z" transform="translate(-250.673 -241.378)" fill="#fff"/><path d="M280.27,258.52a.5.5,0,0,1,.055,0c.567.063.966.121.983.123a.5.5,0,0,1,.091.022l.715.246,1.7.149a.5.5,0,0,1,.079.013l5.514,1.4c.145.025.991.174,1.9.4a.5.5,0,0,1,.181.883l-11.051,8.408a.5.5,0,0,1-.8-.4l.14-10.751a.5.5,0,0,1,.5-.493Zm.849,1.109-.356-.047-.12,9.171,9.382-7.138c-.47-.1-.8-.153-.808-.154l-.04-.008-5.494-1.4-1.719-.151a.5.5,0,0,1-.119-.025Z" transform="translate(-250.673 -241.378)" fill="#263238"/><path d="M287.47,227.424a4.421,4.421,0,0,0-3.126,1.179c-1.266,1.3-1.348,2.15-1.856,2.614s-1.479.42-2.15,1.855a14.6,14.6,0,0,0-1.058,5.4c.126.971.966,1.266,1.773,1.392s2.281.213,2.281.213-.217,3.17-.425,3.122-1.348-.126-1.348-.126-.213,4.938-.251,6.161l-.043,1.227,7.707-5.852-1.5-.628a11.769,11.769,0,0,1,.483-2.87,13.528,13.528,0,0,1,.884-2.15,8.415,8.415,0,0,0,3.716-2.614,5.828,5.828,0,0,0,.445-5.175,5.552,5.552,0,0,0-4.378-3.687A5.8,5.8,0,0,0,287.47,227.424Z" transform="translate(-250.224 -225.046)" fill="#d9d9d9"/><path d="M287.73,226.918a6.317,6.317,0,0,1,.967.075,6.04,6.04,0,0,1,4.774,4.019,6.327,6.327,0,0,1-.513,5.63,8.693,8.693,0,0,1-3.764,2.723,13.07,13.07,0,0,0-.763,1.895,11.28,11.28,0,0,0-.442,2.4l1.176.492a.5.5,0,0,1,.109.86l-7.707,5.852a.5.5,0,0,1-.8-.416l.043-1.227c.038-1.209.249-6.115.251-6.165a.5.5,0,0,1,.533-.477c.223.015.641.045.976.078.075-.447.163-1.29.228-2.11-.51-.037-1.295-.1-1.822-.184-.494-.077-2-.311-2.192-1.822a15.117,15.117,0,0,1,1.1-5.678,3.293,3.293,0,0,1,1.808-1.752,1.967,1.967,0,0,0,.458-.261,2.442,2.442,0,0,0,.41-.623,8.1,8.1,0,0,1,1.424-1.97l.019-.018a4.907,4.907,0,0,1,3.462-1.313C287.553,226.92,287.642,226.918,287.73,226.918Zm.249,17.82-.7-.293a.5.5,0,0,1-.307-.483,12.279,12.279,0,0,1,.5-2.992l0-.006a14.068,14.068,0,0,1,.917-2.23.5.5,0,0,1,.287-.245,7.96,7.96,0,0,0,3.467-2.431,5.41,5.41,0,0,0,.379-4.719,5.043,5.043,0,0,0-3.985-3.358,5.319,5.319,0,0,0-1.049-.057h-.036a3.909,3.909,0,0,0-2.763,1.037,7.119,7.119,0,0,0-1.253,1.742,3.17,3.17,0,0,1-.614.884,2.715,2.715,0,0,1-.706.427,2.334,2.334,0,0,0-1.329,1.271,14.3,14.3,0,0,0-1.015,5.126c.07.544.463.823,1.354.962.774.121,2.219.207,2.233.208a.5.5,0,0,1,.469.533c0,.008-.055.8-.134,1.577-.047.464-.094.836-.139,1.105-.06.36-.152.905-.646.905a.543.543,0,0,1-.118-.014c-.079-.017-.4-.047-.757-.076-.055,1.3-.2,4.669-.229,5.64l-.006.176Z" transform="translate(-250.224 -225.046)" fill="#263238"/><path d="M285.55,240.732a2.263,2.263,0,0,1-.743-.14,1.854,1.854,0,0,1-1.319-1.375,1.063,1.063,0,0,1,.532-1.032,7.41,7.41,0,0,0,1.295-1.139.5.5,0,1,1,.743.669,8.411,8.411,0,0,1-1.48,1.3l-.02.013a.2.2,0,0,0-.077.068c-.02.074.181.387.654.552a.842.842,0,0,0,.554.063.5.5,0,0,1,.794.6A1.091,1.091,0,0,1,285.55,240.732Z" transform="translate(-252.664 -230.195)" fill="#263238"/><path d="M285.05,245.319a4.039,4.039,0,0,1-.884-.1l-.036-.01a1.775,1.775,0,0,1-1.174-1.284.375.375,0,0,1,.623-.359,5.378,5.378,0,0,0,2.329.916.375.375,0,0,1,.027.737A4.039,4.039,0,0,1,285.05,245.319Z" transform="translate(-252.322 -233.533)" fill="#263238"/><path d="M294.726,236.958a.5.5,0,0,1-.5-.451,1.074,1.074,0,0,0-.749-.92.5.5,0,1,1,.3-.954,2.072,2.072,0,0,1,1.445,1.776.5.5,0,0,1-.448.547Z" transform="translate(-257.65 -229.022)" fill="#263238"/><path d="M289.032,233.889a.5.5,0,0,1-.323-.119.769.769,0,0,0-.921-.053.5.5,0,1,1-.556-.831,1.774,1.774,0,0,1,2.123.121.5.5,0,0,1-.324.881Z" transform="translate(-254.487 -227.977)" fill="#263238"/><path d="M291.377,237.779c-.179.285-.43.449-.556.372s-.087-.382.092-.667.43-.449.561-.367S291.561,237.494,291.377,237.779Z" transform="translate(-256.161 -230.048)" fill="#263238"/><path d="M286.4,235.336c-.184.285-.43.449-.561.367s-.087-.377.1-.662.43-.449.556-.372S286.579,235.046,286.4,235.336Z" transform="translate(-253.585 -228.784)" fill="#263238"/><path d="M291.86,241.006a.374.374,0,0,1-.289-.136,2.573,2.573,0,0,0-1.454-.415.375.375,0,0,1,.025-.75,3.122,3.122,0,0,1,2.006.686.375.375,0,0,1-.289.614Z" transform="translate(-255.841 -231.59)" fill="#263238"/><path d="M300.389,231.2a5.552,5.552,0,0,0-4.378-3.687,5.8,5.8,0,0,0-1.131-.082,5.442,5.442,0,0,0-1.28.164,2.5,2.5,0,0,0,.6.633c.387.285,1.479.169,2.658.676s1.9,2.194,1.14,3.2-1.541-.237-1.933.691a13.2,13.2,0,0,0-.445,1.406,1.579,1.579,0,0,0,.034.483c.135.483.454.725.275.966s-.459.483-.459.817a.343.343,0,0,0,.1.232c.715-.285,2.223-.778,2.416.121a1.635,1.635,0,0,1-1.561,1.9,4.629,4.629,0,0,1-1.86-.251s.295.686,1.508.821c.087-.179.14-.275.14-.275a8.415,8.415,0,0,0,3.716-2.614A5.87,5.87,0,0,0,300.389,231.2Z" transform="translate(-257.635 -225.051)" fill="#263238"/><path d="M295.028,226.926a6.316,6.316,0,0,1,1.065.091,6.039,6.039,0,0,1,4.769,4.018,6.4,6.4,0,0,1-.52,5.656,8.7,8.7,0,0,1-3.769,2.728l-.045.091a.5.5,0,0,1-.505.278,2.2,2.2,0,0,1-1.912-1.121.5.5,0,0,1,.625-.669,4.124,4.124,0,0,0,1.637.226,1.574,1.574,0,0,0,1.011-.565.9.9,0,0,0,.118-.733c-.009-.044-.026-.119-.317-.119a4.287,4.287,0,0,0-1.425.358.5.5,0,0,1-.537-.109.84.84,0,0,1-.249-.57c0-.006,0-.012,0-.017a1.511,1.511,0,0,1,.445-.975l.032-.039-.037-.072a2.771,2.771,0,0,1-.238-.563l-.006-.024a2.076,2.076,0,0,1-.045-.636.5.5,0,0,1,.014-.082,13.766,13.766,0,0,1,.461-1.459l.007-.017a.972.972,0,0,1,.931-.674,2.073,2.073,0,0,1,.423.056,1.552,1.552,0,0,0,.291.043c.068,0,.182,0,.349-.222a1.31,1.31,0,0,0,.153-1.115,2.042,2.042,0,0,0-1.091-1.329,6.308,6.308,0,0,0-1.632-.406,2.5,2.5,0,0,1-1.125-.328,2.992,2.992,0,0,1-.724-.759.5.5,0,0,1,.294-.762,5.948,5.948,0,0,1,1.394-.179Zm3.5,10.227a5.521,5.521,0,0,0,1-1.043,5.278,5.278,0,0,0,.389-4.748A5.043,5.043,0,0,0,295.932,228h-.006a5.307,5.307,0,0,0-1-.076l.256.039a7.246,7.246,0,0,1,1.882.476,3.033,3.033,0,0,1,1.662,1.99,2.252,2.252,0,0,1-.319,1.973,1.4,1.4,0,0,1-1.148.622,2.4,2.4,0,0,1-.494-.063,1.824,1.824,0,0,0-.2-.035.488.488,0,0,0-.027.054,12.763,12.763,0,0,0-.413,1.3,1.077,1.077,0,0,0,.023.28,1.9,1.9,0,0,0,.156.354.917.917,0,0,1,.057,1,3.551,3.551,0,0,1,.829-.113,1.172,1.172,0,0,1,1.3.91A2.213,2.213,0,0,1,298.531,237.153Z" transform="translate(-257.635 -225.051)" fill="#263238"/></g></g><g transform="translate(95.062 76.02)"><path d="M226.325,115.789a12.9,12.9,0,0,0-12.9-12.907,12.713,12.713,0,0,0-2.2.193,18.362,18.362,0,1,0-36.724-.068,13.582,13.582,0,0,0-1.783-.126,12.9,12.9,0,0,0-.759,25.784h42.262A12.9,12.9,0,0,0,226.325,115.789Z" transform="translate(-159.756 -80.495)" fill="#fff"/><path d="M214.216,129.167H171.927a13.4,13.4,0,0,1,.73-26.784h.058c.429,0,.861.024,1.29.065A18.846,18.846,0,0,1,192.857,84.18h.035a18.846,18.846,0,0,1,18.82,18.315,13.4,13.4,0,1,1,2.534,26.671Zm-42.248-1H214.2a12.4,12.4,0,1,0-2.893-24.6.5.5,0,0,1-.587-.493A17.862,17.862,0,0,0,192.891,85.18h-.034A17.862,17.862,0,0,0,175,103.009a.5.5,0,0,1-.568.494,13.127,13.127,0,0,0-1.717-.121h-.054a12.4,12.4,0,0,0-.689,24.784Z" transform="translate(-159.756 -80.495)" fill="#263238"/><path d="M224.91,140.773l-8.2-6.813-8.2,6.813h1.8v21.909h12.8V140.773Z" transform="translate(-184.952 -105.963)" fill="#263238"/><path d="M216.9,184.66a.6.6,0,0,0-.594.57l-.029.773h-9.6l-.565,13.457h18.43l.425-10.2L225.11,186l.058-1.343Z" transform="translate(-183.711 -132.164)" fill="#ebe3de"/><path d="M216.9,184.16h8.268a.5.5,0,0,1,.5.522l-.058,1.343-.145,3.258-.425,10.2a.5.5,0,0,1-.5.479H206.11a.5.5,0,0,1-.5-.521l.565-13.457a.5.5,0,0,1,.5-.479h9.12l.011-.292V185.2a1.108,1.108,0,0,1,1.086-1.042Zm7.746,1h-7.741a.1.1,0,0,0-.1.1l-.029.767a.5.5,0,0,1-.5.481h-9.122l-.523,12.457H224.06l.405-9.721Z" transform="translate(-183.711 -132.164)" fill="#263238"/><path d="M225.222,201.9l-.077-12.52H207.43l.14,12.365Z" transform="translate(-184.394 -134.603)" fill="#fff"/><path d="M225.222,202.4h0l-17.652-.155a.5.5,0,0,1-.5-.494l-.14-12.365a.5.5,0,0,1,.5-.506h17.715a.5.5,0,0,1,.5.5l.077,12.52a.5.5,0,0,1-.5.5Zm-17.157-1.15,16.654.146-.071-11.516H207.936Z" transform="translate(-184.394 -134.603)" fill="#263238"/><path d="M224.447,201.9l-.8-12.52H205.93l.14,12.365Z" transform="translate(-183.618 -134.603)" fill="#fff"/><path d="M224.447,202.4h0l-18.377-.155a.5.5,0,0,1-.5-.494l-.14-12.365a.5.5,0,0,1,.5-.506h17.715a.5.5,0,0,1,.5.468l.8,12.52a.5.5,0,0,1-.5.532Zm-17.882-1.15,17.349.146-.738-11.516h-16.74Z" transform="translate(-183.618 -134.603)" fill="#263238"/><path d="M203.474,201.487,201.01,188.58h18.546l2.348,12.907Z" transform="translate(-181.076 -134.19)" fill="#ebe3de"/><path d="M221.9,201.987h-18.43a.5.5,0,0,1-.491-.406l-2.464-12.907a.5.5,0,0,1,.491-.594h18.546a.5.5,0,0,1,.492.41L222.4,201.4a.5.5,0,0,1-.492.59Zm-18.016-1H221.3l-2.166-11.907H201.614Z" transform="translate(-181.076 -134.19)" fill="#263238"/><path d="M0,1.36A.5.5,0,0,1-.5.86V0A.5.5,0,0,1,0-.5.5.5,0,0,1,.5,0V.86A.5.5,0,0,1,0,1.36Z" transform="translate(24.201 50.22)" fill="#263238"/><path d="M0,4.419a.5.5,0,0,1-.5-.5V0A.5.5,0,0,1,0-.5.5.5,0,0,1,.5,0V3.919A.5.5,0,0,1,0,4.419Z" transform="translate(24.201 45.436)" fill="#263238"/><path d="M0,3.791a.5.5,0,0,1-.5-.5V0A.5.5,0,0,1,0-.5.5.5,0,0,1,.5,0V3.291A.5.5,0,0,1,0,3.791Z" transform="translate(39.268 41.281)" fill="#263238"/><path d="M0,3.791a.5.5,0,0,1-.5-.5V0A.5.5,0,0,1,0-.5.5.5,0,0,1,.5,0V3.291A.5.5,0,0,1,0,3.791Z" transform="translate(33.541 67.867)" fill="#263238"/><path d="M0,7.951a.5.5,0,0,1-.5-.5V0A.5.5,0,0,1,0-.5.5.5,0,0,1,.5,0V7.451A.5.5,0,0,1,0,7.951Z" transform="translate(40.683 72.878)" fill="#263238"/><path d="M0,1.911a.5.5,0,0,1-.5-.5V0A.5.5,0,0,1,0-.5.5.5,0,0,1,.5,0V1.411A.5.5,0,0,1,0,1.911Z" transform="translate(40.683 70.293)" fill="#263238"/><path d="M0,3.162a.5.5,0,0,1-.5-.5V0A.5.5,0,0,1,0-.5.5.5,0,0,1,.5,0V2.662A.5.5,0,0,1,0,3.162Z" transform="translate(23.824 69.979)" fill="#263238"/><path d="M0,1.128a.5.5,0,0,1-.5-.5V0A.5.5,0,0,1,0-.5.5.5,0,0,1,.5,0V.628A.5.5,0,0,1,0,1.128Z" transform="translate(25.549 82.286)" fill="#263238"/><path d="M0,10.3a.5.5,0,0,1-.5-.5V0A.5.5,0,0,1,0-.5.5.5,0,0,1,.5,0V9.8A.5.5,0,0,1,0,10.3Z" transform="translate(25.549 71.622)" fill="#263238"/><path d="M356.557,161.675a7.562,7.562,0,0,0-8.867-7.47,10.794,10.794,0,1,0-21.587-.039,7.488,7.488,0,0,0-1.046-.077,7.586,7.586,0,0,0-.459,15.158H349.44a7.591,7.591,0,0,0,7.118-7.572Z" transform="translate(-241.266 -110.836)" fill="#fff"/><path d="M349.44,169.747H324.567a8.086,8.086,0,0,1,.489-16.157c.187,0,.375.008.561.022a11.3,11.3,0,0,1,11.28-10.72h.021a11.292,11.292,0,0,1,11.259,10.742,8.084,8.084,0,1,1,1.293,16.113Zm-24.826-1h24.81a7.084,7.084,0,1,0-1.647-14.05.5.5,0,0,1-.586-.494,10.291,10.291,0,0,0-10.274-10.313H336.9A10.295,10.295,0,0,0,326.6,154.167a.5.5,0,0,1-.572.494,7.083,7.083,0,1,0-1.418,14.086Z" transform="translate(-241.266 -110.836)" fill="#263238"/><path d="M317.506,86.317a4.276,4.276,0,0,0-4.276-4.276,4.019,4.019,0,0,0-.73.063,6.084,6.084,0,0,0-12.167,0,4.785,4.785,0,0,0-.594-.039,4.276,4.276,0,0,0-.256,8.543H313.5a4.276,4.276,0,0,0,4.011-4.291Z" transform="translate(-229.903 -76.02)" fill="#fff"/><path d="M313.5,91.108H299.449a4.776,4.776,0,0,1,.286-9.542l.12,0a6.584,6.584,0,0,1,13.122-.02q.116-.006.231-.006h.024a4.788,4.788,0,0,1,.294,9.566Zm-14-1h13.98a3.788,3.788,0,0,0-.25-7.567h-.022a3.527,3.527,0,0,0-.62.055A.5.5,0,0,1,312,82.1a5.584,5.584,0,0,0-11.167,0,.5.5,0,0,1-.563.5,4.3,4.3,0,0,0-.532-.035,3.776,3.776,0,0,0-.238,7.543Z" transform="translate(-229.903 -76.02)" fill="#263238"/></g></g></svg>